<ttFont>
<head>
        <!-- Most of this table will be recalculated by the compiler -->
        <tableVersion value="1.0"/>
        <fontRevision value="1.002"/>
        <checkSumAdjustment value="0x9655bafc"/>
        <magicNumber value="0x5f0f3cf5"/>
        <flags value="00000000 00000011"/>
        <unitsPerEm value="1000"/>
        <created value="Fri Jan 15 16:49:49 2016"/>
        <modified value="Fri Jan 15 21:49:50 2016"/>
        <xMin value="-1787"/>
        <yMin value="-395"/>
        <xMax value="863"/>
        <yMax value="1271"/>
        <macStyle value="00000000 00000010"/>
        <lowestRecPPEM value="3"/>
        <fontDirectionHint value="2"/>
        <indexToLocFormat value="0"/>
        <glyphDataFormat value="0"/>
    </head>
                    <CharString index="0">
                        rmoveto
-193 -147 -173 -201 -157 99 -93 137 193 147 174 201 157 -98 92 -138 hvcurveto
-76 -495 rmoveto
-55 -48 41 90 116 54 119 98 55 47 -39 -92 -115 -53 -120 -98 hvcurveto
endchar
                    </CharString>
                    <CharString index="1">
                        rmoveto
-61 -51 -41 -35 -42 hhcurveto
-45 -31 32 72 -29 hvcurveto
-111 -63 rlineto
-108 37 67 -58 80 hhcurveto
83 88 63 104 77 hvcurveto
return
                    </CharString>
                    <CharString index="2">
                        rmoveto
71 365 rlineto
122 hlineto
22 116 rlineto
-403 hlineto
-23 -116 rlineto
124 hlineto
-72 -365 rlineto
-122 hlineto
-23 -116 rlineto
403 hlineto
29 116 rlineto
endchar
                    </CharString>
                    <CharString index="3">
                        55 -43 47 -134 23 vhcurveto
15 62 173 -1 29 102 rlineto
-289 hlineto
-51 -233 rlineto
138 -17 46 -21 -26 vvcurveto
-28 -46 -22 -172 14 vhcurveto
-13 -107 rlineto
return
                    </CharString>
                    <CharString index="4">
                        rmoveto
63 -28 83 57 58 94 18 100 rlinecurve
-185 -2 4 -71 -13 -82 -28 -68 rlinecurve
endchar
                    </CharString>
                    <CharString index="5">
                        rmoveto
hintmask 00111110
162 10 -18 198 -22 197 -24 197 rlinecurve
-214 hlineto
hintmask 01011110
-103 -198 -99 -201 -92 -198 rrcurveto
161 hlineto
19 45 21 46 20 46 rrcurveto
182 hlineto
hintmask 10011110
3 -48 2 -47 2 -47 rrcurveto
hintmask 00111110
-38 471 rmoveto
7 hlineto
6 -73 6 -74 5 -74 rrcurveto
-126 hlineto
34 74 34 75 34 72 rrcurveto
endchar
                    </CharString>
                    <CharString index="6">
                        rmoveto
106 81 69 99 105 -107 40 -109 -65 hvcurveto
26 50 59 46 125 23 -23 98 rcurveline
-230 -53 -88 -129 -129 vvcurveto
69 callsubr
28 callsubr
hvcurveto
74 38 49 -25 -48 vvcurveto
-33 -19 -31 -40 vhcurveto
endchar
                    </CharString>
                    <CharString index="7">
                        rmoveto
-11 80 -235 -45 -67 14 -7 91 rlinecurve
234 19 117 80 127 vvcurveto
90 -61 58 -100 -187 -153 -195 -189 -174 143 -123 327 167 vhcurveto
-174 387 rmoveto
38 21 -22 -34 -61 -70 -35 -129 -10 hvcurveto
85 19 53 77 68 hhcurveto
endchar
                    </CharString>
                    <CharString index="8">
                        rmoveto
-211 -166 -200 -238 -179 104 -103 147 211 165 200 238 179 -103 103 -147 hvcurveto
-95 -580 rmoveto
-64 -53 50 108 139 66 143 114 64 53 -49 -108 -140 -66 -143 -114 hvcurveto
endchar
                    </CharString>
                    <CharString index="9">
                        rmoveto
118 -20 -55 65 -117 hhcurveto
-138 -99 -91 -99 hvcurveto
-138 211 -61 -65 vvcurveto
-37 -63 -20 -190 49 vhcurveto
hintmask 01111000
-27 -139 rlineto
hintmask 10111000
320 -62 125 108 104 130 -218 68 76 vvcurveto
28 22 25 36 40 25 -26 -59 17 vhcurveto
return
                    </CharString>
                    <CharString index="10">
                        rmoveto
-147 87 -88 133 168 154 167 194 148 -88 87 -132 -168 -154 -167 -194 vhcurveto
383 103 rmoveto
-103 -51 -107 -83 -57 -33 48 82 103 50 107 84 57 33 -48 -82 vhcurveto
endchar
                    </CharString>
                    <CharString index="11">
                        rmoveto
-83 callgsubr
-125 6 rcurveline
-35 -121 -32 -77 -49 -90 -9 -82 rcurveline
67 callsubr
return
                    </CharString>
                    <CharString index="12">
                        rmoveto
-112 61 -64 90 126 105 132 152 113 -61 63 -90 -126 -105 -132 -152 vhcurveto
265 99 rmoveto
-83 -39 -91 -59 -32 -18 26 57 83 39 92 59 32 18 -28 -56 vhcurveto
endchar
                    </CharString>
                    <CharString index="13">
                        rmoveto
hintmask 00111000
167 20 -126 239 rlineto
87 49 64 64 82 vvcurveto
107 -100 85 -329 -45 vhcurveto
hintmask 01011000
-115 -591 rlineto
156 hlineto
93 480 rlineto
92 9 46 -26 -48 vvcurveto
-49 -39 -43 -123 -49 vhcurveto
-1 vlineto
return
                    </CharString>
                    <CharString index="14">
                        -84 callsubr
hintmask 01011110
-84 callgsubr
hintmask 00111110
-119 53 -57 68 59 73 46 59 64 vhcurveto
hintmask 01011110
-7 -111 68 -33 197 107 rrcurveto
endchar
                    </CharString>
                    <CharString index="15">
                        rmoveto
83 344 -147 -4 -29 -123 rlineto
-123 -17 -54 50 98 vvcurveto
105 56 123 98 50 15 -33 -83 3 20 callgsubr
5 -52 78 -133 hhcurveto
-189 -158 -185 -202 hvcurveto
return
                    </CharString>
                    <CharString index="16">
                        rmoveto
-36 -26 24 56 85 49 113 67 18 32 -8 -20 39 hvcurveto
-23 -62 -18 -73 -6 -70 rrcurveto
-28 -34 -32 -17 -30 hhcurveto
231 -235 rmoveto
36 71 -37 91 1 125 rrcurveto
71 113 54 135 58 vvcurveto
26 -63 25 -39 -12 -14 -10 -17 -14 vhcurveto
14 -31 -31 8 -33 hhcurveto
-203 -130 -190 -183 -116 60 -54 73 62 62 36 50 55 hvcurveto
6 -67 12 -62 -15 -15 -23 -23 -111 -8 -177 11 -15 -147 rcurveline
273 -10 140 52 43 87 rrcurveto
endchar
                    </CharString>
                    <CharString index="17">
                        -76 1 rmoveto
48 156 -170 -2 -38 -156 rlineto
return
                    </CharString>
                    <CharString index="18">
                        rmoveto
-19 76 -136 -53 -63 11 -14 98 rlinecurve
194 157 115 154 141 vvcurveto
86 -48 48 -73 -166 -183 -246 -321 -8 0 -8 1 -8 vhcurveto
-62 -40 35 -61 38 24 38 -149 136 -26 207 125 rlinecurve
-96 566 rmoveto
17 15 -12 -33 -69 -54 -100 -116 -120 hvcurveto
202 11 72 132 55 hhcurveto
return
                    </CharString>
                    <CharString index="19">
                        21 102 rlineto
-169 hlineto
130 79 69 65 80 vvcurveto
93 -100 48 -197 -31 vhcurveto
-15 -106 rlineto
140 18 43 -20 -37 vvcurveto
return
                    </CharString>
                    <CharString index="20">
                        -96 callsubr
endchar
                    </CharString>
                    <CharString index="21">
                        rmoveto
-10 80 -152 -31 -9 2 22 97 rlinecurve
82 361 -152 -9 -112 -145 69 -45 -46 -193 -45 -186 101 -69 252 138 rlinecurve
endchar
                    </CharString>
                    <CharString index="22">
                        rmoveto
77 callsubr
134 hlineto
25 126 rlineto
-431 hlineto
-25 -126 rlineto
135 hlineto
-84 -435 rlineto
-134 hlineto
-25 -127 rlineto
431 hlineto
31 127 rlineto
endchar
                    </CharString>
                    <CharString index="23">
                        rmoveto
-29 -20 24 53 106 57 129 69 20 34 -6 -10 37 hvcurveto
-16 -80 -20 -105 -10 -51 rrcurveto
-35 -45 -47 -25 -30 hhcurveto
return
                    </CharString>
                    <CharString index="24">
                        rmoveto
48 158 -170 -3 -38 -157 rlineto
return
                    </CharString>
                    <CharString index="25">
                        10 16 -21 26 -21 26 -21 132 108 221 131 return
                    </CharString>
                    <CharString index="26">
                        rmoveto
-11 78 rlineto
-83 -18 -9 2 19 vvcurveto
hintmask 10001010
51 68 171 109 vvcurveto
62 -26 52 -87 -71 -77 -38 -73 -75 vhcurveto
hintmask 01010010
13 100 -153 -9 -22 -166 -25 -126 -52 -267 rlinecurve
153 hlineto
hintmask 10100010
71 356 rlineto
50 52 46 24 39 hhcurveto
35 11 -19 -30 hvcurveto
hintmask 10001100
-73 -64 -155 -85 vvcurveto
-93 85 -20 182 98 vhcurveto
return
                    </CharString>
                    <CharString index="27">
                        31 46 -88 68 hhcurveto
59 64 66 91 51 hvcurveto
-71 44 rlineto
-54 -35 -24 -26 -17 hhcurveto
return
                    </CharString>
                    <CharString index="28">
                        rmoveto
hintmask 00111101
162 10 -18 198 -22 197 -24 197 rlinecurve
-214 hlineto
hintmask 01011101
-103 -198 -99 -201 -92 -198 rrcurveto
161 hlineto
19 45 21 46 20 46 rrcurveto
182 hlineto
hintmask 10011101
3 -48 2 -47 2 -47 rrcurveto
hintmask 00111101
-38 471 rmoveto
7 hlineto
6 -73 6 -74 5 -74 rrcurveto
-126 hlineto
34 74 34 75 34 72 rrcurveto
endchar
                    </CharString>
                    <CharString index="29">
                        rmoveto
63 115 78 121 90 109 21 102 rcurveline
-333 hlineto
-25 -105 rlineto
212 hlineto
1 -4 -19 callsubr
rlinecurve
return
                    </CharString>
                    <CharString index="30">
                        75 351 -152 -9 -114 -145 71 -47 -35 -165 rlineto
-150 -31 51 -69 87 hhcurveto
69 64 37 return
                    </CharString>
                    <CharString index="31">
                        -26 -132 -20 -91 -44 -155 rrcurveto
-8 hlineto
-30 227 rlineto
-85 hlineto
-122 -226 rlineto
-5 hlineto
20 148 14 94 20 135 rrcurveto
-157 hlineto
-28 -216 -18 -236 6 -111 rrcurveto
147 hlineto
117 225 rlineto
endchar
                    </CharString>
                    <CharString index="32">
                        rmoveto
-93 -64 -62 -73 -64 49 -51 80 93 65 64 73 63 -50 50 -80 hvcurveto
return
                    </CharString>
                    <CharString index="33">
                        -44 556 rmoveto
9 hlineto
7 -88 7 -89 6 -90 rrcurveto
-150 hlineto
40 90 41 89 40 88 rrcurveto
endchar
                    </CharString>
                    <CharString index="34">
                        rmoveto
133 -21 -55 73 -124 hhcurveto
-149 -110 -105 -114 hvcurveto
-160 232 -64 -83 vvcurveto
-45 -70 -27 -211 60 vhcurveto
hintmask 01111000
-32 -152 rlineto
hintmask 10111000
342 -73 139 125 119 149 -240 75 94 vvcurveto
36 29 30 42 46 29 -30 -70 17 vhcurveto
return
                    </CharString>
                    <CharString index="35">
                        52 76 53 75 52 75 rrcurveto
-82 -474 rmoveto
391 hlineto
35 122 rlineto
-248 -16 callsubr
24 123 rlineto
-502 hlineto
-147 -198 -140 -201 -132 -198 rrcurveto
169 hlineto
return
                    </CharString>
                    <CharString index="36">
                        1 13 -21 29 -21 29 -21 589 -20 hstemhm
29 629 hintmask 10011000
396 -8 rmoveto
hintmask 00111000
168 16 -155 290 249 299 rlineto
-170 hlineto
-242 -294 57 294 61 callsubr
hintmask 01011000
-116 -597 rlineto
158 hlineto
57 294 rlineto
return
                    </CharString>
                    <CharString index="37">
                        -11 callsubr
hintmask 00111000
-114 -591 rlineto
hintmask 10011000
406 -49 163 192 214 vvcurveto
-157 -13 rmoveto
hintmask 01011000
-126 -73 -111 -160 9 vhcurveto
70 364 rlineto
hintmask 10011000
113 4 50 -49 -91 vvcurveto
endchar
                    </CharString>
                    <CharString index="38">
                        rmoveto
-204 -173 -213 -234 -231 176 -98 310 100 hvcurveto
18 140 rlineto
-246 -72 -95 47 147 vvcurveto
122 65 149 112 58 14 -41 -99 vhcurveto
151 2 rlineto
192 5 -50 89 -141 hhcurveto
endchar
                    </CharString>
                    <CharString index="39">
                        rmoveto
96 397 -152 -5 -33 -143 rlineto
-142 -27 -63 59 120 vvcurveto
126 68 150 112 59 16 -41 -99 2 vhcurveto
151 2 rlineto
192 5 -53 89 -143 hhcurveto
-204 -176 -214 -234 hvcurveto
return
                    </CharString>
                    <CharString index="40">
                        -72 0 122 127 100 125 123 return
                    </CharString>
                    <CharString index="41">
                        rmoveto
160 16 -52 61 -114 hhcurveto
-180 -158 -176 -200 -175 130 -124 319 149 hvcurveto
-11 81 rlineto
-236 -36 -46 32 108 vvcurveto
107 63 102 77 42 12 -30 -61 -3 vhcurveto
endchar
                    </CharString>
                    <CharString index="42">
                        519 673 -76 57 -520 -673 rlineto
return
                    </CharString>
                    <CharString index="43">
                        10 -236 108 149 66 callgsubr
237 136 hintmask 10111100
513 -188 rmoveto
-38 callgsubr
-1 1 rlineto
1 hlineto
-18 198 -22 197 -24 197 rrcurveto
-214 hlineto
hintmask 11011100
-103 -198 -99 -201 -92 -198 rrcurveto
161 hlineto
19 45 21 46 20 46 rrcurveto
182 hlineto
2 -39 2 -40 2 -39 rrcurveto
-111 -50 -42 -59 -54 vvcurveto
hintmask 10111100
-84 16 callsubr
-160 654 rmoveto
7 hlineto
6 -73 6 -74 5 -74 rrcurveto
-126 hlineto
34 74 34 75 34 72 rrcurveto
endchar
                    </CharString>
                    <CharString index="44">
                        rmoveto
37 21 -22 -34 -63 -66 -34 -133 -10 hvcurveto
86 17 54 77 70 hhcurveto
-416 -320 rmoveto
-28 -20 24 53 hvcurveto
hintmask 10010110
106 56 129 69 22 40 -7 -14 41 vhcurveto
-36 -59 -22 -72 -3 -82 rrcurveto
hintmask 10001110
-45 -43 -43 -33 -33 hhcurveto
hintmask 01001110
590 -67 rmoveto
-12 80 -252 -44 -49 16 -7 87 rlinecurve
238 18 113 81 128 vvcurveto
90 -62 58 -99 -57 -52 -13 -24 -45 vhcurveto
hintmask 00110110
21 -52 -52 11 -49 hhcurveto
-218 -141 -208 -206 -119 53 -57 70 67 77 56 72 67 hvcurveto
hintmask 01001110
35 -121 137 -62 290 136 rrcurveto
endchar
                    </CharString>
                    <CharString index="45">
                        -60 callgsubr
300 -503 -104 callgsubr
return
                    </CharString>
                    <CharString index="46">
                        163 hlineto
hintmask 11010000
134 688 rlineto
-149 hlineto
-80 -426 rlineto
-8 hlineto
hintmask 10110000
-139 429 -176 -6 -133 -685 rlineto
149 hlineto
84 451 rlineto
9 hlineto
return
                    </CharString>
                    <CharString index="47">
                        -66 callgsubr
hstemhm
return
                    </CharString>
                    <CharString index="48">
                        -65 21 -21 471 126 hstem
74 512 vstem
398 471 rmoveto
164 hlineto
24 126 rlineto
-488 hlineto
-24 -126 rlineto
164 hlineto
-91 -471 61 callgsubr
return
                    </CharString>
                    <CharString index="49">
                        52 15 -21 27 -21 27 -21 159 118 267 138 return
                    </CharString>
                    <CharString index="50">
                        -23 -8 9 -9 118 -88 -21 483 120 hstemhm
388 149 -123 151 hintmask 10011000
537 185 rmoveto
58 -36 46 -63 21 vhcurveto
hintmask 00110100
82 35 45 56 60 vvcurveto
104 -118 69 -303 -43 vhcurveto
-114 -590 rlineto
hintmask 10011000
375 -43 132 110 117 vvcurveto
hintmask 10010100
-123 239 rmoveto
-43 -50 -39 -115 -9 vhcurveto
29 151 rlineto
88 7 48 -24 -43 vvcurveto
hintmask 01011000
-26 -237 rmoveto
-51 -61 -38 -121 15 vhcurveto
28 142 rlineto
106 9 48 -30 -47 vvcurveto
endchar
                    </CharString>
                    <CharString index="51">
                        rmoveto
141 68 144 117 28 27 -9 -20 20 vhcurveto
-258 -293 rlineto
-1 11 -1 13 13 vvcurveto
121 -161 rmoveto
-31 -28 11 23 -22 hvcurveto
261 298 rlineto
3 -14 1 -15 -17 vvcurveto
-142 -68 -144 -116 vhcurveto
-31 -137 rmoveto
211 165 200 238 64 -13 54 -23 43 hvcurveto
71 81 -82 67 -60 -69 rlineto
28 -39 -49 14 -55 hhcurveto
-211 -165 -200 -238 -61 12 -51 21 -42 hvcurveto
-74 -85 82 -66 60 69 rlineto
-30 41 51 -16 57 hhcurveto
endchar
                    </CharString>
                    <CharString index="52">
                        rmoveto
-7 77 -184 -39 -26 22 19 88 rlinecurve
51 232 rlineto
171 hlineto
22 120 rlineto
-167 hlineto
36 163 -118 -8 -105 -155 rlineto
-59 hlineto
-28 -120 rlineto
94 hlineto
-52 -241 -41 -191 118 -103 276 155 rlinecurve
return
                    </CharString>
                    <CharString index="53">
                        36 -239 107 -38 -21 201 -21 608 -20 hstemhm
68 158 -88 136 hintmask 10110100
414 4 callsubr
13 30 vvcurveto
50 75 22 74 42 vhcurveto
77 44 53 61 22 108 71 371 rcurveline
-158 hlineto
-73 -377 rlineto
hintmask 01111000
-73 -14 -38 -33 -59 hhcurveto
-54 -39 32 102 20 hvcurveto
68 349 rlineto
-160 hlineto
-62 -327 -35 -184 73 -83 129 -14 rlinecurve
hintmask 10110100
-79 -49 -27 -44 -44 vvcurveto
-82 94 -51 182 90 vhcurveto
endchar
                    </CharString>
                    <CharString index="54">
                        56 21 -21 231 118 60 99 -94 89 -89 183 hstemhm
32 664 hintmask 11001100
450 349 rmoveto
-190 hlineto
12 65 rlineto
190 hlineto
-80 -414 rmoveto
161 hlineto
hintmask 11100100
79 409 rlineto
54 hlineto
20 99 rlineto
-55 hlineto
hintmask 11001100
17 89 rlineto
-160 hlineto
hintmask 11010100
-18 -94 rlineto
-190 hlineto
hintmask 11001100
18 94 rlineto
-160 hlineto
hintmask 11100100
-17 -89 rlineto
-59 hlineto
-20 -99 rlineto
59 hlineto
-79 -409 61 callgsubr
45 231 rlineto
190 hlineto
endchar
                    </CharString>
                    <CharString index="55">
                        -41 callsubr
-79 callgsubr
return
                    </CharString>
                    <CharString index="56">
                        rmoveto
71 118 rlineto
-119 56 -58 41 45 vvcurveto
hintmask 10010000
62 113 37 82 vvcurveto
39 -24 36 -66 27 vhcurveto
hintmask 10001000
93 25 38 51 47 vvcurveto
hintmask 10100000
54 -53 63 39 vvcurveto
45 69 30 164 35 vhcurveto
-25 126 rlineto
-268 -68 -85 -92 -85 vvcurveto
hintmask 10001000
-70 56 -56 -39 vvcurveto
-27 -28 -19 -105 -5 vhcurveto
-25 -109 rlineto
hintmask 10010000
73 -15 37 -24 -32 vvcurveto
hintmask 11000000
-54 -119 -33 -105 vvcurveto
-77 69 -55 192 -93 vhcurveto
endchar
                    </CharString>
                    <CharString index="57">
                        -72 -240 108 132 79 callgsubr
109 136 vstem
385 -192 rmoveto
-38 callgsubr
35 122 rlineto
-249 hlineto
25 127 rlineto
200 hlineto
20 100 rlineto
-201 hlineto
25 125 rlineto
241 hlineto
23 123 rlineto
-399 hlineto
-115 -597 rlineto
201 hlineto
-88 -47 -34 -53 -48 vvcurveto
-84 16 callsubr
endchar
                    </CharString>
                    <CharString index="58">
                        -9 11 -21 31 -21 31 -21 470 123 hstemhm
416 157 return
                    </CharString>
                    <CharString index="59">
                        rmoveto
-4 -87 -11 -82 -24 -86 65 -21 rcurveline
66 83 46 85 19 113 rrcurveto
return
                    </CharString>
                    <CharString index="60">
                        rmoveto
268 68 85 92 85 vvcurveto
hintmask 11000000
69 -56 57 38 vvcurveto
28 28 19 105 4 vhcurveto
25 110 rlineto
hintmask 10100000
-73 15 -37 24 32 vvcurveto
hintmask 10001000
53 119 34 105 vvcurveto
77 -69 55 -192 93 vhcurveto
-71 -118 rlineto
119 -57 58 -40 -46 vvcurveto
hintmask 10100000
-62 -113 -36 -82 vvcurveto
-39 24 -36 67 -27 vhcurveto
hintmask 11000000
-94 -26 -38 -51 -47 vvcurveto
hintmask 10010000
-53 53 -63 -39 vvcurveto
-45 -68 -31 -165 -34 vhcurveto
endchar
                    </CharString>
                    <CharString index="61">
                        237 72 callsubr
47 157 vstem
768 122 rmoveto
-247 -16 callsubr
23 123 rlineto
-347 hlineto
-323 -136 -156 -189 -181 140 -71 199 hvcurveto
348 hlineto
-530 263 rmoveto
112 62 95 170 5 vhcurveto
-67 -352 rlineto
-103 2 -62 37 101 vvcurveto
endchar
                    </CharString>
                    <CharString index="62">
                        472 -40 callsubr
return
                    </CharString>
                    <CharString index="63">
                        -52 callsubr
-158 -94 return
                    </CharString>
                    <CharString index="64">
                        28 141 -296 -3 369 414 23 136 rlineto
-469 hlineto
-28 -141 290 3 -372 -414 -25 -136 rlineto
endchar
                    </CharString>
                    <CharString index="65">
                        62 29 28 36 23 hhcurveto
23 9 -31 -91 -5 hvcurveto
return
                    </CharString>
                    <CharString index="66">
                        rmoveto
46 -39 40 -91 26 vhcurveto
return
                    </CharString>
                    <CharString index="67">
                        rmoveto
-88 callsubr
return
                    </CharString>
                    <CharString index="68">
                        36 -13 127 483 -20 return
                    </CharString>
                    <CharString index="69">
                        56 -15 148 -145 132 -114 -21 578 -20 27 -20 return
                    </CharString>
                    <CharString index="70">
                        100 188 91.5 return
                    </CharString>
                    <CharString index="71">
                        -17 callgsubr
-109 -668 -103 callsubr
                    </CharString>
                    <CharString index="72">
                        11 481 129 hstem
54 157 234 164 vstem
482 -152 rmoveto
45 127 -205 62 rlineto
166 75 121 126 149 vvcurveto
124 -80 99 -156 -245 -148 -249 -236 112 vhcurveto
134 51 rlineto
202 -45 61 103 101 hhcurveto
62 40 -37 -68 -121 -117 -121 -179 -55 hvcurveto
-33 -106 rlineto
endchar
                    </CharString>
                    <CharString index="73">
                        rmoveto
44 -33 37 -37 32 vhcurveto
return
                    </CharString>
                    <CharString index="74">
                        -31 21 -21 404 122 -122 193 0 -20 hstemhm
410 154 hintmask 11011000
187 hmoveto
15 77 rlineto
227 33 135 96 137 vvcurveto
104 -81 75 -194 4 vhcurveto
14 71 61 callsubr
-116 -597 rlineto
hintmask 10101000
381 320 rmoveto
-69 -61 -59 -122 12 vhcurveto
38 200 rlineto
93 10 52 -35 -59 vvcurveto
endchar
                    </CharString>
                    <CharString index="75">
                        -13 17 -21 25 -21 25 -21 589 7 -3 -20 23 -20 hstemhm
-26 679 hintmask 10000110
365 -4 rmoveto
hintmask 00101010
172 8 -132 288 248 305 rlineto
-172 hlineto
-143 -199 rlineto
hintmask 00100110
-81 202 rlineto
hintmask 01010010
-170 -7 132 -291 -245 -302 rlineto
171 hlineto
140 195 rlineto
endchar
                    </CharString>
                    <CharString index="76">
                        104 vstem
856 387 rmoveto
223 -150 121 -197 -231 -200 -170 -262 -221 150 -120 198 231 199 168 261 vhcurveto
-355 249 rmoveto
142 109 -87 -172 -194 -148 -130 -170 -143 -108 87 170 195 148 131 170 hvcurveto
return
                    </CharString>
                    <CharString index="77">
                        -25 0 148 449 78 callgsubr
80 161 hintmask 10110000
353 hmoveto
hintmask 11010000
101 198 96 201 88 198 rrcurveto
-159 hlineto
-62 -148 -68 -154 -70 -147 rrcurveto
-12 hlineto
hintmask 10110000
-12 148 -9 158 -5 147 -161 -9 rcurveline
11 -198 19 -196 25 -198 rrcurveto
endchar
                    </CharString>
                    <CharString index="78">
                        -165 115 -91 195 30 vhcurveto
-23 -98 rlineto
return
                    </CharString>
                    <CharString index="79">
                        -121 -9 132 358 116 hstem
3 486 vstem
348 48 rmoveto
30 30 13 21 38 195 60 303 rcurveline
-323 hlineto
-23 -116 rlineto
163 hlineto
-38 -196 -24 -120 -6 -15 -14 -13 rlinecurve
-15 -15 -33 -3 -151 4 -22 -132 rcurveline
214 -5 89 21 42 41 rrcurveto
endchar
                    </CharString>
                    <CharString index="80">
                        -8 -47 rlineto
103 -20 53 -25 -23 vvcurveto
-23 -47 -18 -160 18 vhcurveto
-15 -105 rlineto
return
                    </CharString>
                    <CharString index="81">
                        -112 0 126 471 -20 209 -20 hstem
30 538 vstem
223 724 -107 callgsubr
201 -724 rmoveto
-13 callgsubr
                    </CharString>
                    <CharString index="82">
                        -35 23 -30 30 -27 vhcurveto
return
                    </CharString>
                    <CharString index="83">
                        -11 74 rlineto
-93 -27 -36 return
                    </CharString>
                    <CharString index="84">
                        -65 21 -21 471 126 hstem
74 516 vstem
358 648 -100 callgsubr
54 -177 26 callgsubr
                    </CharString>
                    <CharString index="85">
                        44 11 -21 31 -21 31 -21 678 -20 hstemhm
37 680 hintmask 10011000
434 -10 rmoveto
hintmask 00111000
171 20 -170 334 282 344 rlineto
-175 hlineto
-276 -341 66 341 rlineto
-161 hlineto
hintmask 01011000
-134 -688 rlineto
162 hlineto
66 340 rlineto
return
                    </CharString>
                    <CharString index="86">
                        rmoveto
118 -20 -55 65 -117 hhcurveto
-138 -99 -91 -99 hvcurveto
-138 211 -61 -65 vvcurveto
-37 -63 -20 -190 49 vhcurveto
hintmask 01111110
-27 -139 rlineto
hintmask 10111110
320 -62 125 108 104 130 -218 68 76 vvcurveto
28 22 25 36 40 25 -26 -59 17 vhcurveto
return
                    </CharString>
                    <CharString index="87">
                        53 -12 131 -98 -21 430 149 -11 -20 31 -20 hstemhm
378 164 -100 168 return
                    </CharString>
                    <CharString index="88">
                        -92 -105 -79 -111 -63 -110 return
                    </CharString>
                    <CharString index="89">
                        32 callgsubr
hintmask 00111000
-132 -683 rlineto
hintmask 10011000
431 -54 185 224 249 vvcurveto
-159 -18 rmoveto
hintmask 01011000
-153 -87 -130 -185 9 vhcurveto
77 callsubr
hintmask 10011000
132 6 56 -60 -107 vvcurveto
endchar
                    </CharString>
                    <CharString index="90">
                        -98 -11 137 -137 140 468 -20 hstemhm
166 264 -99 156 hintmask 10101000
return
                    </CharString>
                    <CharString index="91">
                        hlineto
25 127 rlineto
199 hlineto
20 100 rlineto
-200 57 callgsubr
rlineto
241 hlineto
return
                    </CharString>
                    <CharString index="92">
                        -112 0 126 146 162 163 -20 hstem
30 483 vstem
424 hmoveto
-67 callgsubr
451 272 rmoveto
32 162 rlineto
-142 hlineto
-32 -162 rlineto
endchar
                    </CharString>
                    <CharString index="93">
                        -91 21 -21 227 112 132 126 hstem
30 513 vstem
433 227 rmoveto
21 112 rlineto
-199 hlineto
26 132 rlineto
240 hlineto
22 126 rlineto
-398 hlineto
-115 -597 rlineto
159 hlineto
44 227 rlineto
endchar
                    </CharString>
                    <CharString index="94">
                        151 hlineto
101 234 53 155 47 174 rrcurveto
-163 hlineto
return
                    </CharString>
                    <CharString index="95">
                        rmoveto
262 233 31 155 -188 230 -121 -99 173 -202 -253 -203 rlineto
-258 -111 rmoveto
267 224 36 155 -183 236 -122 -97 31 callgsubr
                    </CharString>
                    <CharString index="96">
                        rmoveto
190 -160 87 -295 -43 vhcurveto
return
                    </CharString>
                    <CharString index="97">
                        93 -100 48 -197 -31 vhcurveto
-15 -106 rlineto
140 18 43 -20 -37 vvcurveto
-28 callgsubr
-2 -93 rlineto
return
                    </CharString>
                    <CharString index="98">
                        -54 -11 140 -97 -21 555 135 hstemhm
105 160 72 168 hintmask 10111000
return
                    </CharString>
                    <CharString index="99">
                        78.5 2 callsubr
return
                    </CharString>
                    <CharString index="100">
                        27 callsubr
hstemhm
return
                    </CharString>
                    <CharString index="101">
                        -183 -60 callgsubr
return
                    </CharString>
                    <CharString index="102">
                        rmoveto
275 218 95 172 193 vvcurveto
136 -55 144 -127 176 vhcurveto
-119 -80 rlineto
110 -149 44 -122 -110 vvcurveto
-152 -66 -139 -242 -189 vhcurveto
endchar
                    </CharString>
                    <CharString index="103">
                        hstem
42 150 205 146 vstem
return
                    </CharString>
                    <CharString index="104">
                        -63 699 78 callgsubr
109 411 hintmask 10100000
418 618 rmoveto
102 81 -164 165 rlineto
-15 hlineto
hintmask 01100000
-232 -161 rlineto
hintmask 10100000
64 -81 148 101 rlineto
endchar
                    </CharString>
                    <CharString index="105">
                        16 callgsubr
47 callsubr
hintmask 11011100
return
                    </CharString>
                    <CharString index="106">
                        103 21 -21 597 -20 hstem
72 661 vstem
return
                    </CharString>
                    <CharString index="107">
                        2 -16 128 340 128 return
                    </CharString>
                    <CharString index="108">
                        32 callsubr
hstemhm
97 613 hintmask 10011000
return
                    </CharString>
                    <CharString index="109">
                        -66 callgsubr
hstem
return
                    </CharString>
                    <CharString index="110">
                        21 callgsubr
hstem
82 161 vstem
return
                    </CharString>
                    <CharString index="111">
                        -191 rmoveto
-24 callsubr
return
                    </CharString>
                    <CharString index="112">
                        -68 0 127 342 128 return
                    </CharString>
                    <CharString index="113">
                        -210 -13 135 447 -20 return
                    </CharString>
                    <CharString index="114">
                        302 465 -78 callsubr
return
                    </CharString>
                    <CharString index="115">
                        197 -94 116 -266 -225 -36 -154 rlineto
endchar
                    </CharString>
                    <CharString index="116">
                        264 0 122 17 109 1 100 125 123 return
                    </CharString>
                    <CharString index="117">
                        599 358 -11 callsubr
return
                    </CharString>
                    <CharString index="118">
                        -24 0 139.5 409 139.5 return
                    </CharString>
                    <CharString index="119">
                        152 hstem
83 159 170 141 vstem
return
                    </CharString>
                    <CharString index="120">
                        hmoveto
-103 callgsubr
endchar
                    </CharString>
                    <CharString index="121">
                        -40 callgsubr
endchar
                    </CharString>
                    <CharString index="122">
                        678 -83 callsubr
return
                    </CharString>
                    <CharString index="123">
                        94 -50 182 90 vhcurveto
return
                    </CharString>
                    <CharString index="124">
                        381 rmoveto
35 19 callsubr
115 -381 63 callsubr
-36 -182 rlineto
endchar
                    </CharString>
                    <CharString index="125">
                        rmoveto
-13 callsubr
return
                    </CharString>
                    <CharString index="126">
                        182 rlineto
-191 hlineto
-35 -182 rlineto
return
                    </CharString>
                    <CharString index="127">
                        110 124 113 vstem
return
                    </CharString>
                    <CharString index="128">
                        56 callgsubr
hstem
77 718 vstem
return
                    </CharString>
                    <CharString index="129">
                        262 -15 148 -144 133 -116 -21 460 130 -122 127 62 callgsubr
522 147 return
                    </CharString>
                    <CharString index="130">
                        rmoveto
331 hlineto
24 124 rlineto
-182 hlineto
142 734 rlineto
182 hlineto
25 124 rlineto
-331 hlineto
endchar
                    </CharString>
                    <CharString index="131">
                        rmoveto
-330 hlineto
-25 -124 rlineto
182 hlineto
-142 -734 rlineto
-182 hlineto
-25 -124 rlineto
331 hlineto
endchar
                    </CharString>
                    <CharString index="132">
                        hstemhm
45 160 222 145 return
                    </CharString>
                    <CharString index="133">
                        -123 rmoveto
63 -34 125 104 76 106 1 142 rlinecurve
-189 -4 2 -122 -13 -94 -65 -98 rlinecurve
endchar
                    </CharString>
                    <CharString index="134">
                        91.5 76.5 -20 return
                    </CharString>
                    <CharString index="135">
                        6 0 5 1 6 return
                    </CharString>
                    <CharString index="136">
                        376 -12 rmoveto
147 28 -131 274 rlineto
94 58 75 77 97 vvcurveto
118 -97 86 -304 -42 vhcurveto
return
                    </CharString>
                    <CharString index="137">
                        -131 -16 134 321 120 hstem
89 158 vstem
return
                    </CharString>
                    <CharString index="138">
                        45 -11 136 -107 -21 562 143 return
                    </CharString>
                    <CharString index="139">
                        21 21 -21 685 7 -4 -20 24 -20 return
                    </CharString>
                    <CharString index="140">
                        188 rlineto
-191 hlineto
-33 -188 rlineto
return
                    </CharString>
                    <CharString index="141">
                        -51 callgsubr
endchar
                    </CharString>
                    <CharString index="142">
                        497 -16 callgsubr
return
                    </CharString>
                    <CharString index="143">
                        -129 359 -166 -4 -114 -594 rlineto
145 hlineto
70 375 rlineto
7 hlineto
endchar
                    </CharString>
                    <CharString index="144">
                        332 0 135 36 118 1 110 154 134 hstemhm
-35 998 hintmask 10111000
return
                    </CharString>
                    <CharString index="145">
                        -41 callgsubr
hstem
return
                    </CharString>
                    <CharString index="146">
                        -71 0 137 551 -20 hstem
37 return
                    </CharString>
                    <CharString index="147">
                        2 -16 126 344 126 22 -20 hstemhm
44 156 230 156 hintmask 11011000
return
                    </CharString>
                    <CharString index="148">
                        60 -7 8 -8 135 -106 -21 562 134 hstemhm
494 159 hintmask 10011000
return
                    </CharString>
                    <CharString index="149">
                        0 12 9 8 12 12 9 -8 0 hflex1
return
                    </CharString>
                    <CharString index="150">
                        0 -12 3 -4 5 5 3 4 0 hflex1
return
                    </CharString>
                    <CharString index="151">
                        103 7 -20 252 102 hstemhm
return
                    </CharString>
                    <CharString index="152">
                        101 258 101 hstem
return
                    </CharString>
                    <CharString index="153">
                        -136 -11 124 521 12 callgsubr
return
                    </CharString>
                    <CharString index="154">
                        hstemhm
60 157 170 134 return
                    </CharString>
                    <CharString index="155">
                        121 -33 121 hstemhm
return
                    </CharString>
                    <CharString index="156">
                        92 -16 137 446 137 hstem
58 160 305 161 vstem
return
                    </CharString>
                    <CharString index="157">
                        74 117 88 hstem
return
                    </CharString>
                    <CharString index="158">
                        rmoveto
63 73 callsubr
-189 -4 return
                    </CharString>
                    <CharString index="159">
                        -8 -2 -5 -6 -11 hhcurveto
-13 -8 8 12 12 9 9 11 hvcurveto
return
                    </CharString>
                    <CharString index="160">
                        -33 callgsubr
hintmask 10110110
return
                    </CharString>
                    <CharString index="161">
                        hstem
58 163 249 151 vstem
return
                    </CharString>
                    <CharString index="162">
                        124 734 124 hstem
return
                    </CharString>
                    <CharString index="163">
                        hstem
86 160 vstem
return
                    </CharString>
                    <CharString index="164">
                        142 -101 149 -137 145 -44 155 hintmask 10010000
return
                    </CharString>
                    <CharString index="165">
                        -15 -105 rlineto
hintmask 10110000
14 callsubr
                    </CharString>
                    <CharString index="166">
                        110 282 9 61 rlineto
-175 hlineto
-57 -343 rlineto
return
                    </CharString>
                    <CharString index="167">
                        -41 44 -37 vhcurveto
81 97 rlineto
-33 27 -23 16 17 vvcurveto
51 return
                    </CharString>
                    <CharString index="168">
                        rlineto
-158 hlineto
return
                    </CharString>
                    <CharString index="169">
                        770 -83 callsubr
return
                    </CharString>
                    <CharString index="170">
                        rmoveto
36 182 rlineto
-191 hlineto
return
                    </CharString>
                    <CharString index="171">
                        hstemhm
58 163 257 151 return
                    </CharString>
                    <CharString index="172">
                        rlineto
54 52 48 26 39 hhcurveto
36 11 -18 -29 hvcurveto
return
                    </CharString>
                    <CharString index="173">
                        461 89 152 -20 21 -20 144 97 hstemhm
return
                    </CharString>
                    <CharString index="174">
                        204 hlineto
-3 callgsubr
14 74 rlineto
return
                    </CharString>
                    <CharString index="175">
                        -9 3 -3 7 5 3 2 5 1 vhcurveto
7 hlineto
return
                    </CharString>
                    <CharString index="176">
                        -102 65 -52 95 vhcurveto
18 88 28 callgsubr
return
                    </CharString>
                    <CharString index="177">
                        -239 103 239 102 return
                    </CharString>
                    <CharString index="178">
                        80 -76 callgsubr
return
                    </CharString>
                    <CharString index="179">
                        0 79 callgsubr
return
                    </CharString>
                    <CharString index="180">
                        -37 125 101 74 110 3 142 rlinecurve
return
                    </CharString>
                    <CharString index="181">
                        vstem
424 hmoveto
24 126 rlineto
-234 hlineto
return
                    </CharString>
                    <CharString index="182">
                        hintmask 100000000000000000000000000000000000000000000000
return
                    </CharString>
                    <CharString index="183">
                        182 199 182 hstem
return
                    </CharString>
                    <CharString index="184">
                        84 435 rlineto
return
                    </CharString>
                    <CharString index="185">
                        25 callsubr
hintmask 10111100
return
                    </CharString>
                    <CharString index="186">
                        hlineto
-73 -48 -29 -52 -47 vvcurveto
-84 94 -50 return
                    </CharString>
                    <CharString index="187">
                        rmoveto
-7 callgsubr
return
                    </CharString>
                    <CharString index="188">
                        hstemhm
80 571 return
                    </CharString>
                    <CharString index="189" fingerprint="e26cb4f3">
                        -63 122 -410 -265 -23 -129 313 -327 return
                    </CharString>
                    <CharString index="190" fingerprint="77357c31">
                        rmoveto
183 hlineto
34 171 rlineto
-184 hlineto
endchar
                    </CharString>
                    <CharString index="191" fingerprint="256033b9">
                        hlineto
85 callsubr
return
                    </CharString>
                    <CharString index="192" fingerprint="d5a87c62">
                        26 86 callsubr
return
                    </CharString>
                    <CharString index="193" fingerprint="fb64a85a">
                        131 rlineto
return
                    </CharString>
                    <CharString index="194" fingerprint="1e39ac37">
                        rmoveto
1723 88 callsubr
-1723 hlineto
return
                    </CharString>
                    <CharString index="195" fingerprint="800351b2">
                        hlineto
85 callgsubr
return
                    </CharString>
                    <CharString index="196" fingerprint="d60c0b36">
                        90 callsubr
hstem
return
                    </CharString>
                    <CharString index="197" fingerprint="1deed8a2">
                        152 84 callgsubr
return
                    </CharString>
                    <CharString index="198" fingerprint="ed114548">
                        246 693 rmoveto
-107 -104 return
                    </CharString>
                    <CharString index="199" fingerprint="fdbdf28a">
                        hlineto
-27 -131 rlineto
return
                    </CharString>
                    <CharString index="200" fingerprint="ebe0bd64">
                        hlineto
-27 -132 rlineto
return
                    </CharString>
                    <CharString index="201" fingerprint="9d6990a4">
                        95 callsubr
endchar
                    </CharString>
                    <CharString index="202" fingerprint="0a376d15">
                        96 callsubr
rlineto
return
                    </CharString>
                    <CharString index="203" fingerprint="ce9611a3">
                        97 callsubr
24 130 return
                    </CharString>
                    <CharString index="204" fingerprint="9ffb92b0">
                        63 -122 409 264 return
                    </CharString>
                    <CharString index="205" fingerprint="ed539986">
                        356 99 callsubr
-258 -167 rlineto
return
                    </CharString>
                    <CharString index="206" fingerprint="a922991d">
                        rmoveto
344 215 -63 122 return
                    </CharString>
                    <CharString index="207" fingerprint="4465ff65">
                        -215 1031 return
                    </CharString>
                    <CharString index="208" fingerprint="558132c6">
                        hlineto
-74 -111 rlineto
return
                    </CharString>
                    <CharString index="209" fingerprint="688d9a51">
                        90 callsubr
hstemhm
-1187 496 -496 return
                    </CharString>
                    <CharString index="210" fingerprint="d021177f">
                        -107 -104 270 -267 -2 -13 return
                    </CharString>
                    <CharString index="211" fingerprint="3c2302fa">
                        -344 -215 63 -122 279 180 rlineto
return
                    </CharString>
                    <CharString index="212" fingerprint="74339e1b">
                        269 134 hstem
return
                    </CharString>
                    <CharString index="213" fingerprint="5e871159">
                        vstem
91 callsubr
188 -186 rlineto
return
                    </CharString>
                    <CharString index="214" fingerprint="2e97c44c">
                        hlineto
-27 -134 rlineto
return
                    </CharString>
                    <CharString index="215" fingerprint="e3d5b7cd">
                        hlineto
-280 -175 94 callsubr
                    </CharString>
                    <CharString index="216" fingerprint="d494bf67">
                        hlineto
72 45 83 callgsubr
-78 77 rlineto
return
                    </CharString>
                    <CharString index="217" fingerprint="4fde3afe">
                        42 52 43 62 44 73 -123 44 rcurveline
-24 -48 -24 -41 -22 -35 -23 45 -18 42 -11 40 rrcurveto
72 67 40 69 51 vvcurveto
52 -44 33 -62 -82 -86 -62 -134 -17 1 -18 3 -19 vhcurveto
-152 -118 -48 -108 -92 vvcurveto
return
                    </CharString>
                    <CharString index="218" fingerprint="52700f2f">
                        40 24 53 60 60 vhcurveto
112 callsubr
-29 -17 16 38 hvcurveto
return
                    </CharString>
                    <CharString index="219" fingerprint="976989be">
                        18 -48 24 -51 30 -53 rrcurveto
-40 -44 -38 -15 -28 hhcurveto
return
                    </CharString>
                    <CharString index="220" fingerprint="3e5ef760">
                        rmoveto
-148 -3 -194 -998 rlineto
147 hlineto
return
                    </CharString>
                    <CharString index="221" fingerprint="e17922fa">
                        395 88 callgsubr
return
                    </CharString>
                    <CharString index="222" fingerprint="83dff4bc">
                        26 134 rlineto
-339 107 callsubr
return
                    </CharString>
                    <CharString index="223" fingerprint="ac63e3f4">
                        271 131 hstem
return
                    </CharString>
                    <CharString index="224" fingerprint="7f8bfa69">
                        37 187 rlineto
-140 hlineto
-36 -187 rlineto
return
                    </CharString>
                    <CharString index="225" fingerprint="f5650554">
                        -36 -156 rlineto
172 -18 86 -23 -61 vvcurveto
-50 -56 -39 -148 -77 vhcurveto
48 -81 96 callgsubr
116 94 94 94 vvcurveto
109 -126 65 -273 27 vhcurveto
return
                    </CharString>
                    <CharString index="226" fingerprint="4181973e">
                        rmoveto
97 callgsubr
33 168 rlineto
-181 hlineto
return
                    </CharString>
                    <CharString index="227" fingerprint="8f7a5840">
                        -129 50 -662 -991 138 -40 return
                    </CharString>
                    <CharString index="228" fingerprint="6122fe9c">
                        -33 59 -79 hhcurveto
-79 -66 -68 -95 return
                    </CharString>
                    <CharString index="229" fingerprint="0f5e6060">
                        -35 -29 29 35 35 29 29 35 return
                    </CharString>
                <CharString name=".notdef">
                    -128 -200 50 900 50 hstem
0 50 400 50 vstem
-200 vmoveto
500 1000 -500 hlineto
71 -50 rmoveto
358 hlineto
-179 -390 rlineto
200 316 rmoveto
-752 vlineto
-172 376 rlineto
-228 -376 rmoveto
752 vlineto
172 -376 rlineto
28 -60 rmoveto
179 -390 rlineto
-358 hlineto
endchar
                </CharString>
                <CharString name="A">
                    -58 callsubr
40 callgsubr
hintmask 10011100
433 -6 -89 callgsubr
                </CharString>
                <CharString name="A.sc">
                    -82 callsubr
hstemhm
-19 572 hintmask 10011100
391 -5 -102 callgsubr
                </CharString>
                <CharString name="AE">
                    37 callsubr
508 554 -43 callgsubr
                </CharString>
                <CharString name="AE.sc">
                    9 callsubr
hstemhm
-40 921 hintmask 10111000
452 474 rmoveto
9 hlineto
hintmask 11011000
-43 -226 rlineto
-123 hlineto
hintmask 10111000
-72 callsubr
hintmask 11011000
25 callgsubr
                </CharString>
                <CharString name="AEacute">
                    37 callsubr
534 816 -107 callgsubr
-26 -262 -43 callgsubr
                </CharString>
                <CharString name="AEacute.sc">
                    9 callsubr
189 -20 hstemhm
-40 921 hintmask 10111100
434 724 -107 callgsubr
18 -250 rmoveto
9 hlineto
hintmask 11011100
-43 -226 rlineto
-123 hlineto
hintmask 10111100
-72 callsubr
hintmask 11011100
25 callgsubr
                </CharString>
                <CharString name="Aacute">
                    -58 callsubr
40 callgsubr
hintmask 00111100
305 816 -107 callgsubr
hintmask 10011100
128 -822 -89 callgsubr
                </CharString>
                <CharString name="Aacute.sc">
                    -82 callsubr
189 -20 hstemhm
-19 627 hintmask 00111110
263 724 -107 callgsubr
hintmask 10011110
128 -729 -102 callsubr
                </CharString>
                <CharString name="Abreve">
                    -58 callsubr
63 125 40 callgsubr
hintmask 00111110
599 972 -106 callsubr
hintmask 10011110
-248 -924 rmoveto
hintmask 00111110
163 12 -18 232 -21 226 -25 224 rlinecurve
-223 hlineto
hintmask 01011110
-78 callgsubr
hintmask 10011110
3 -57 3 -57 2 -57 rrcurveto
hintmask 00111110
-74 callsubr
                </CharString>
                <CharString name="Abreve.sc">
                    -82 callsubr
62 125 hstemhm
-19 659 hintmask 00111110
558 880 -106 callsubr
hintmask 10011110
-249 -831 -102 callsubr
                </CharString>
                <CharString name="Acircumflex">
                    -58 callsubr
40 callgsubr
hintmask 00111100
548 743 -98 callgsubr
hintmask 10011100
-18 -854 -89 callgsubr
                </CharString>
                <CharString name="Acircumflex.sc">
                    -82 callsubr
hstemhm
-19 628 hintmask 00111100
507 651 -98 callgsubr
hintmask 10011100
-19 -761 -102 callgsubr
                </CharString>
                <CharString name="Adieresis">
                    -58 callsubr
71 callsubr
429 167 hintmask 00111011
625 62 callsubr
hintmask 10011101
-90 callsubr
204 -773 rmoveto
hintmask 00111101
163 12 -18 232 -21 226 -25 224 rlinecurve
-223 hlineto
hintmask 01011101
-78 callgsubr
hintmask 10011101
3 -57 3 -57 2 -57 rrcurveto
hintmask 00111101
-74 callsubr
                </CharString>
                <CharString name="Adieresis.sc">
                    -82 callsubr
79 -76 callgsubr
-19 650 hintmask 00111011
583 15 callsubr
hintmask 10011101
-90 callsubr
204 -680 -79 callsubr
                </CharString>
                <CharString name="Agrave">
                    -58 callsubr
40 callgsubr
hintmask 00111100
561 811 -99 callgsubr
hintmask 10011100
-99 -750 -89 callgsubr
                </CharString>
                <CharString name="Agrave.sc">
                    -82 callsubr
hstemhm
-19 572 hintmask 00111100
520 719 -99 callgsubr
hintmask 10011100
-100 -657 -102 callgsubr
                </CharString>
                <CharString name="Amacron">
                    -58 callsubr
93 134 40 callgsubr
hintmask 00111110
653 915 -72 callgsubr
hintmask 10011110
-194 -787 rmoveto
hintmask 00111110
163 12 -18 232 -21 226 -25 224 rlinecurve
-223 hlineto
hintmask 01011110
-78 callgsubr
hintmask 10011110
3 -57 3 -57 2 -57 rrcurveto
hintmask 00111110
-74 callsubr
                </CharString>
                <CharString name="Amacron.sc">
                    -82 callsubr
92 134 hstemhm
-19 630 hintmask 00111110
611 823 -72 callgsubr
hintmask 10011110
-194 -694 -102 callsubr
                </CharString>
                <CharString name="Aogonek">
                    52 -235 108 127 20 7 -21 159 118 267 138 hstemhm
280 136 9 171 hintmask 11011110
556 -187 80 callsubr
hintmask 10111010
31 47 40 133 29 vhcurveto
-1 1 rlineto
1 hlineto
-18 232 -21 226 -25 224 rrcurveto
-223 hlineto
hintmask 11011010
-78 callgsubr
3 -49 2 -48 2 -48 rrcurveto
hintmask 11011110
-110 -51 -42 -59 -53 vvcurveto
-84 16 callsubr
hintmask 11011010
-167 737 rmoveto
9 hlineto
7 -88 7 -89 6 -90 rrcurveto
-150 hlineto
40 90 41 89 40 88 rrcurveto
endchar
                </CharString>
                <CharString name="Aogonek.sc">
                    -64 callsubr
                </CharString>
                <CharString name="Aring">
                    -58 callsubr
53 250 40 callgsubr
hintmask 00111110
469 991 -75 callsubr
hintmask 10011110
-36 -997 rmoveto
hintmask 00111110
163 12 -18 232 -21 226 -25 224 rlinecurve
-223 hlineto
hintmask 01011110
-78 callgsubr
hintmask 10011110
3 -57 3 -57 2 -57 rrcurveto
hintmask 00111110
-74 callsubr
                </CharString>
                <CharString name="Aring.sc">
                    -82 callsubr
52 250 hstemhm
-19 576 hintmask 00111110
427 899 -75 callsubr
hintmask 10011110
-36 -904 -102 callsubr
                </CharString>
                <CharString name="Aringacute">
                    -58 callsubr
40 callgsubr
hintmask 00111100
359 1094 -107 callgsubr
110 -103 -75 callsubr
hintmask 10011100
-36 -997 -89 callgsubr
                </CharString>
                <CharString name="Aringacute.sc">
                    -82 callsubr
hstemhm
-19 681 hintmask 00111100
317 1002 -107 callgsubr
110 -103 -75 callsubr
hintmask 10011100
-36 -904 -102 callgsubr
                </CharString>
                <CharString name="Atilde">
                    -58 callsubr
69 48 callsubr
429 167 hintmask 00111101
540 878 rmoveto
hintmask 00111011
-80 callgsubr
hintmask 00111101
-80 callsubr
hintmask 10011101
-107 -884 rmoveto
hintmask 00111101
163 12 -18 232 -21 226 -25 224 rlinecurve
-223 hlineto
hintmask 01011101
-78 callgsubr
hintmask 10011101
3 -57 3 -57 2 -57 rrcurveto
hintmask 00111101
-74 callsubr
                </CharString>
                <CharString name="Atilde.sc">
                    -82 callsubr
68 48 callsubr
-19 664 hintmask 00111101
498 786 rmoveto
hintmask 00111011
-80 callgsubr
hintmask 00111101
-80 callsubr
hintmask 10011101
-107 -791 -79 callsubr
                </CharString>
                <CharString name="B">
                    22 -9 10 -10 129 -98 -21 563 133 hstemhm
429 154 -121 155 hintmask 10011000
583 217 rmoveto
65 -39 52 -68 23 vhcurveto
hintmask 00110100
90 41 51 65 72 vvcurveto
116 -126 80 -322 -49 vhcurveto
-132 -681 rlineto
hintmask 10011000
395 -49 151 126 139 vvcurveto
hintmask 10010100
-121 276 rmoveto
-52 -60 -48 -132 -12 vhcurveto
35 183 rlineto
101 10 56 -30 -51 vvcurveto
hintmask 01011000
-33 -279 rmoveto
-62 -71 -46 -137 18 vhcurveto
32 171 rlineto
121 11 55 -35 -57 vvcurveto
endchar
                </CharString>
                <CharString name="B.sc">
                    -57 callsubr
                </CharString>
                <CharString name="C">
                    19 callgsubr
435 702 -69 callsubr
                </CharString>
                <CharString name="C.sc">
                    -32 callgsubr
389 610 -94 callgsubr
                </CharString>
                <CharString name="Cacute">
                    19 callgsubr
314 829 -107 callgsubr
121 -127 -69 callsubr
                </CharString>
                <CharString name="Cacute.sc">
                    -32 callgsubr
275 736 -107 callgsubr
114 -126 -94 callgsubr
                </CharString>
                <CharString name="Ccaron">
                    19 callgsubr
446 753 -100 callgsubr
3 -51 -69 callsubr
                </CharString>
                <CharString name="Ccaron.sc">
                    -32 callgsubr
408 660 -100 callgsubr
-5 -50 -94 callgsubr
                </CharString>
                <CharString name="Ccedilla">
                    22 -89 222 -144 144 -112 -21 559 143 hstemhm
58 163 81 126 42 151 hintmask 00111110
428 -209 rmoveto
hintmask 01011110
6 97 -22 66 -36 35 50 5 57 12 61 20 18 140 rcurveline
-246 -72 -95 47 147 vvcurveto
122 65 149 112 58 14 -41 -99 vhcurveto
151 2 rlineto
192 5 -50 89 -141 hhcurveto
-204 -173 -213 -234 hvcurveto
hintmask 00111110
-134 59 -89 110 -32 vhcurveto
hintmask 10011110
-39 -27 -35 -53 -32 -82 74 -25 rcurveline
-29 callgsubr
                </CharString>
                <CharString name="Ccedilla.sc">
                    -61 callgsubr
                </CharString>
                <CharString name="Cdotaccent">
                    22 -13 146 426 143 -8 callsubr
58 163 249 151 vstem
519 781 -70 callgsubr
83 -78 -69 callsubr
                </CharString>
                <CharString name="Cdotaccent.sc">
                    -26 -12 135 353 134 34 callgsubr
hstem
45 159 215 145 vstem
480 688 -70 callgsubr
76 -77 -94 callgsubr
                </CharString>
                <CharString name="D">
                    41 callsubr
653 420 -18 callsubr
                </CharString>
                <CharString name="D.sc">
                    -9 callgsubr
599 358 -70 callsubr
                </CharString>
                <CharString name="Dcaron">
                    41 callsubr
427 748 -100 callgsubr
240 -328 -18 callsubr
                </CharString>
                <CharString name="Dcaron.sc">
                    -9 callgsubr
380 655 -100 callgsubr
233 -297 -70 callsubr
                </CharString>
                <CharString name="Dcroat">
                    -53 callgsubr
                </CharString>
                <CharString name="Dcroat.sc">
                    11 -86 callgsubr
                </CharString>
                <CharString name="E">
                    -33 -34 callgsubr
hstem
37 561 vstem
498 135 -88 callgsubr
                </CharString>
                <CharString name="E.sc">
                    -72 72 callsubr
30 514 vstem
460 122 -105 callgsubr
                </CharString>
                <CharString name="Eacute">
                    -33 -34 callgsubr
hstem
37 575 vstem
267 816 -107 callgsubr
231 -681 -88 callgsubr
                </CharString>
                <CharString name="Eacute.sc">
                    -67 callsubr
189 -20 hstem
30 544 vstem
229 724 -107 callgsubr
231 -602 -105 callgsubr
                </CharString>
                <CharString name="Ebreve">
                    -33 -34 callgsubr
63 125 hstem
37 606 vstem
561 972 -106 callsubr
-145 -783 -88 callgsubr
                </CharString>
                <CharString name="Ebreve.sc">
                    -67 callsubr
62 125 hstem
30 575 vstem
523 880 -106 callsubr
-145 -704 -105 callgsubr
                </CharString>
                <CharString name="Ecaron">
                    -33 -34 callgsubr
hstem
37 594 vstem
399 740 -100 callgsubr
113 -605 -88 callgsubr
                </CharString>
                <CharString name="Ecaron.sc">
                    -72 72 callsubr
30 563 vstem
361 648 -100 callgsubr
113 -526 -105 callgsubr
                </CharString>
                <CharString name="Ecircumflex">
                    -33 -34 callgsubr
hstem
37 575 vstem
510 743 -98 callgsubr
85 -713 -88 callgsubr
                </CharString>
                <CharString name="Ecircumflex.sc">
                    -72 72 callsubr
30 544 vstem
472 651 -98 callgsubr
85 -634 -105 callgsubr
                </CharString>
                <CharString name="Edieresis">
                    -33 -34 callgsubr
71 callsubr
37 598 hintmask 11101100
587 62 callsubr
hintmask 11110100
-90 callsubr
307 -632 -88 callgsubr
                </CharString>
                <CharString name="Edieresis.sc">
                    -67 callsubr
79 -76 callgsubr
30 567 hintmask 11101100
549 15 callsubr
hintmask 11110100
-90 callsubr
307 -553 -105 callgsubr
                </CharString>
                <CharString name="Edotaccent">
                    -33 -34 callgsubr
79.5 2 callsubr
37 561 vstem
471 768 -70 callgsubr
194 -632 -88 callgsubr
                </CharString>
                <CharString name="Edotaccent.sc">
                    -67 callsubr
-8 callsubr
30 514 vstem
433 676 -70 callgsubr
194 -553 -105 callgsubr
                </CharString>
                <CharString name="Egrave">
                    -33 -34 callgsubr
hstem
37 561 vstem
523 811 -99 callgsubr
4 -609 -88 callgsubr
                </CharString>
                <CharString name="Egrave.sc">
                    -72 72 callsubr
30 514 vstem
485 719 -99 callgsubr
4 -530 -105 callgsubr
                </CharString>
                <CharString name="Emacron">
                    -33 -34 callgsubr
93 134 hstem
37 578 vstem
615 915 -72 callgsubr
-91 -646 -88 callgsubr
                </CharString>
                <CharString name="Emacron.sc">
                    -67 callsubr
92 134 hstem
30 546 vstem
576 823 -72 callgsubr
-90 -567 -105 callgsubr
                </CharString>
                <CharString name="Eogonek">
                    -33 -240 108 132 135 155 110 154 134 hstem
144 136 vstem
420 -192 rmoveto
-38 callgsubr
38 135 rlineto
-272 hlineto
30 155 rlineto
222 hlineto
22 110 rlineto
-223 hlineto
29 154 rlineto
266 hlineto
26 134 rlineto
-427 hlineto
-134 -688 rlineto
229 hlineto
-88 -47 -34 -53 -48 vvcurveto
-84 16 callsubr
endchar
                </CharString>
                <CharString name="Eogonek.sc">
                    -50 callsubr
                </CharString>
                <CharString name="Eth">
                    -53 callgsubr
                </CharString>
                <CharString name="Eth.sc">
                    15 -86 callgsubr
                </CharString>
                <CharString name="Euro">
                    -4 -14 128 75 109 -93 96 60 96 117 130 hstemhm
38 604 hintmask 10111100
554 44 rmoveto
-12 91 -184 -42 -68 20 -18 92 rlinecurve
205 hlineto
24 96 rlineto
-233 hlineto
2 20 3 20 4 20 rrcurveto
239 hlineto
24 96 rlineto
-233 hlineto
67 30 45 50 55 hhcurveto
39 16 -22 -47 11 hvcurveto
139 23 rlineto
124 -15 -55 52 -98 hhcurveto
-130 -115 -97 -137 -61 hvcurveto
-78 hlineto
-21 -109 rlineto
64 hlineto
hintmask 11011100
-4 -21 -4 -21 -2 -21 rrcurveto
-64 hlineto
-21 -109 rlineto
87 hlineto
hintmask 10111100
22 -172 128 -102 279 129 rrcurveto
endchar
                </CharString>
                <CharString name="F">
                    -52 21 -21 268 122 162 136 hstem
37 561 vstem
474 268 rmoveto
23 122 rlineto
-221 hlineto
32 162 rlineto
264 hlineto
26 136 rlineto
-427 hlineto
-134 -688 rlineto
163 hlineto
52 268 rlineto
endchar
                </CharString>
                <CharString name="F.sc">
                    -14 callsubr
                </CharString>
                <CharString name="G">
                    31 callsubr
64 callsubr
hintmask 10111000
515 -118 -68 callsubr
hintmask 01111000
53 callgsubr
                </CharString>
                <CharString name="G.sc">
                    -10 callgsubr
25 callsubr
hintmask 10111000
475 -100 -92 callsubr
hintmask 01111000
14 callgsubr
                </CharString>
                <CharString name="Gbreve">
                    31 callsubr
62 125 64 callsubr
hintmask 10111100
616 985 -106 callsubr
-183 -1049 -68 callsubr
hintmask 01111100
53 callgsubr
                </CharString>
                <CharString name="Gbreve.sc">
                    -10 callgsubr
61 125 78 callsubr
572 892 -106 callsubr
-179 -938 -92 callsubr
hintmask 01111100
14 callgsubr
                </CharString>
                <CharString name="Gcommaaccent">
                    31 callsubr
64 callsubr
hintmask 10111000
515 -118 -68 callsubr
hintmask 01111000
15 callgsubr
-226 -255 -103 callsubr
                </CharString>
                <CharString name="Gcommaaccent.sc">
                    -10 callgsubr
25 callsubr
hintmask 10111000
475 -100 -92 callsubr
hintmask 01111000
-29 callsubr
-214 -258 -103 callsubr
                </CharString>
                <CharString name="Gdotaccent">
                    31 callsubr
78.5 157.5 64 callsubr
hintmask 10111100
527 781 -70 callgsubr
155 -898 -68 callsubr
hintmask 01111100
53 callgsubr
                </CharString>
                <CharString name="Gdotaccent.sc">
                    -10 callgsubr
34 callgsubr
78 callsubr
482 688 -70 callgsubr
160 -787 -92 callsubr
hintmask 01111100
14 callgsubr
                </CharString>
                <CharString name="H">
                    102 21 -21 283 126 279 -20 hstem
37 680 vstem
420 hmoveto
164 hlineto
133 688 rlineto
-164 hlineto
-54 -279 rlineto
-218 hlineto
54 279 rlineto
-164 hlineto
-134 -688 rlineto
165 hlineto
55 283 rlineto
218 hlineto
endchar
                </CharString>
                <CharString name="H.sc">
                    -18 callgsubr
                </CharString>
                <CharString name="Hbar">
                    141 21 -21 255 125 96 109 -104 98 -98 207 hstemhm
59 726 hintmask 11010100
514 380 rmoveto
-218 hlineto
20 101 rlineto
218 hlineto
-93 -481 rmoveto
164 hlineto
hintmask 11100100
92 476 rlineto
67 hlineto
21 109 rlineto
-67 hlineto
hintmask 11001100
20 103 rlineto
-164 hlineto
hintmask 11010100
-21 -109 rlineto
-218 hlineto
hintmask 11001100
21 109 rlineto
-164 hlineto
hintmask 11100100
-20 -103 rlineto
-66 hlineto
-22 -109 rlineto
67 hlineto
-92 -476 rlineto
164 hlineto
49 255 rlineto
218 hlineto
endchar
                </CharString>
                <CharString name="Hbar.sc">
                    -53 callsubr
                </CharString>
                <CharString name="I">
                    7 callgsubr
hstem
16 564 vstem
337 127 -85 callsubr
                </CharString>
                <CharString name="I.sc">
                    -47 callgsubr
hstem
9 519 vstem
313 116 -105 callsubr
                </CharString>
                <CharString name="Iacute">
                    7 callgsubr
hstem
16 582 vstem
253 816 -107 callgsubr
84 -689 -85 callsubr
                </CharString>
                <CharString name="Iacute.sc">
                    -47 callgsubr
189 -20 hstem
9 551 vstem
215 724 -107 callgsubr
98 -608 -105 callsubr
                </CharString>
                <CharString name="Ibreve">
                    7 callgsubr
63 125 hstem
16 613 vstem
547 972 -106 callsubr
-292 -791 -85 callsubr
                </CharString>
                <CharString name="Ibreve.sc">
                    -47 callgsubr
62 125 hstem
9 582 vstem
509 880 -106 callsubr
-278 -710 -105 callsubr
                </CharString>
                <CharString name="Icircumflex">
                    7 callgsubr
hstem
16 583 vstem
497 743 -98 callgsubr
-63 -721 -85 callsubr
                </CharString>
                <CharString name="Icircumflex.sc">
                    -47 callgsubr
hstem
9 552 vstem
459 651 -98 callgsubr
-49 -640 -105 callsubr
                </CharString>
                <CharString name="Idieresis">
                    7 callgsubr
71 callsubr
16 605 hintmask 11011000
573 62 callsubr
hintmask 11101000
-90 callsubr
160 -640 -85 callsubr
                </CharString>
                <CharString name="Idieresis.sc">
                    -47 callgsubr
79 -76 callgsubr
9 574 hintmask 11011000
535 15 callsubr
hintmask 11101000
-90 callsubr
174 -559 -105 callsubr
                </CharString>
                <CharString name="Idotaccent">
                    7 callgsubr
79.5 2 callsubr
16 564 vstem
458 768 -70 callgsubr
46 -640 -85 callsubr
                </CharString>
                <CharString name="Idotaccent.sc">
                    -47 callgsubr
-8 callsubr
9 519 vstem
420 676 -70 callgsubr
60 -559 -105 callsubr
                </CharString>
                <CharString name="Igrave">
                    7 callgsubr
hstem
16 564 vstem
509 811 -99 callgsubr
-143 -617 -85 callsubr
                </CharString>
                <CharString name="Igrave.sc">
                    -47 callgsubr
hstem
9 519 vstem
472 719 -99 callgsubr
-130 -536 -105 callsubr
                </CharString>
                <CharString name="Imacron">
                    7 callgsubr
93 134 hstem
16 585 vstem
601 915 -72 callgsubr
-238 -654 -85 callsubr
                </CharString>
                <CharString name="Imacron.sc">
                    -47 callgsubr
92 134 hstem
9 554 vstem
563 823 -72 callgsubr
-224 -573 -105 callsubr
                </CharString>
                <CharString name="Iogonek">
                    -53 -239 108 131 127 435 126 hstem
60 136 vstem
336 -191 80 callsubr
31 35 37 93 31 vhcurveto
123 hlineto
31 127 rlineto
-141 hlineto
77 callsubr
134 hlineto
25 126 rlineto
-431 hlineto
-25 -126 rlineto
135 hlineto
-84 -435 rlineto
-134 hlineto
-25 -127 rlineto
146 79 callsubr
182 90 vhcurveto
endchar
                </CharString>
                <CharString name="Iogonek.sc">
                    -46 callgsubr
                </CharString>
                <CharString name="J">
                    -82 -11 145 428 126 hstem
8 530 vstem
379 54 rmoveto
33 34 13 23 44 228 69 349 rcurveline
-343 hlineto
-26 -126 rlineto
181 hlineto
-47 -236 -27 -141 -8 -19 -14 -15 rlinecurve
-18 -18 -38 -2 -167 3 -23 -145 rcurveline
225 -4 100 23 46 46 rrcurveto
endchar
                </CharString>
                <CharString name="J.sc">
                    -28 callsubr
                </CharString>
                <CharString name="K">
                    -22 callsubr
endchar
                </CharString>
                <CharString name="K.sc">
                    -71 callsubr
endchar
                </CharString>
                <CharString name="Kcommaaccent">
                    -22 callsubr
-106 -643 -103 callsubr
                </CharString>
                <CharString name="Kcommaaccent.sc">
                    -71 callsubr
-109 -595 -103 callsubr
                </CharString>
                <CharString name="L">
                    39 callsubr
450 36 callgsubr
endchar
                </CharString>
                <CharString name="L.sc">
                    -112 0 126 471 -20 hstem
30 418 vstem
424 hmoveto
-13 callgsubr
                </CharString>
                <CharString name="Lacute">
                    39 callsubr
569 vstem
261 816 -107 callgsubr
199 -816 rmoveto
-27 callgsubr
endchar
                </CharString>
                <CharString name="Lacute.sc">
                    -26 callsubr
                </CharString>
                <CharString name="Lcaron">
                    39 callsubr
571 vstem
451 760 -48 callsubr
-148 -765 rmoveto
-27 callgsubr
endchar
                </CharString>
                <CharString name="Lcaron.sc">
                    -26 callgsubr
                </CharString>
                <CharString name="Lcommaaccent">
                    39 callsubr
450 36 callgsubr
63 -293 -103 callsubr
                </CharString>
                <CharString name="Lcommaaccent.sc">
                    -112 0 126 471 -20 hstem
30 418 vstem
424 hmoveto
-67 callgsubr
49 -293 -103 callsubr
                </CharString>
                <CharString name="Ldot">
                    -71 0 137 137 166 248 -20 hstem
37 515 36 callgsubr
482 274 rmoveto
33 166 rlineto
-146 hlineto
-33 -166 rlineto
endchar
                </CharString>
                <CharString name="Ldot.sc">
                    -15 callsubr
                </CharString>
                <CharString name="Lslash">
                    -68 0 137 551 -20 hstem
30.5 61.5 vstem
463 hmoveto
27 137 rlineto
-259 hlineto
41 213 150 69 -3 111 -123 -57 42 215 rlineto
-164 hlineto
-58 -298 -87 -40 3 -110 60 28 -52 -268 rlineto
endchar
                </CharString>
                <CharString name="Lslash.sc">
                    -23 callgsubr
                </CharString>
                <CharString name="M">
                    215 21 -21 469 219 5 -20 hstemhm
37 794 hintmask 10110000
374 693 rmoveto
-204 -9 -133 -684 rlineto
148 hlineto
80 470 rlineto
8 hlineto
52 -418 rlineto
95 hlineto
hintmask 11010000
215 417 rlineto
8 hlineto
-101 -469 rlineto
156 hlineto
133 688 rlineto
-205 hlineto
-201 -393 rlineto
-4 hlineto
endchar
                </CharString>
                <CharString name="M.sc">
                    -31 callgsubr
                </CharString>
                <CharString name="N">
                    9 callgsubr
425 hmoveto
-61 callsubr
endchar
                </CharString>
                <CharString name="N.sc">
                    -17 callgsubr
endchar
                </CharString>
                <CharString name="NUL">
                    -628 endchar
                </CharString>
                <CharString name="Nacute">
                    9 callgsubr
338 818 -107 callgsubr
87 -818 rmoveto
-61 callsubr
endchar
                </CharString>
                <CharString name="Nacute.sc">
                    -37 callgsubr
287 726 -107 callgsubr
100 -726 rmoveto
-85 callgsubr
endchar
                </CharString>
                <CharString name="Ncaron">
                    9 callgsubr
470 742 -100 callgsubr
-31 -742 rmoveto
-61 callsubr
endchar
                </CharString>
                <CharString name="Ncaron.sc">
                    -37 callgsubr
419 650 -100 callgsubr
-18 -650 rmoveto
-85 callgsubr
endchar
                </CharString>
                <CharString name="Ncommaaccent">
                    9 callgsubr
425 hmoveto
-61 callsubr
-103 -744 -103 callsubr
                </CharString>
                <CharString name="Ncommaaccent.sc">
                    -36 callsubr
                </CharString>
                <CharString name="Ntilde">
                    106 45 callgsubr
23 -20 88 48 callsubr
37 685 hintmask 10110100
573 880 rmoveto
hintmask 10101100
-80 callgsubr
hintmask 10110100
-80 callsubr
-148 -880 rmoveto
163 hlineto
hintmask 11010100
134 688 rlineto
-149 hlineto
-80 -426 rlineto
-8 hlineto
hintmask 10110100
-139 429 -176 -6 -133 -685 rlineto
149 hlineto
84 451 rlineto
9 hlineto
endchar
                </CharString>
                <CharString name="Ntilde.sc">
                    -57 callgsubr
                </CharString>
                <CharString name="O">
                    -19 callgsubr
436 704 -99 callsubr
                </CharString>
                <CharString name="O.sc">
                    -63 callgsubr
386 610 -107 callsubr
                </CharString>
                <CharString name="OE">
                    301 -34 callgsubr
hstem
58 160 vstem
218 299 rmoveto
148 98 104 170 3 vhcurveto
-80 -419 rlineto
-135 4 -53 58 102 vvcurveto
614 -164 rmoveto
-268 hlineto
30 155 rlineto
217 hlineto
22 110 rlineto
-218 hlineto
30 154 rlineto
261 hlineto
26 134 rlineto
-340 hlineto
-367 -167 -180 -223 -198 141 -87 239 hvcurveto
356 hlineto
endchar
                </CharString>
                <CharString name="OE.sc">
                    -46 callsubr
                </CharString>
                <CharString name="Oacute">
                    -19 callgsubr
325 830 -107 callgsubr
111 -126 -99 callsubr
                </CharString>
                <CharString name="Oacute.sc">
                    -63 callgsubr
282 736 -107 callgsubr
104 -126 -107 callsubr
                </CharString>
                <CharString name="Obreve">
                    92 -16 140 440 140 61 125 hstem
59 165 297 165 vstem
620 986 -106 callsubr
-266 -228 -99 callsubr
                </CharString>
                <CharString name="Obreve.sc">
                    34 -14 129 366 129 61 125 hstem
46 161 254 161 vstem
576 892 -106 callsubr
-272 -228 -107 callsubr
                </CharString>
                <CharString name="Ocircumflex">
                    -19 callgsubr
569 757 -98 callgsubr
-36 -158 -99 callsubr
                </CharString>
                <CharString name="Ocircumflex.sc">
                    -63 callgsubr
525 663 -98 callgsubr
-42 -158 -107 callsubr
                </CharString>
                <CharString name="Odieresis">
                    92 -16 140 440 140 78 -76 callgsubr
59 165 297 165 hintmask 11011100
646 784 -83 callsubr
hintmask 11101100
-90 callsubr
186 -77 -99 callsubr
                </CharString>
                <CharString name="Odieresis.sc">
                    34 -14 129 366 129 78 -76 callgsubr
46 161 254 161 hintmask 11011100
602 690 -83 callsubr
hintmask 11101100
-90 callsubr
180 -77 -107 callsubr
                </CharString>
                <CharString name="Ograve">
                    -19 callgsubr
582 825 -99 callgsubr
-117 -54 -99 callsubr
                </CharString>
                <CharString name="Ograve.sc">
                    -63 callgsubr
538 731 -99 callgsubr
-123 -54 -107 callsubr
                </CharString>
                <CharString name="Ohungarumlaut">
                    -19 callgsubr
315 765 -90 callgsubr
-43 -113 -99 callsubr
                </CharString>
                <CharString name="Ohungarumlaut.sc">
                    -63 callgsubr
272 671 -90 callgsubr
-50 -113 -107 callsubr
                </CharString>
                <CharString name="Omacron">
                    92 -16 140 440 140 91 134 hstem
59 165 297 165 vstem
673 929 -72 callgsubr
-211 -91 -99 callsubr
                </CharString>
                <CharString name="Omacron.sc">
                    34 -14 129 366 129 91 134 hstem
46 161 254 161 vstem
629 835 -72 callgsubr
-217 -91 -107 callsubr
                </CharString>
                <CharString name="Omega">
                    84 0 136 422 146 hstem
114 136 251 154 vstem
276 7 rmoveto
-18 89 -8 104 72 vvcurveto
197 61 89 87 61 42 -41 -82 -88 -52 -149 -101 -191 vhcurveto
3 -7 rlineto
253 hlineto
26 136 rlineto
-106 hlineto
81 116 50 124 99 vvcurveto
138 -92 91 -147 -170 -132 -122 -215 -74 16 -83 24 -74 vhcurveto
-119 hlineto
-27 -136 rlineto
264 hlineto
endchar
                </CharString>
                <CharString name="Oslash">
                    49 callsubr
218 282 -56 callsubr
                </CharString>
                <CharString name="Oslash.sc">
                    -20 callgsubr
204 245 -93 callgsubr
                </CharString>
                <CharString name="Oslashacute">
                    49 callsubr
325 830 -107 callgsubr
-107 -548 -56 callsubr
                </CharString>
                <CharString name="Oslashacute.sc">
                    -20 callgsubr
274 738 -107 callgsubr
-70 -493 -93 callgsubr
                </CharString>
                <CharString name="Otilde">
                    92 -16 140 440 140 67 48 callsubr
59 165 297 165 hintmask 11101100
561 892 rmoveto
hintmask 11011100
-80 callgsubr
hintmask 11101100
-80 callsubr
-125 -188 -99 callsubr
                </CharString>
                <CharString name="Otilde.sc">
                    34 -14 129 366 129 67 48 callsubr
46 161 254 161 hintmask 11101100
517 798 rmoveto
hintmask 11011100
-80 callgsubr
hintmask 11101100
-80 callsubr
-131 -188 -107 callsubr
                </CharString>
                <CharString name="P">
                    9 21 -21 696 -20 hstem
472 157 vstem
198 hmoveto
36 184 72 callgsubr
144 -131 96 -329 -48 vhcurveto
-132 -684 rlineto
435 465 rmoveto
-84 -72 -71 -139 16 vhcurveto
46 237 rlineto
106 13 59 -42 -69 vvcurveto
endchar
                </CharString>
                <CharString name="P.sc">
                    -25 callgsubr
                </CharString>
                <CharString name="Q">
                    70 566 138 hstem
71 162 271 167 vstem
525 -175 rmoveto
52 139 -225 78 rlineto
185 87 134 149 174 vvcurveto
140 -84 112 -167 -262 -167 -287 -273 119 vhcurveto
138 55 rlineto
243 -48 72 124 114 hhcurveto
73 45 -49 -81 -141 -130 -142 -198 -64 hvcurveto
-36 -115 rlineto
endchar
                </CharString>
                <CharString name="Q.sc">
                    -35 callsubr
                </CharString>
                <CharString name="R">
                    2 callgsubr
hintmask 10011000
421 -11 -68 callgsubr
endchar
                </CharString>
                <CharString name="R.sc">
                    -30 callgsubr
endchar
                </CharString>
                <CharString name="R_p">
                    440 -174 -21 181 121 -96 -21 31 -21 443 136 -11 -20 23 124 -116 -20 hstemhm
413 148 344 141 hintmask 1100001011000000
29 callsubr
hintmask 1001001011000000
23 callgsubr
hintmask 1100100011000000
538 -206 rmoveto
-15 -25 5 9 -29 hvcurveto
51 262 rlineto
34 35 36 26 27 hhcurveto
29 22 -28 -62 -108 -60 -138 -71 hvcurveto
-129 -291 rmoveto
hintmask 1010001011000000
34 174 rlineto
hintmask 1100000111000000
-3 16 15 -1 14 hhcurveto
195 127 205 201 126 -63 61 -63 -48 -55 -39 -52 -49 hvcurveto
hintmask 1100010011000000
12 80 -139 -9 -20 -164 -47 -230 -68 -360 rlinecurve
endchar
                </CharString>
                <CharString name="Racute">
                    2 callgsubr
hintmask 00111000
285 824 -107 callgsubr
hintmask 10011000
136 -835 -68 callgsubr
endchar
                </CharString>
                <CharString name="Racute.sc">
                    -49 callsubr
hintmask 00111000
253 731 -107 callgsubr
hintmask 10011000
128 -741 -94 callsubr
endchar
                </CharString>
                <CharString name="Rcaron">
                    2 callgsubr
hintmask 00111000
417 748 -100 callgsubr
hintmask 10011000
18 -759 -68 callgsubr
endchar
                </CharString>
                <CharString name="Rcaron.sc">
                    -49 callsubr
hintmask 00111000
385 655 -100 callgsubr
hintmask 10011000
10 -665 -94 callsubr
endchar
                </CharString>
                <CharString name="Rcommaaccent">
                    2 callgsubr
hintmask 10011000
421 -11 -68 callgsubr
-130 -617 -103 callsubr
                </CharString>
                <CharString name="Rcommaaccent.sc">
                    -50 callgsubr
                </CharString>
                <CharString name="S">
                    -9 callsubr
564 495 -73 callsubr
endchar
                </CharString>
                <CharString name="S.sc">
                    -36 callgsubr
endchar
                </CharString>
                <CharString name="Sacute">
                    -9 callsubr
265 828 -107 callgsubr
299 -333 -73 callsubr
endchar
                </CharString>
                <CharString name="Sacute.sc">
                    -59 callgsubr
218 735 -107 callgsubr
302 -310 -98 callsubr
endchar
                </CharString>
                <CharString name="Scaron">
                    -9 callsubr
397 752 -100 callgsubr
181 -257 -73 callsubr
endchar
                </CharString>
                <CharString name="Scaron.sc">
                    -59 callgsubr
350 659 -100 callgsubr
184 -234 -98 callsubr
endchar
                </CharString>
                <CharString name="Scedilla">
                    -54 -86 215 -137 137 -111 -21 35 -21 555 135 hstemhm
105 160 -30 126 -24 168 hintmask 10001010
235 -208 rmoveto
126 2 rlineto
hintmask 00101010
6 102 -24 67 -39 34 rrcurveto
hintmask 00101101
140 25 61 81 79 149 -240 75 94 vvcurveto
36 29 30 42 46 29 -30 -70 17 vhcurveto
136 29 rlineto
133 -21 -55 73 -124 hhcurveto
-149 -110 -105 -114 hvcurveto
hintmask 01001101
-160 232 -64 -83 vvcurveto
-45 -70 -27 -211 60 vhcurveto
hintmask 00011101
-32 -152 rlineto
hintmask 01001101
44 -9 41 -6 37 -4 rrcurveto
hintmask 10001010
-34 -29 -30 -50 -28 -72 74 -25 rcurveline
-29 callgsubr
                </CharString>
                <CharString name="Scedilla.sc">
                    -64 callgsubr
                </CharString>
                <CharString name="Scommaaccent">
                    -9 callsubr
564 495 -73 callsubr
-347 -770 -103 callsubr
                </CharString>
                <CharString name="Scommaaccent.sc">
                    -54 callgsubr
                </CharString>
                <CharString name="T">
                    39 callgsubr
437 551 -4 callgsubr
endchar
                </CharString>
                <CharString name="T.sc">
                    -59 callsubr
endchar
                </CharString>
                <CharString name="Tcaron">
                    39 callgsubr
397 740 -100 callgsubr
54 -189 -4 callgsubr
endchar
                </CharString>
                <CharString name="Tcaron.sc">
                    -23 callsubr
                </CharString>
                <CharString name="Tcommaaccent">
                    39 callgsubr
437 551 -4 callgsubr
-227 -293 -103 callsubr
                </CharString>
                <CharString name="Tcommaaccent.sc">
                    -59 callsubr
-225 -293 -103 callsubr
                </CharString>
                <CharString name="Thorn">
                    12 21 -21 604 -20 104 -20 hstem
456 157 vstem
200 hmoveto
18 92 72 callgsubr
117 -87 86 -209 1 vhcurveto
16 84 rlineto
-161 hlineto
-133 -688 rlineto
417 373 rmoveto
-84 -72 -71 -139 15 vhcurveto
47 242 rlineto
105 11 59 -44 -69 vvcurveto
endchar
                </CharString>
                <CharString name="Thorn.sc">
                    -33 callsubr
                </CharString>
                <CharString name="U">
                    3 callsubr
249 288 -97 callgsubr
                </CharString>
                <CharString name="U.sc">
                    -39 callsubr
22 callgsubr
231 248 -106 callgsubr
                </CharString>
                <CharString name="Uacute">
                    3 callsubr
318 816 -107 callgsubr
-69 -528 -97 callgsubr
                </CharString>
                <CharString name="Uacute.sc">
                    -39 callsubr
209 -20 22 callgsubr
277 724 -107 callgsubr
-46 -476 -106 callgsubr
                </CharString>
                <CharString name="Ubreve">
                    21 callgsubr
83 125 hstem
82 161 vstem
613 972 -106 callsubr
-446 -630 -97 callgsubr
                </CharString>
                <CharString name="Ubreve.sc">
                    -39 callsubr
82 125 22 callgsubr
572 880 -106 callsubr
-423 -578 -106 callgsubr
                </CharString>
                <CharString name="Ucircumflex">
                    3 callsubr
562 743 -98 callgsubr
-216 -560 -97 callgsubr
                </CharString>
                <CharString name="Ucircumflex.sc">
                    -39 callsubr
22 callgsubr
521 651 -98 callgsubr
-193 -508 -106 callgsubr
                </CharString>
                <CharString name="Udieresis">
                    87 -14 137 565 -6 callgsubr
82 161 hintmask 11011000
638 62 callsubr
hintmask 11101000
-90 callsubr
7 -479 -97 callgsubr
                </CharString>
                <CharString name="Udieresis.sc">
                    -39 callsubr
99 -76 callgsubr
68 158 hintmask 11011000
598 15 callsubr
hintmask 11101000
-90 callsubr
29 -427 -106 callgsubr
                </CharString>
                <CharString name="Ugrave">
                    3 callsubr
575 811 -99 callgsubr
-297 -456 -97 callgsubr
                </CharString>
                <CharString name="Ugrave.sc">
                    -39 callsubr
22 callgsubr
534 719 -99 callgsubr
-274 -404 -106 callgsubr
                </CharString>
                <CharString name="Uhungarumlaut">
                    3 callsubr
308 751 -90 callgsubr
-223 -515 -97 callgsubr
                </CharString>
                <CharString name="Uhungarumlaut.sc">
                    -39 callsubr
22 callgsubr
267 659 -90 callgsubr
-200 -463 -106 callgsubr
                </CharString>
                <CharString name="Umacron">
                    21 callgsubr
113 134 hstem
82 161 vstem
666 915 -72 callgsubr
-391 -493 -97 callgsubr
                </CharString>
                <CharString name="Umacron.sc">
                    -39 callsubr
112 134 22 callgsubr
625 823 -72 callgsubr
-368 -441 -106 callgsubr
                </CharString>
                <CharString name="Uogonek">
                    87 -239 107 -38 -21 200 -21 700 -20 hstemhm
81 161 -82 136 hintmask 10110100
436 4 callsubr
13 30 vvcurveto
44 59 22 63 33 vhcurveto
39 19 41 22 33 32 47 47 30 60 17 83 83 427 rcurveline
-163 hlineto
-84 -435 rlineto
hintmask 01111000
-89 -17 -45 -41 -68 hhcurveto
-61 -47 40 125 26 hvcurveto
78 400 rlineto
-163 hlineto
-72 -376 -41 -213 80 -95 137 -16 rlinecurve
hintmask 10110100
-79 -48 -29 -44 -44 vvcurveto
-82 94 -51 182 90 vhcurveto
endchar
                </CharString>
                <CharString name="Uogonek.sc">
                    -54 callsubr
                </CharString>
                <CharString name="Uring">
                    21 callgsubr
73 250 hstem
82 161 vstem
482 991 -75 callsubr
-233 -703 -97 callgsubr
                </CharString>
                <CharString name="Uring.sc">
                    -39 callsubr
72 250 22 callgsubr
441 899 -75 callsubr
-210 -651 -106 callgsubr
                </CharString>
                <CharString name="V">
                    10 0 157 531 -20 25 -20 hstemhm
96 164 hintmask 10110000
375 hmoveto
hintmask 11010000
114 229 107 231 100 228 rrcurveto
-164 hlineto
-72 -175 -79 -181 -81 -175 rrcurveto
-13 hlineto
hintmask 10110000
-14 176 -8 185 -5 175 -164 -10 rcurveline
9 -228 19 -226 26 -229 rrcurveto
endchar
                </CharString>
                <CharString name="V.sc">
                    -30 callsubr
                </CharString>
                <CharString name="W">
                    21 callsubr
433 hmoveto
-81 callgsubr
                </CharString>
                <CharString name="W.sc">
                    -1 callsubr
399 hmoveto
-101 callgsubr
                </CharString>
                <CharString name="Wacute">
                    21 callsubr
354 816 -107 callgsubr
79 -816 rmoveto
-81 callgsubr
                </CharString>
                <CharString name="Wacute.sc">
                    103 21 -21 597 -20 209 -20 hstem
72 661 vstem
309 724 -107 callgsubr
90 -724 rmoveto
-101 callgsubr
                </CharString>
                <CharString name="Wcircumflex">
                    21 callsubr
598 743 -98 callgsubr
-68 -848 rmoveto
-81 callgsubr
                </CharString>
                <CharString name="Wcircumflex.sc">
                    -1 callsubr
552 651 -98 callgsubr
-56 -756 rmoveto
-101 callgsubr
                </CharString>
                <CharString name="Wdieresis">
                    148 21 -21 688 -6 callgsubr
77 718 hintmask 11011000
675 62 callsubr
hintmask 11101000
-90 callsubr
154 -767 rmoveto
-81 callgsubr
                </CharString>
                <CharString name="Wdieresis.sc">
                    103 21 -21 597 -20 99 -76 callgsubr
72 661 hintmask 11011000
629 15 callsubr
hintmask 11101000
-90 callsubr
166 -675 rmoveto
-101 callgsubr
                </CharString>
                <CharString name="Wgrave">
                    21 callsubr
611 811 -99 callgsubr
-149 -744 rmoveto
-81 callgsubr
                </CharString>
                <CharString name="Wgrave.sc">
                    -1 callsubr
565 719 -99 callgsubr
-137 -652 rmoveto
-101 callgsubr
                </CharString>
                <CharString name="X">
                    29 17 -21 25 -21 25 -21 681 7 -4 78 callgsubr
-25 738 hintmask 10000110
405 -4 rmoveto
hintmask 00101010
174 8 -142 333 276 351 rlineto
-178 hlineto
-165 -234 rlineto
hintmask 00100110
-91 238 rlineto
hintmask 01010010
-173 -7 142 -337 -273 -348 rlineto
176 hlineto
163 230 rlineto
endchar
                </CharString>
                <CharString name="X.sc">
                    -32 callsubr
                </CharString>
                <CharString name="Y">
                    1 callsubr
352 hmoveto
-55 callgsubr
                </CharString>
                <CharString name="Y.sc">
                    -49 callgsubr
330 hmoveto
-82 callgsubr
                </CharString>
                <CharString name="Yacute">
                    1 callsubr
295 820 -107 callgsubr
57 -820 rmoveto
-55 callgsubr
                </CharString>
                <CharString name="Yacute.sc">
                    -49 callgsubr
254 728 -107 callgsubr
76 -728 rmoveto
-82 callgsubr
                </CharString>
                <CharString name="Ycircumflex">
                    1 callsubr
538 747 -98 callgsubr
-89 -852 rmoveto
-55 callgsubr
                </CharString>
                <CharString name="Ycircumflex.sc">
                    -49 callgsubr
498 655 -98 callgsubr
-71 -760 rmoveto
-82 callgsubr
                </CharString>
                <CharString name="Ydieresis">
                    21 21 -21 685 7 -4 -20 24 -6 callgsubr
97 613 hintmask 10010110
615 774 -83 callsubr
hintmask 10101010
-90 callsubr
133 -771 rmoveto
44 222 314 466 rlineto
-169 hlineto
-192 -309 rlineto
hintmask 10011010
-86 313 rlineto
hintmask 11001010
-166 -7 138 -448 -46 -237 rlineto
endchar
                </CharString>
                <CharString name="Ydieresis.sc">
                    -48 callgsubr
                </CharString>
                <CharString name="Ygrave">
                    1 callsubr
551 815 -99 callgsubr
-170 -748 rmoveto
-55 callgsubr
                </CharString>
                <CharString name="Ygrave.sc">
                    -49 callgsubr
510 723 -99 callgsubr
-151 -656 rmoveto
-82 callgsubr
                </CharString>
                <CharString name="Z">
                    11 callsubr
hstem
11 604 vstem
491 hmoveto
-43 callsubr
                </CharString>
                <CharString name="Z.sc">
                    5 callsubr
hstem
5 554 vstem
452 hmoveto
-75 callgsubr
                </CharString>
                <CharString name="Zacute">
                    11 callsubr
hstem
11 604 vstem
266 816 -107 callgsubr
225 -816 rmoveto
-43 callsubr
                </CharString>
                <CharString name="Zacute.sc">
                    5 callsubr
189 -20 hstem
5 559 vstem
219 724 -107 callgsubr
233 -724 rmoveto
-75 callgsubr
                </CharString>
                <CharString name="Zcaron">
                    11 callsubr
hstem
11 620 vstem
399 740 -100 callgsubr
106 -740 rmoveto
-43 callsubr
                </CharString>
                <CharString name="Zcaron.sc">
                    5 callsubr
hstem
5 578 vstem
351 648 -100 callgsubr
115 -648 rmoveto
-75 callgsubr
                </CharString>
                <CharString name="Zdotaccent">
                    11 callsubr
79.5 2 callsubr
11 604 vstem
471 768 -70 callgsubr
187 -767 rmoveto
-43 callsubr
                </CharString>
                <CharString name="Zdotaccent.sc">
                    5 callsubr
-8 callsubr
5 554 vstem
423 676 -70 callgsubr
196 -675 rmoveto
-75 callgsubr
                </CharString>
                <CharString name="a">
                    -58 callgsubr
0 callgsubr
hintmask 10011000
243 133 -84 callsubr
hintmask 01011100
-84 callgsubr
hintmask 00111100
-119 53 -57 68 59 73 46 59 64 vhcurveto
hintmask 01011100
-7 -111 68 -33 197 107 rrcurveto
endchar
                </CharString>
                <CharString name="a.sc">
                    -82 callsubr
hstemhm
-19 572 hintmask 10011100
391 -5 -102 callgsubr
                </CharString>
                <CharString name="aacute">
                    -58 callgsubr
0 callgsubr
hintmask 01011000
265 702 -107 callgsubr
hintmask 10011000
-22 -569 -84 callsubr
hintmask 01011100
-84 callgsubr
hintmask 00111100
-119 53 -57 68 59 73 46 59 64 vhcurveto
hintmask 01011100
-7 -111 68 -33 197 107 rrcurveto
endchar
                </CharString>
                <CharString name="aacute.sc">
                    -82 callsubr
189 -20 hstemhm
-19 627 hintmask 00111110
263 724 -107 callgsubr
hintmask 10011110
128 -729 -102 callsubr
                </CharString>
                <CharString name="abreve">
                    -58 callgsubr
62 125 0 callgsubr
hintmask 01011100
559 858 -106 callsubr
hintmask 10011100
-398 -671 -93 callsubr
                </CharString>
                <CharString name="abreve.sc">
                    -82 callsubr
62 125 hstemhm
-19 659 hintmask 00111110
558 880 -106 callsubr
hintmask 10011110
-249 -831 -102 callsubr
                </CharString>
                <CharString name="acircumflex">
                    -58 callgsubr
135 -20 0 callgsubr
hintmask 01011100
508 629 -98 callgsubr
hintmask 10011100
-168 -601 -93 callsubr
                </CharString>
                <CharString name="acircumflex.sc">
                    -82 callsubr
hstemhm
-19 628 hintmask 00111100
507 651 -98 callgsubr
hintmask 10011100
-19 -761 -102 callgsubr
                </CharString>
                <CharString name="acute">
                    -63 623 254 hstem
146 345 vstem
146 691 -107 callgsubr
endchar
                </CharString>
                <CharString name="acute.cap">
                    -63 623 254 hstem
146 345 vstem
146 691 -107 callgsubr
endchar
                </CharString>
                <CharString name="adieresis">
                    -58 callgsubr
79 -76 callgsubr
36 158 159 154 hintmask 01010110
585 656 -83 callsubr
hintmask 10011010
-90 callsubr
54 -520 -84 callsubr
hintmask 01011011
-84 callgsubr
hintmask 00111011
-119 53 -57 68 59 73 46 59 64 vhcurveto
hintmask 01011011
-7 -111 68 -33 197 107 rrcurveto
endchar
                </CharString>
                <CharString name="adieresis.sc">
                    -82 callsubr
79 -76 callgsubr
-19 650 hintmask 00111011
583 15 callsubr
hintmask 10011101
-90 callsubr
204 -680 -79 callsubr
                </CharString>
                <CharString name="ae">
                    22 callsubr
hintmask 10001110
658 453 -63 callsubr
                </CharString>
                <CharString name="ae.sc">
                    9 callsubr
hstemhm
-40 921 hintmask 10111000
452 474 rmoveto
9 hlineto
hintmask 11011000
-43 -226 rlineto
-123 hlineto
hintmask 10111000
-72 callsubr
hintmask 11011000
25 callgsubr
                </CharString>
                <CharString name="aeacute">
                    22 callsubr
hintmask 01010110
440 708 -107 callgsubr
hintmask 10001110
218 -255 -63 callsubr
                </CharString>
                <CharString name="aeacute.sc">
                    9 callsubr
189 -20 hstemhm
-40 921 hintmask 10111100
434 724 -107 callgsubr
18 -250 rmoveto
9 hlineto
hintmask 11011100
-43 -226 rlineto
-123 hlineto
hintmask 10111100
-72 callsubr
hintmask 11011100
25 callgsubr
                </CharString>
                <CharString name="agrave">
                    -58 callgsubr
122 -20 0 callgsubr
hintmask 01011100
521 697 -99 callgsubr
hintmask 10011100
-249 -497 -93 callsubr
                </CharString>
                <CharString name="agrave.sc">
                    -82 callsubr
hstemhm
-19 572 hintmask 00111100
520 719 -99 callgsubr
hintmask 10011100
-100 -657 -102 callgsubr
                </CharString>
                <CharString name="amacron">
                    -58 callgsubr
92 134 0 callgsubr
hintmask 01011100
613 801 -72 callgsubr
hintmask 10011100
-344 -534 -93 callsubr
                </CharString>
                <CharString name="amacron.sc">
                    -82 callsubr
92 134 hstemhm
-19 630 hintmask 00111110
611 823 -72 callgsubr
hintmask 10011110
-194 -694 -102 callsubr
                </CharString>
                <CharString name="ampersand">
                    81 -10 137 581 -20 hstem
16 151 vstem
555 -23 rmoveto
123 90 -49 49 -43 46 -37 44 rlinecurve
45 51 46 62 48 72 -130 47 rcurveline
-29 -52 -28 -44 -28 -37 -31 46 -24 45 -17 42 rrcurveto
77 65 39 68 51 vvcurveto
55 -43 31 -60 -79 -93 -57 -131 -18 2 -18 4 -20 vhcurveto
-173 -114 -59 -107 -92 vvcurveto
-95 60 -66 110 84 85 35 75 89 vhcurveto
33 -41 38 -41 40 -41 rrcurveto
-322 150 rmoveto
-38 -28 18 43 44 34 57 82 65 hvcurveto
22 -50 31 -54 38 -56 rrcurveto
-48 -56 -48 -19 -37 hhcurveto
endchar
                </CharString>
                <CharString name="ampersand.sc">
                    33 -9 125 -114 -21 hstemhm
12 145 hintmask 01100000
504 -19 rmoveto
122 78 -46 42 -40 39 -34 38 rlinecurve
41 45 42 53 43 63 -124 43 rcurveline
-26 -45 -26 -37 -25 -32 -27 38 -22 36 -15 34 rrcurveto
71 57 35 57 45 vvcurveto
50 -42 29 -60 -74 -85 -49 -110 -17 2 -19 5 -20 vhcurveto
-154 -94 -53 -91 -80 vvcurveto
hintmask 10100000
-83 55 -60 105 76 77 29 63 80 vhcurveto
hintmask 01100000
30 -34 33 -34 36 -34 rrcurveto
hintmask 10100000
-290 135 rmoveto
-34 -23 16 36 36 30 46 68 51 hvcurveto
20 -42 28 -44 33 -46 rrcurveto
-38 -48 -42 -15 -32 hhcurveto
endchar
                </CharString>
                <CharString name="aogonek">
                    12 -240 109 -39 -21 176 148 -127 -21 47 -21 40.5 69.5 324 130 62 callgsubr
72 136 -48 153 hintmask 1000111110000000
542 -191 80 callsubr
34 47 53 154 62 vhcurveto
3 1 2 1 3 1 rrcurveto
hintmask 0101011101000000
-13 78 -93 -18 -3 3 8 41 rlinecurve
75 390 rlineto
18 -59 -64 10 -54 hhcurveto
-233 -139 -209 -205 -119 53 -57 68 59 73 46 59 65 hvcurveto
hintmask 0100111101000000
-2 -40 11 -27 29 -12 rrcurveto
hintmask 1000111110000000
-93 -57 -33 -54 -50 vvcurveto
-81 97 -52 179 92 vhcurveto
hintmask 0110001110000000
-299 324 -84 callsubr
endchar
                </CharString>
                <CharString name="aogonek.sc">
                    -64 callsubr
                </CharString>
                <CharString name="approxequal">
                    -4 164 340 hstem
53 540 vstem
221 259 rmoveto
42 55 -83 86 hhcurveto
74 44 58 109 44 hvcurveto
-27 11 20 29 17 38 17 47 rlinecurve
-95 36 rlineto
-52 -26 -20 -33 -21 -40 -50 83 -85 hhcurveto
-77 -56 -65 -111 -44 hvcurveto
28 -12 -20 -30 -18 -38 -16 -45 rlinecurve
92 -37 rlineto
58 30 23 37 23 hhcurveto
endchar
                </CharString>
                <CharString name="aring">
                    -58 callgsubr
52 250 0 callgsubr
hintmask 01011100
429 877 -75 callsubr
hintmask 10011100
-186 -744 -93 callsubr
                </CharString>
                <CharString name="aring.sc">
                    -82 callsubr
52 250 hstemhm
-19 576 hintmask 00111110
427 899 -75 callsubr
hintmask 10011110
-36 -904 -102 callsubr
                </CharString>
                <CharString name="aringacute">
                    -58 callgsubr
0 callgsubr
hintmask 01011000
319 980 -107 callgsubr
110 -103 -75 callsubr
hintmask 10011000
-186 -744 -84 callsubr
hintmask 01011100
-84 callgsubr
hintmask 00111100
-119 53 -57 68 59 73 46 59 64 vhcurveto
hintmask 01011100
-7 -111 68 -33 197 107 rrcurveto
endchar
                </CharString>
                <CharString name="aringacute.sc">
                    -82 callsubr
hstemhm
-19 681 hintmask 00111100
317 1002 -107 callgsubr
110 -103 -75 callsubr
hintmask 10011100
-36 -904 -102 callgsubr
                </CharString>
                <CharString name="arrow.1_E">
                    76 268 130 hstem
59 632 vstem
322 18 rmoveto
369 317 -369 317 -88 -111 198 -145 -61 2 rlineto
-312 -130 312 hlineto
59 3 -196 -142 rlineto
endchar
                </CharString>
                <CharString name="arrow.1_N">
                    76 21 -21 707 -20 hstem
296 135 vstem
431 355 rmoveto
-4 81 138 -198 106 84 -306 385 -310 -385 106 -84 139 199 -4 -82 rlineto
-355 135 vlineto
endchar
                </CharString>
                <CharString name="arrow.1_S">
                    76 2 -21 707 -20 hstem
295 135 vstem
360 -19 rmoveto
311 385 -106 84 -139 -199 4 82 rlineto
355 -135 -355 vlineto
4 -80 -138 197 -106 -84 rlineto
endchar
                </CharString>
                <CharString name="arrow.1_W">
                    76 268 130 hstem
34 633 vstem
492 124 rmoveto
-199 147 62 -3 rlineto
312 130 -312 hlineto
-60 -2 197 142 -88 110 -370 -317 370 -318 rlineto
endchar
                </CharString>
                <CharString name="asciicircum">
                    -4 567 -20 hstem
51 534 vstem
461 152 rmoveto
124 79 -224 336 -27 -3 -283 -330 96 -82 176 213 rlineto
endchar
                </CharString>
                <CharString name="asciitilde">
                    -4 204 145 -21 145 hstemhm
31 590 hintmask 10100000
422 204 rmoveto
77 59 82 143 63 hvcurveto
-92 42 rlineto
-75 -38 -29 -47 -22 hhcurveto
hintmask 01100000
-40 -74 124 -88 hhcurveto
-78 -69 -88 -137 -60 hvcurveto
93 -42 rlineto
75 36 29 47 24 hhcurveto
hintmask 10100000
40 78 -124 91 hhcurveto
endchar
                </CharString>
                <CharString name="asterisk">
                    29 562 -20 155 -20 hstem
105 540 vstem
412 220 rmoveto
95 38 -28 164 166 38 -7 102 -164 21 15 170 -101 27 -74 -153 -151 70 -58 -86 122 -120 -111 -122 64 -81 148 78 rlineto
endchar
                </CharString>
                <CharString name="asterisk.alt">
                    39 597 -20 26 -20 202 -20 hstemhm
90 565 hintmask 01110000
435 585 rmoveto
71 164 -134 36 -12 -182 rlineto
hintmask 10010000
-30 -6 rmoveto
-106 143 -98 -99 151 -101 rlineto
201 -54 rmoveto
177 24 -36 133 -165 -80 rlineto
-187 -50 rmoveto
-177 -23 36 -134 165 81 rlineto
124 -35 rmoveto
108 -142 98 98 -152 102 rlineto
-159 -45 rmoveto
-71 -165 135 -36 11 183 rlineto
endchar
                </CharString>
                <CharString name="at">
                    208 -173 121 111 129 227 118 111 119 hstemhm
63 135 111 146 133 136 -66 142 hintmask 11111101
621 -148 rmoveto
16 120 rlineto
-323 -72 -116 92 205 vvcurveto
246 159 201 185 86 34 -37 -77 -4 vhcurveto
2 -18 -17 1 -17 hhcurveto
-191 -106 -158 -161 -105 51 -50 65 hvcurveto
hintmask 11111110
52 61 38 49 54 hvcurveto
-8 -68 140 -4 8 76 10 65 11 57 rlinecurve
37 188 rlineto
hintmask 11111101
197 38 -71 106 -182 hhcurveto
-288 -224 -276 -307 -260 160 -157 398 89 hvcurveto
-123 336 rmoveto
-26 -17 20 44 74 40 89 50 20 35 -6 -10 36 hvcurveto
-30 -156 rlineto
-31 -37 -44 -24 -27 hhcurveto
endchar
                </CharString>
                <CharString name="atilde">
                    -58 callgsubr
68 121 -69 -20 56 121 0 callgsubr
hintmask 0101100100000000
500 764 rmoveto
hintmask 0101011100000000
-80 callgsubr
hintmask 0101100100000000
-80 callsubr
hintmask 1001011100000000
-257 -631 -84 callsubr
hintmask 0101011110000000
-84 callgsubr
hintmask 0011011110000000
-119 53 -57 68 59 73 46 59 64 vhcurveto
hintmask 0101011110000000
-7 -111 68 -33 197 107 rrcurveto
endchar
                </CharString>
                <CharString name="atilde.sc">
                    -82 callsubr
68 48 callsubr
-19 664 hintmask 00111101
498 786 rmoveto
hintmask 00111011
-80 callgsubr
hintmask 00111101
-80 callsubr
hintmask 10011101
-107 -791 -79 callsubr
                </CharString>
                <CharString name="b">
                    1 -14 129 321 143 0 -20 224 -20 hstemhm
436 155 hintmask 10111000
219 -14 rmoveto
236 136 205 200 128 -60 60 -71 -55 -64 -38 -52 -59 hvcurveto
57 294 -155 -11 -146 -751 rlineto
-19 51 75 -16 55 hhcurveto
88 129 rmoveto
-21 -35 6 12 -38 hvcurveto
hintmask 11011000
46 240 69 callgsubr
hintmask 10111000
-102 -59 -132 -70 vhcurveto
endchar
                </CharString>
                <CharString name="b.sc">
                    -57 callsubr
                </CharString>
                <CharString name="backslash">
                    -106 -219 1036 hstem
79 368 vstem
215 817 rmoveto
-136 -30 231 -1006 137 31 rlineto
endchar
                </CharString>
                <CharString name="backslash.tab">
                    -4 -215 1034 hstem
144 379 vstem
144 786 rmoveto
240 -1001 139 30 -240 1004 rlineto
endchar
                </CharString>
                <CharString name="bar">
                    -276 -205 1006 hstem
9 341 vstem
205 801 rmoveto
-196 -1006 rlineto
146 hlineto
195 1006 rlineto
endchar
                </CharString>
                <CharString name="bar.tab">
                    -182 -205 1006 hstem
57 341 vstem
253 801 rmoveto
-196 -1006 rlineto
145 hlineto
196 1006 rlineto
endchar
                </CharString>
                <CharString name="braceleft">
                    -155 -238 1058 hstemhm
42 58 callgsubr
303 -238 -51 callsubr
                </CharString>
                <CharString name="braceleft.cap">
                    -155 -185 1058 hstemhm
52 58 callgsubr
313 -185 -51 callsubr
                </CharString>
                <CharString name="braceright">
                    -155 703 -20 hstemhm
130 57 callsubr
-25 -237 -47 callsubr
                </CharString>
                <CharString name="braceright.cap">
                    -155 -185 1058 hstemhm
140 57 callsubr
-15 -185 -47 callsubr
                </CharString>
                <CharString name="bracketleft">
                    -165 -200 55 callsubr
-4 522 vstem
-4 -200 23 callsubr
                </CharString>
                <CharString name="bracketleft.cap">
                    -165 -150 55 callsubr
6 522 vstem
6 -150 23 callsubr
                </CharString>
                <CharString name="bracketright">
                    -165 -199 55 callsubr
-51 522 vstem
471 783 24 callsubr
                </CharString>
                <CharString name="bracketright.cap">
                    -165 -150 55 callsubr
-42 522 vstem
480 832 24 callsubr
                </CharString>
                <CharString name="breve">
                    -63 626 125 hstem
112 432 vstem
462 847 -106 callsubr
endchar
                </CharString>
                <CharString name="breve.cap">
                    -63 626 125 hstem
112 432 vstem
462 847 -106 callsubr
endchar
                </CharString>
                <CharString name="bullet">
                    -69 156 349 hstem
122 335 vstem
457 353 rmoveto
89 -62 63 -93 -92 -88 -76 -119 -88 67 -66 86 93 89 78 119 vhcurveto
endchar
                </CharString>
                <CharString name="bullet.alt">
                    -69 182 302 hstem
107 364 vstem
410 182 rmoveto
61 302 rlineto
-304 hlineto
-60 -302 rlineto
endchar
                </CharString>
                <CharString name="c">
                    18 callgsubr
530 358 -66 callsubr
                </CharString>
                <CharString name="c.sc">
                    -32 callgsubr
389 610 -94 callgsubr
                </CharString>
                <CharString name="cacute">
                    18 callgsubr
257 705 -107 callgsubr
273 -347 -66 callsubr
                </CharString>
                <CharString name="cacute.sc">
                    -32 callgsubr
275 736 -107 callgsubr
114 -126 -94 callgsubr
                </CharString>
                <CharString name="caron">
                    -63 615 246 hstem
128 410 vstem
306 615 -100 callgsubr
endchar
                </CharString>
                <CharString name="caron.alt">
                    -64 613 281 hstem
258 196 vstem
297 889 -48 callsubr
endchar
                </CharString>
                <CharString name="caron.alt.cap">
                    -64 613 281 hstem
258 196 vstem
297 889 -48 callsubr
endchar
                </CharString>
                <CharString name="caron.cap">
                    -63 615 246 hstem
128 410 vstem
306 615 -100 callgsubr
endchar
                </CharString>
                <CharString name="ccaron">
                    18 callgsubr
390 629 -100 callgsubr
154 -271 -66 callsubr
                </CharString>
                <CharString name="ccaron.sc">
                    -32 callgsubr
408 660 -100 callgsubr
-5 -50 -94 callgsubr
                </CharString>
                <CharString name="ccedilla">
                    -67 14 -21 27 -21 54 67 327 132 hstemhm
42 156 44 126 21 144 hintmask 01111100
368 -208 rmoveto
hintmask 10111100
6 100 -23 66 -38 35 51 9 59 19 68 32 -11 81 rcurveline
-236 -36 -46 32 108 vvcurveto
107 63 102 77 vhcurveto
hintmask 01111110
42 12 -30 -61 -3 hvcurveto
141 2 rlineto
160 16 -52 61 -114 hhcurveto
-180 -158 -176 -200 -94 38 -80 84 -30 hvcurveto
-38 -27 -34 -53 -31 -80 74 -25 rcurveline
hintmask 01111100
-29 callgsubr
                </CharString>
                <CharString name="ccedilla.sc">
                    -61 callgsubr
                </CharString>
                <CharString name="cdotaccent">
                    -67 -13 133 327 132 34 callgsubr
hstem
42 156 191 144 vstem
462 657 -70 callgsubr
235 -298 -66 callsubr
                </CharString>
                <CharString name="cdotaccent.sc">
                    -26 -12 135 353 134 34 callgsubr
hstem
45 159 215 145 vstem
480 688 -70 callgsubr
76 -77 -94 callgsubr
                </CharString>
                <CharString name="cedilla">
                    -15 callgsubr
                </CharString>
                <CharString name="cedilla.cap">
                    -15 callgsubr
                </CharString>
                <CharString name="cent">
                    -4 403 148 137 -20 hstem
68 150 vstem
218 296 rmoveto
47 22 38 88 15 vhcurveto
-42 -193 rlineto
-49 23 -19 31 39 vvcurveto
266 -273 rmoveto
25 136 -47 3 -40 5 -34 6 rlinecurve
49 230 rlineto
32 36 -2 -3 41 hvcurveto
28 149 rlineto
3 -34 -32 1 -31 hhcurveto
31 137 rlineto
-137 hlineto
-29 -150 rlineto
-203 -40 -71 -128 -104 vvcurveto
-90 58 -69 111 -41 vhcurveto
-37 -158 rlineto
137 hlineto
26 126 37 -5 40 -4 44 -2 rlinecurve
endchar
                </CharString>
                <CharString name="check.1">
                    -7 7 -21 713 -20 hstem
54 611 vstem
665 699 rmoveto
-154 62 -101 -164 -86 -203 -67 -209 rlinecurve
-7 1 -53 250 -143 -42 102 -406 137 -2 106 271 122 224 144 218 rlinecurve
endchar
                </CharString>
                <CharString name="check.2">
                    -7 5 -21 28 -21 40 -21 591 -20 116 -20 hstemhm
6 647 hintmask 01011100
297 -9 rmoveto
hintmask 00111100
154 19 -98 281 300 406 -143 68 -208 -334 -50 170 -150 -39 92 -264 rlineto
hintmask 10011100
-188 -272 98 -42 139 189 rlineto
endchar
                </CharString>
                <CharString name="circumflex">
                    -3 callsubr
                </CharString>
                <CharString name="circumflex.cap">
                    -3 callsubr
                </CharString>
                <CharString name="colon">
                    -243 0 76 callsubr
44 302 vstem
311 17 callsubr
                </CharString>
                <CharString name="colon.alt">
                    -243 54 76 callsubr
51 302 vstem
317 435 63 callsubr
-36 -182 rlineto
116 -381 rmoveto
35 19 callsubr
endchar
                </CharString>
                <CharString name="colon.tab">
                    -182 0 76 callsubr
65 302 vstem
332 17 callsubr
                </CharString>
                <CharString name="colonmonetary">
                    -4 526 141 hstem
56 141 vstem
362 184 rmoveto
-22 5 -20 5 -18 6 82 302 rcurveline
20 5 22 4 24 4 rrcurveto
-253 -195 rmoveto
55 19 53 69 38 vhcurveto
-60 -223 rlineto
-19 19 -9 25 33 vvcurveto
84 -402 rmoveto
105 hlineto
29 113 18 -3 19 -3 20 -2 rlinecurve
58 132 -30 5 -28 4 -26 4 rlinecurve
95 355 rlineto
2 25 28 1 29 hhcurveto
16 141 -19 -1 -18 -1 -18 -1 rlinecurve
29 105 rlineto
-104 hlineto
-30 -116 -20 -3 -19 -3 -19 -4 rlinecurve
34 126 rlineto
-104 hlineto
-41 -156 rlineto
-200 -72 -54 -129 -118 vvcurveto
-90 41 -60 77 -43 vhcurveto
-52 -183 rlineto
105 hlineto
39 146 16 -5 18 -5 18 -4 rlinecurve
endchar
                </CharString>
                <CharString name="comma">
                    -237 -157 352 hstem
84 189 vstem
8 26 callsubr
                </CharString>
                <CharString name="comma.tab">
                    -182 -157 352 hstem
111 189 vstem
35 26 callsubr
                </CharString>
                <CharString name="commaaccent">
                    -63 -321 251 hstem
141 222 vstem
141 -293 -103 callsubr
                </CharString>
                <CharString name="commaaccent.cap">
                    -63 -321 251 hstem
141 222 vstem
141 -293 -103 callsubr
                </CharString>
                <CharString name="commaaccent.rot">
                    -63 634 251 hstem
195 221 vstem
416 857 41 callgsubr
endchar
                </CharString>
                <CharString name="copyright">
                    288 -42 95 97 99 191 97 99 95 hstem
78 105 118 111 108 103 129 104 vstem
509 731 rmoveto
-231 -200 -169 -262 -221 153 -121 202 231 192 161 259 225 -150 128 -197 hvcurveto
-8 -95 rmoveto
142 109 -96 -172 -194 -141 -121 -169 -150 -109 87 171 195 148 130 170 hvcurveto
1 -99 rmoveto
-112 -89 -111 -120 -133 101 -58 180 57 hvcurveto
11 98 rlineto
-129 -42 -52 20 77 vvcurveto
54 28 61 44 29 5 -32 -33 2 vhcurveto
103 2 rlineto
94 5 -37 66 -89 hhcurveto
endchar
                </CharString>
                <CharString name="d">
                    35 callgsubr
hintmask 10111000
251 131 -39 callgsubr
                </CharString>
                <CharString name="d.sc">
                    -9 callgsubr
599 358 -70 callsubr
                </CharString>
                <CharString name="dagger">
                    -102 478 119 hstem
98 447 vstem
287 155 rmoveto
90 330 136 -14 32 126 -136 14 35 153 -144 14 -33 -152 -137 15 -32 -127 142 -15 -80 -369 19 -13 rlineto
endchar
                </CharString>
                <CharString name="daggerdbl">
                    -99 597 -20 hstem
45 500 vstem
274 98 rmoveto
46 174 140 -15 30 118 -139 15 28 103 135 -14 31 118 -137 15 36 152 -144 13 -32 -150 -138 15 -31 -119 143 -15 -23 -104 -144 15 -30 -119 149 -15 -46 -212 19 -14 rlineto
endchar
                </CharString>
                <CharString name="dcaron">
                    35 callgsubr
hintmask 01111000
708 889 -48 callsubr
hintmask 10111000
-614 -763 -39 callgsubr
                </CharString>
                <CharString name="dcaron.sc">
                    -9 callgsubr
380 655 -100 callgsubr
233 -297 -70 callsubr
                </CharString>
                <CharString name="dcroat">
                    18 -14 145 -143 133 323 128 51 97 63 -20 hstemhm
39 155 166 153 hintmask 10111100
251 131 rmoveto
-34 -23 31 56 102 57 124 70 21 36 -6 -13 38 hvcurveto
-45 -230 rlineto
-36 -42 -46 -28 -32 hhcurveto
hintmask 01111110
370 -78 rmoveto
-12 78 -99 -17 -2 2 8 41 rlinecurve
91 465 rlineto
64 hlineto
19 98 rlineto
-64 hlineto
12 63 -154 -10 -10 -53 rlineto
-132 hlineto
-19 -97 rlineto
132 hlineto
-10 -53 rlineto
1 -15 -14 1 -13 hhcurveto
-230 -134 -198 -201 -126 58 -61 71 59 70 45 58 63 hvcurveto
-6 -110 67 -33 200 107 rrcurveto
endchar
                </CharString>
                <CharString name="dcroat.sc">
                    11 -86 callgsubr
                </CharString>
                <CharString name="degree">
                    -4 317 116 216 115 hstem
137 123 193 123 vstem
377 764 rmoveto
-126 -114 -97 -146 -125 85 -79 114 126 114 97 146 125 -85 79 -114 hvcurveto
-25 -331 rmoveto
-54 -38 42 59 68 44 47 58 53 38 -43 -58 -69 -44 -46 -57 hvcurveto
endchar
                </CharString>
                <CharString name="dieresis">
                    -63 643 -76 callgsubr
100 444 hintmask 01100000
496 645 -83 callsubr
hintmask 10100000
-90 callsubr
endchar
                </CharString>
                <CharString name="dieresis.cap">
                    -63 643 -76 callgsubr
100 444 hintmask 01100000
496 645 -83 callsubr
hintmask 10100000
-90 callsubr
endchar
                </CharString>
                <CharString name="divide">
                    -4 62 145 63 133 62 146 hstem
60 527 vstem
428 465 rmoveto
31 146 rlineto
-159 hlineto
-30 -146 rlineto
317 -62 rmoveto
-500 hlineto
-27 -133 rlineto
501 hlineto
-213 -208 rmoveto
31 145 61 callsubr
-31 -145 rlineto
endchar
                </CharString>
                <CharString name="dollar">
                    -7 -76 839 hstem
107 144 143 145 vstem
251 497 rmoveto
20 27 12 57 -2 vhcurveto
-28 -93 rlineto
-33 24 -23 22 17 vvcurveto
143 -303 rmoveto
-21 -27 -12 -56 vhcurveto
28 97 rlineto
33 -24 22 -22 -18 vvcurveto
-130 -270 rmoveto
30 114 rlineto
181 8 64 69 69 vvcurveto
74 -81 67 -77 55 vhcurveto
43 138 39 -6 45 -10 52 -13 rlinecurve
28 138 -36 7 -34 5 -32 4 rlinecurve
40 119 -140 1 -32 -113 rlineto
-178 -6 -69 -71 -71 vvcurveto
-73 80 -63 75 -54 vhcurveto
-43 -144 -43 6 -52 10 -61 13 rlinecurve
-29 -138 46 -8 42 -5 39 -4 rlinecurve
-36 -118 rlineto
endchar
                </CharString>
                <CharString name="dotaccent">
                    -63 642.5 2 callsubr
201 215 vstem
368 643 -70 callgsubr
endchar
                </CharString>
                <CharString name="dotaccent.cap">
                    -63 642.5 2 callsubr
201 215 vstem
368 643 -70 callgsubr
endchar
                </CharString>
                <CharString name="dotlessi">
                    6 callsubr
56 callsubr
404 60 -86 callsubr
                </CharString>
                <CharString name="dotlessi.sc">
                    -47 callgsubr
hstem
9 519 vstem
313 116 -105 callsubr
                </CharString>
                <CharString name="e">
                    1 callgsubr
-4 callsubr
512 66 -100 callsubr
                </CharString>
                <CharString name="e.sc">
                    -72 72 callsubr
30 514 vstem
460 122 -105 callgsubr
                </CharString>
                <CharString name="eacute">
                    1 callgsubr
-4 callsubr
265 706 -107 callgsubr
247 -640 -100 callsubr
                </CharString>
                <CharString name="eacute.sc">
                    -67 callsubr
189 -20 hstem
30 544 vstem
229 724 -107 callgsubr
231 -602 -105 callgsubr
                </CharString>
                <CharString name="ebreve">
                    1 callgsubr
61 125 -4 callsubr
560 862 -106 callsubr
-130 -742 -100 callsubr
                </CharString>
                <CharString name="ebreve.sc">
                    -67 callsubr
62 125 hstem
30 575 vstem
523 880 -106 callsubr
-145 -704 -105 callgsubr
                </CharString>
                <CharString name="ecaron">
                    1 callgsubr
-4 callsubr
398 630 -100 callgsubr
128 -564 -100 callsubr
                </CharString>
                <CharString name="ecaron.sc">
                    -72 72 callsubr
30 563 vstem
361 648 -100 callgsubr
113 -526 -105 callgsubr
                </CharString>
                <CharString name="ecircumflex">
                    1 callgsubr
-4 callsubr
509 633 -98 callgsubr
100 -672 -100 callsubr
                </CharString>
                <CharString name="ecircumflex.sc">
                    -72 72 callsubr
30 544 vstem
472 651 -98 callgsubr
85 -634 -105 callgsubr
                </CharString>
                <CharString name="edieresis">
                    1 callgsubr
78 -76 callgsubr
42 150 205 146 hintmask 11011100
585 660 -83 callsubr
hintmask 11101100
-90 callsubr
323 -591 -100 callsubr
                </CharString>
                <CharString name="edieresis.sc">
                    -67 callsubr
79 -76 callgsubr
30 567 hintmask 11101100
549 15 callsubr
hintmask 11110100
-90 callsubr
307 -553 -105 callgsubr
                </CharString>
                <CharString name="edotaccent">
                    1 callgsubr
34 callgsubr
-4 callsubr
470 658 -70 callgsubr
209 -591 -100 callsubr
                </CharString>
                <CharString name="edotaccent.sc">
                    -67 callsubr
-8 callsubr
30 514 vstem
433 676 -70 callgsubr
194 -553 -105 callgsubr
                </CharString>
                <CharString name="egrave">
                    1 callgsubr
121 -20 -4 callsubr
522 701 -99 callgsubr
19 -568 -100 callsubr
                </CharString>
                <CharString name="egrave.sc">
                    -72 72 callsubr
30 514 vstem
485 719 -99 callgsubr
4 -530 -105 callgsubr
                </CharString>
                <CharString name="eight">
                    -4 -14 119 466 130 -4 -20 hstemhm
41 148 -59 145 113 140 hintmask 11001100
528 182 rmoveto
68 -52 61 -57 53 vhcurveto
51 27 61 32 75 37 -48 91 rcurveline
-86 -43 -72 -38 -61 -34 rrcurveto
-37 33 -27 31 27 vvcurveto
40 43 23 171 -39 vhcurveto
hintmask 10101100
43 146 rlineto
hintmask 11001100
-255 25 -147 -98 -119 vvcurveto
-54 36 -48 46 -44 vhcurveto
hintmask 11010100
-138 -91 -33 -59 -67 vvcurveto
-91 81 -65 137 vhcurveto
hintmask 11001100
157 112 87 109 hvcurveto
-236 -77 rmoveto
hintmask 11010100
-55 -48 25 45 27 14 29 89 58 hvcurveto
52 -43 44 -38 -37 vvcurveto
hintmask 11001100
-38 -40 -28 -56 vhcurveto
endchar
                </CharString>
                <CharString name="eight.den">
                    -11 89 277 97 hstemhm
-18 -33 callgsubr
hintmask 11011000
323 118 -104 callgsubr
-25 callsubr
hintmask 11101000
-65 callgsubr
hintmask 11011000
-24 callgsubr
hintmask 11101000
-166 -40 -92 callgsubr
                </CharString>
                <CharString name="eight.den_afrc">
                    -89 -1 callgsubr
hstemhm
28 53 callsubr
369 -115 -104 callgsubr
hintmask 11010110
-25 callsubr
hintmask 10111010
-65 callgsubr
hintmask 10110110
-24 callgsubr
hintmask 10111010
-166 -40 -92 callgsubr
                </CharString>
                <CharString name="eight.den_afrc2">
                    331 -1 callgsubr
hstemhm
238 53 callsubr
579 -115 -104 callgsubr
hintmask 11010110
-25 callsubr
hintmask 10111010
-65 callgsubr
hintmask 10110110
-24 callgsubr
hintmask 10111010
-166 -40 -92 callgsubr
                </CharString>
                <CharString name="eight.inf">
                    -144 -178 89 277 97 hstemhm
13 -33 callgsubr
hintmask 11011000
354 -49 -104 callgsubr
-25 callsubr
hintmask 11101000
-65 callgsubr
hintmask 11011000
-24 callgsubr
hintmask 11101000
-166 -40 -92 callgsubr
                </CharString>
                <CharString name="eight.num">
                    239 89 267 -20 30 97 -6 -20 hstemhm
86 -33 callgsubr
hintmask 10100110
427 368 -34 callsubr
hintmask 11100110
32 14 38 17 45 19 -31 64 rcurveline
hintmask 10100110
-57 -24 -48 -21 -41 -19 rrcurveto
-23 19 -17 16 16 vvcurveto
24 31 12 110 -33 vhcurveto
hintmask 10010110
3 6 34 96 4 9 rrcurveto
hintmask 10100110
-189 27 -102 -73 -78 vvcurveto
-25 callsubr
hintmask 10101010
-65 callgsubr
hintmask 10100110
-24 callgsubr
hintmask 10101010
-166 -40 -92 callgsubr
                </CharString>
                <CharString name="eight.num_afrc">
                    -89 66 callsubr
150 53 callsubr
491 590 -104 callgsubr
hintmask 11010110
-25 callsubr
hintmask 10111010
-65 callgsubr
hintmask 10110110
-24 callgsubr
hintmask 10111010
-166 -40 -92 callgsubr
                </CharString>
                <CharString name="eight.num_afrc2">
                    331 66 callsubr
359 53 callsubr
700 590 -104 callgsubr
hintmask 11010110
-25 callsubr
hintmask 10111010
-65 callgsubr
hintmask 10110110
-24 callgsubr
hintmask 10111010
-166 -40 -92 callgsubr
                </CharString>
                <CharString name="eight.small">
                    -11 89 277 97 hstemhm
10 -33 callgsubr
hintmask 11011000
351 118 -104 callgsubr
-25 callsubr
hintmask 11101000
-65 callgsubr
hintmask 11011000
-24 callgsubr
hintmask 11101000
-166 -40 -92 callgsubr
                </CharString>
                <CharString name="eight.sup">
                    -144 350 89 153 -20 134 -20 30 97 hstemhm
100 -33 callgsubr
hintmask 11100110
441 479 -34 callsubr
32 14 38 17 45 19 -31 64 rcurveline
hintmask 11110110
-57 -24 -48 -21 -41 -19 rrcurveto
-23 19 -17 16 16 vvcurveto
24 31 12 110 -33 vhcurveto
3 6 34 96 4 9 rrcurveto
-189 27 -102 -73 -78 vvcurveto
-25 callsubr
hintmask 11101010
-65 callgsubr
hintmask 11100110
-24 callgsubr
hintmask 11101010
-166 -40 -92 callgsubr
                </CharString>
                <CharString name="ellipsis">
                    468 0 188 hstem
44 224 134 225 134 224 cntrmask 01110000
951 hmoveto
34 33 callsubr
-168 hmoveto
43 callgsubr
-167 hmoveto
33 33 callsubr
endchar
                </CharString>
                <CharString name="emacron">
                    1 callgsubr
91 134 -4 callsubr
613 805 -72 callgsubr
-75 -605 -100 callsubr
                </CharString>
                <CharString name="emacron.sc">
                    -67 callsubr
92 134 hstem
30 546 vstem
576 823 -72 callgsubr
-90 -567 -105 callgsubr
                </CharString>
                <CharString name="emdash">
                    175 276 121 hstem
63 690 vstem
753 397 rmoveto
-668 hlineto
-22 -121 rlineto
667 hlineto
endchar
                </CharString>
                <CharString name="emspace">
                    372 endchar
                </CharString>
                <CharString name="endash">
                    -83 276 121 hstem
57 443 vstem
500 397 rmoveto
-420 hlineto
-23 -121 rlineto
420 hlineto
endchar
                </CharString>
                <CharString name="endash.tab">
                    -4 276 121 hstem
68 511 vstem
579 397 rmoveto
-489 hlineto
-22 -121 rlineto
489 hlineto
endchar
                </CharString>
                <CharString name="enspace">
                    -128 endchar
                </CharString>
                <CharString name="eogonek">
                    -58 -239 108 -39 -21 178 134 332 127 hstemhm
42 151 -17 136 85 147 hintmask 10110110
452 -191 rmoveto
-12 74 rlineto
-93 -27 -35 14 31 vvcurveto
36 48 46 153 83 vhcurveto
-12 80 rlineto
hintmask 01111010
-236 -45 -65 14 -7 91 rrcurveto
233 19 118 80 127 vvcurveto
90 -61 58 -100 -187 -154 -195 -189 -115 65 -94 134 vhcurveto
hintmask 10110110
11 11 1 1 12 hvcurveto
-70 -48 -29 -46 -45 vvcurveto
-81 16 callsubr
hintmask 01111010
-113 644 46 callgsubr
endchar
                </CharString>
                <CharString name="eogonek.sc">
                    -50 callsubr
                </CharString>
                <CharString name="equal">
                    -4 152 132 111 133 hstem
51 547 vstem
598 528 rmoveto
-473 hlineto
-26 -133 rlineto
473 hlineto
-21 -111 rmoveto
-473 hlineto
-27 -132 rlineto
474 hlineto
endchar
                </CharString>
                <CharString name="eth">
                    -12 -16 129 277 126 184 -20 hstem
43 155 222 151 vstem
259 -16 rmoveto
178 134 153 216 99 -30 90 -52 82 hvcurveto
88 25 -22 85 -123 -34 -29 33 -32 32 -36 30 rlinecurve
-119 -72 25 -22 22 -22 19 -21 rlinecurve
-107 -30 24 -86 145 41 15 -23 13 -22 11 -23 rlinecurve
1 -9 -8 0 -8 hhcurveto
-173 -142 -149 -167 -130 83 -86 133 hvcurveto
28 129 rmoveto
-55 -34 43 71 84 49 79 73 22 37 -7 -14 40 hvcurveto
1 -11 0 -11 -11 vvcurveto
-123 -50 -100 -83 vhcurveto
endchar
                </CharString>
                <CharString name="eth.sc">
                    15 -86 callgsubr
                </CharString>
                <CharString name="exclam">
                    -234 0 173 hstem
48 345 vstem
253 286 rmoveto
140 467 rlineto
-202 hlineto
-44 -467 rlineto
86 -286 rmoveto
34 173 rlineto
-185 hlineto
-34 -173 rlineto
endchar
                </CharString>
                <CharString name="exclamdown">
                    -234 515 173 hstem
25 345 vstem
185 688 rmoveto
-33 -173 rlineto
184 hlineto
34 173 rlineto
-205 -285 rmoveto
-140 -468 rlineto
202 hlineto
44 468 rlineto
endchar
                </CharString>
                <CharString name="f">
                    -39 -198 121 325.5 121.5 249 52 callgsubr
33 rmoveto
73 -28 75 -74 70 vhcurveto
175 -5 23 125 -285 -2 rlineto
142 45 71 108 61 hhcurveto
56 -1 -66 -72 -40 hvcurveto
67 -22 rlineto
166 80 callgsubr
-158 -185 -231 -81 hvcurveto
-64 38 callgsubr
134 vhcurveto
-156 -110 rmoveto
-46 -33 40 117 44 4 45 6 44 hvcurveto
88 -66 37 -76 -69 vvcurveto
-44 -18 -35 -38 vhcurveto
endchar
                </CharString>
                <CharString name="f.lig">
                    -70 -198 121 322.5 122.5 251 52 callgsubr
30 rmoveto
74 -31 75 -72 69 vhcurveto
146 -5 22 125 rlineto
-254 hlineto
143 45 70 108 62 hhcurveto
56 -1 -66 -74 -40 hvcurveto
67 -22 rlineto
168 80 callgsubr
-159 -185 -231 -81 hvcurveto
-63 38 callgsubr
131 vhcurveto
-156 -107 rmoveto
-46 -33 40 117 43 4 44 6 44 hvcurveto
85 -65 40 -77 -67 vvcurveto
-44 -18 -35 -38 vhcurveto
endchar
                </CharString>
                <CharString name="f.sc">
                    -14 callsubr
                </CharString>
                <CharString name="figurespace">
                    -78 endchar
                </CharString>
                <CharString name="five">
                    -4 -4 143 -118 -21 553.5 134.5 hstemhm
397 148 hintmask 10110000
545 236 rmoveto
82 -62 76 -195 41 vhcurveto
27 119 251 -1 40 135 rlineto
-403 hlineto
-77 -351 rlineto
202 -31 69 -40 -50 vvcurveto
-50 -70 -46 -257 25 vhcurveto
hintmask 01110000
-19 -145 rlineto
hintmask 10110000
356 -29 138 138 127 vvcurveto
endchar
                </CharString>
                <CharString name="five.den">
                    -2 38 callsubr
213 116 vstem
329 150 rmoveto
-104 callsubr
-51 callgsubr
endchar
                </CharString>
                <CharString name="five.den_afrc">
                    -89 -235 38 callsubr
259 116 vstem
375 -83 rmoveto
-104 callsubr
-51 callgsubr
endchar
                </CharString>
                <CharString name="five.den_afrc2">
                    331 -235 38 callsubr
469 116 vstem
585 -83 rmoveto
-104 callsubr
-51 callgsubr
endchar
                </CharString>
                <CharString name="five.inf">
                    -144 -169 38 callsubr
244 116 vstem
360 -17 rmoveto
-104 callsubr
-51 callgsubr
endchar
                </CharString>
                <CharString name="five.num">
                    248 38 callsubr
317 116 vstem
433 400 rmoveto
-104 callsubr
-51 callgsubr
endchar
                </CharString>
                <CharString name="five.num_afrc">
                    -89 470 11 callgsubr
381 116 hintmask 10110000
35 callsubr
hintmask 01110000
-51 -233 rlineto
138 -17 46 -21 -26 vvcurveto
-28 -46 -22 -172 14 vhcurveto
hintmask 10110000
70 callgsubr
                </CharString>
                <CharString name="five.num_afrc2">
                    331 470 11 callgsubr
590 116 hintmask 10110000
706 -16 callgsubr
hintmask 01110000
-51 -233 rlineto
138 -17 46 -21 -26 vvcurveto
-28 -46 -22 -172 14 vhcurveto
hintmask 10110000
70 callgsubr
                </CharString>
                <CharString name="five.small">
                    -2 38 callsubr
241 116 vstem
357 150 rmoveto
-104 callsubr
-51 callgsubr
endchar
                </CharString>
                <CharString name="five.sup">
                    -144 359 103 104 -20 151.5 101.5 hstem
331 116 vstem
447 511 rmoveto
-104 callsubr
-51 callgsubr
endchar
                </CharString>
                <CharString name="fiveeighths">
                    492 -11 89 170 103 4 97 134.5 101.5 18 -20 hstemhm
317 116 241 -33 callgsubr
hintmask 1011010110000000
348 -24 rmoveto
hintmask 1010110110000000
-65 callsubr
744 85 -104 callgsubr
-25 callsubr
hintmask 1011011010000000
-65 callgsubr
hintmask 1010110110000000
-24 callgsubr
hintmask 1101011010000000
-582 282 rmoveto
-104 callsubr
-51 callgsubr
416 -322 -92 callgsubr
                </CharString>
                <CharString name="fiveeighths.afrc">
                    -89 -1 callgsubr
70 99 82 11 callgsubr
28 -33 callgsubr
12 116 hintmask 1011110101010000
35 callsubr
hintmask 1011101101010000
-51 -233 rlineto
138 -17 46 -21 -26 vvcurveto
-28 -46 -22 -172 14 vhcurveto
hintmask 1011110101010000
-13 -107 rlineto
-51 callgsubr
hintmask 1011101101110000
-447 -333 -62 callsubr
hintmask 1101101101010000
-25 callsubr
hintmask 1011101110010000
-65 callgsubr
hintmask 1011101101110000
-24 callgsubr
hintmask 1011101110110000
-166 -40 -92 callgsubr
                </CharString>
                <CharString name="fivesixths">
                    492 -11 71 callgsubr
-20 -41 callgsubr
18 -20 hstemhm
317 116 250 5 callgsubr
hintmask 11010111
353 -24 rmoveto
hintmask 11001111
-65 callsubr
567 -44 rmoveto
106 81 69 99 105 -107 40 -109 -65 hvcurveto
26 50 59 46 125 23 -23 98 rcurveline
-230 -53 -88 -129 -129 vvcurveto
-102 65 -52 95 vhcurveto
hintmask 10110111
-410 411 rmoveto
-104 callsubr
-51 callgsubr
428 -323 28 callgsubr
hvcurveto
hintmask 11010111
28 callsubr
vhcurveto
74 38 49 -25 -48 vvcurveto
hintmask 10110111
-33 -19 -31 -40 vhcurveto
endchar
                </CharString>
                <CharString name="fivesixths.afrc">
                    -89 -244 71 callgsubr
254 99 82 11 callgsubr
37 5 callgsubr
-3 116 hintmask 1111011010000000
35 callsubr
hintmask 1110111010000000
-51 -233 rlineto
138 -17 46 -21 -26 vvcurveto
-28 -46 -22 -172 14 vhcurveto
hintmask 1111011100000000
-13 -107 rlineto
hintmask 1111011010000000
-51 callgsubr
hintmask 1110111100000000
-447 -333 -60 callgsubr
128 -632 -101 callsubr
                </CharString>
                <CharString name="four">
                    -4 21 -21 121 133.5 433.5 -20 29 -20 hstemhm
36 545 hintmask 11011000
543 121 rmoveto
38 133 rlineto
-69 hlineto
41 212 -143 -11 -39 -201 -178 1 rlineto
hintmask 11101000
79 117 60 120 68 196 rrcurveto
hintmask 11011000
-164 9 -60 -199 -52 -127 -80 -144 rlinecurve
-8 -106 rlineto
309 hlineto
-24 -121 rlineto
141 hlineto
24 121 rlineto
endchar
                </CharString>
                <CharString name="four.den">
                    0 173 -99 99 hstemhm
-22 382 hintmask 01100000
333 -21 callgsubr
                </CharString>
                <CharString name="four.den_afrc">
                    -89 -159 99 hstem
24 382 vstem
379 -159 -87 callsubr
                </CharString>
                <CharString name="four.den_afrc2">
                    331 -159 99 hstem
234 382 vstem
589 -159 -87 callsubr
                </CharString>
                <CharString name="four.inf">
                    -144 -93 99 hstem
9 382 vstem
364 -93 -87 callsubr
                </CharString>
                <CharString name="four.num">
                    324 99 265 -20 26 -20 hstemhm
82 382 hintmask 10110000
437 324 rmoveto
-73 callgsubr
hintmask 11010000
48 71 37 75 41 119 rrcurveto
hintmask 10110000
29 callgsubr
endchar
                </CharString>
                <CharString name="four.num_afrc">
                    -89 546 99 hstem
146 382 -14 callgsubr
endchar
                </CharString>
                <CharString name="four.num_afrc2">
                    331 546 99 hstem
355 382 vstem
710 546 -87 callsubr
                </CharString>
                <CharString name="four.small">
                    0 173 -99 99 hstemhm
6 382 hintmask 01100000
361 -21 callgsubr
                </CharString>
                <CharString name="four.sup">
                    -144 435 99 hstem
96 382 vstem
451 435 -87 callsubr
                </CharString>
                <CharString name="fourfifths">
                    492 -2 103 223 99 -86.5 101.5 256 -20 32 -20 hstemhm
905 116 hintmask 10101100
355 -24 rmoveto
-65 callsubr
hintmask 11001100
159 291 rmoveto
-83 callgsubr
rrcurveto
hintmask 11010100
29 callgsubr
627 -174 rmoveto
hintmask 10101100
-104 callsubr
hintmask 11010100
34 callsubr
                </CharString>
                <CharString name="fourfifths.afrc">
                    -89 -235 -41 callgsubr
84 99 158 99 hstem
259 116 -14 callgsubr
-408 -257 -22 callgsubr
                </CharString>
                <CharString name="fourperemspace">
                    -378 endchar
                </CharString>
                <CharString name="fraction">
                    -345 706 -20 hstem
-147 596 vstem
-70 -24 rmoveto
-65 callsubr
endchar
                </CharString>
                <CharString name="fraction.afrc">
                    -89 289 99 hstem
50 462 vstem
50 289 -60 callgsubr
endchar
                </CharString>
                <CharString name="fraction.afrc2">
                    331 289 99 hstem
51 881 vstem
51 289 rmoveto
862 hlineto
19 99 rlineto
-862 hlineto
endchar
                </CharString>
                <CharString name="fraction.tab">
                    -345 706 -20 hstem
-147 596 vstem
-70 -24 rmoveto
-65 callsubr
endchar
                </CharString>
                <CharString name="g">
                    -6 -190 142 83 139 278 126 55 callgsubr
258 174 -91 callsubr
                </CharString>
                <CharString name="g.sc">
                    -10 callgsubr
25 callsubr
hintmask 10111000
475 -100 -92 callsubr
hintmask 01111000
14 callgsubr
                </CharString>
                <CharString name="gbreve">
                    54 callgsubr
64 125 55 callgsubr
569 863 -106 callsubr
-393 -635 -91 callsubr
                </CharString>
                <CharString name="gbreve.sc">
                    -10 callgsubr
61 125 78 callsubr
572 892 -106 callsubr
-179 -938 -92 callsubr
hintmask 01111100
14 callgsubr
                </CharString>
                <CharString name="gcommaaccent">
                    54 callgsubr
55 callgsubr
532 873 41 callgsubr
-274 -699 -91 callsubr
                </CharString>
                <CharString name="gcommaaccent.sc">
                    -10 callgsubr
25 callsubr
hintmask 10111000
475 -100 -92 callsubr
hintmask 01111000
-29 callsubr
-214 -258 -103 callsubr
                </CharString>
                <CharString name="gdotaccent">
                    54 callgsubr
80.5 157.5 55 callgsubr
480 659 -70 callgsubr
-55 -484 -91 callsubr
                </CharString>
                <CharString name="gdotaccent.sc">
                    -10 callgsubr
34 callgsubr
78 callsubr
482 688 -70 callgsubr
160 -787 -92 callsubr
hintmask 01111100
14 callgsubr
                </CharString>
                <CharString name="germandbls">
                    41 -11 141 -130 130 524 134 hstemhm
464 159 -157 152 hintmask 10101000
267 -11 rmoveto
263 -6 88 101 92 vvcurveto
75 -58 72 -83 68 vhcurveto
hintmask 01110000
88 81 58 78 87 vvcurveto
77 -57 74 -124 -156 -117 -102 -280 -54 vhcurveto
-80 -406 rlineto
154 hlineto
80 417 rlineto
200 39 41 37 54 hhcurveto
41 20 -25 -33 -62 -45 -60 -120 -118 hvcurveto
hintmask 10101000
118 -90 49 -63 -38 vvcurveto
-40 -51 1 -130 9 vhcurveto
endchar
                </CharString>
                <CharString name="germandbls.sc">
                    431 -11 128 -89 -21 477 124 hstemhm
91 158 53 165 144 158 53 165 hintmask 10111110
1040 425 -21 callsubr
-389 26 -21 callsubr
endchar
                </CharString>
                <CharString name="grave">
                    -63 686 -20 hstem
138 328 vstem
466 686 -99 callgsubr
endchar
                </CharString>
                <CharString name="grave.cap">
                    -63 686 -20 hstem
138 328 vstem
466 686 -99 callgsubr
endchar
                </CharString>
                <CharString name="greater">
                    -4 44 581 hstem
70 500 vstem
116 44 rmoveto
423 208 31 155 -364 218 -77 -132 278 -155 -2 -10 -335 -151 rlineto
endchar
                </CharString>
                <CharString name="greaterequal">
                    -4 0 131 hstem
22 546 vstem
213 653 rmoveto
-73 -123 256 -134 -1 -8 -307 -112 30 -125 426 164 24 134 rlineto
-47 -318 63 callgsubr
                </CharString>
                <CharString name="guillemotleft">
                    162 593 -20 hstem
42 741 vstem
230 -24 -11 callgsubr
                </CharString>
                <CharString name="guillemotleft.cap">
                    162 32 617 hstem
53 741 vstem
241 32 -11 callgsubr
                </CharString>
                <CharString name="guillemotright">
                    171 2 -21 615 -20 hstem
18 740 vstem
465 -22 -12 callsubr
                </CharString>
                <CharString name="guillemotright.cap">
                    171 32 618 hstem
29 740 vstem
476 32 -12 callsubr
                </CharString>
                <CharString name="guilsinglleft">
                    -182 -24 615 hstem
42 396 vstem
224 -24 rmoveto
123 96 -167 206 258 8 callsubr
                </CharString>
                <CharString name="guilsinglleft.cap">
                    -182 35 615 hstem
53 396 vstem
235 35 rmoveto
123 96 -167 206 258 8 callsubr
                </CharString>
                <CharString name="guilsinglright">
                    -179 592 -20 hstem
13 396 vstem
106 -23 30 callgsubr
                </CharString>
                <CharString name="guilsinglright.cap">
                    -179 34 615 hstem
24 396 vstem
117 34 30 callgsubr
                </CharString>
                <CharString name="h">
                    50 -12 131 -98 -21 430 149 0 -20 224 -20 hstemhm
377 164 -100 168 hintmask 10011100
645 53 rmoveto
-12 78 rlineto
-83 -18 -9 2 19 vvcurveto
hintmask 01011010
51 68 171 109 vvcurveto
62 -26 52 -86 -70 -75 -36 -69 -73 vhcurveto
60 309 -155 -11 -149 -772 rlineto
152 hlineto
hintmask 10101010
68 350 65 callsubr
hintmask 10011100
-73 -64 -156 -86 81 callgsubr
                </CharString>
                <CharString name="h.sc">
                    -18 callgsubr
                </CharString>
                <CharString name="hairspace">
                    -553 endchar
                </CharString>
                <CharString name="hbar">
                    50 -12 131 -98 -21 425 149 0 -20 69 97 -97 160 hstemhm
377 164 -101 168 hintmask 10010110
645 53 rmoveto
-12 78 rlineto
-83 -18 -9 2 19 vvcurveto
hintmask 10010101
50 67 169 107 vvcurveto
62 -26 52 -86 -70 -75 -36 -69 -73 vhcurveto
30 154 rlineto
131 hlineto
hintmask 10011001
19 97 rlineto
-131 hlineto
hintmask 10010101
12 63 -154 -10 rlineto
hintmask 01101001
-10 -53 rlineto
-65 hlineto
-19 -98 rlineto
65 hlineto
-121 -622 rlineto
152 hlineto
67 345 65 callsubr
hintmask 10010110
-72 -63 -154 -84 81 callgsubr
                </CharString>
                <CharString name="hbar.sc">
                    -53 callsubr
                </CharString>
                <CharString name="hcoslug">
                    66 -100 100 6 12 -11 11 -11 18 -18 25 -25 41 -37 15 -13 10 -3 14 -11 9 0 16 -9 15 -15 20 -19 34 -19 19 -15 15 7 8 -1 13 -7 12 6 10 -9 43 -42 11 hstemhm
50 82 13 10 -10 22 -5 12 6 9 -2 16 -1 16 -2 9 12 13 -3 14 -14 56 -41 12 -1 9 4 16 -8 14 5 13 -6 7 8 17 -12 14 8 7 -5 15 -13 8 hintmask 001000000000001000001010001000100000100000010000
644 700 rmoveto
-594 hlineto
hintmask 100000000000000000001010000000001000000001000000
-800 594 vlineto
-397 528 rmoveto
-23 15 -14 23 -22 vhcurveto
11 17 7 16 17 vvcurveto
23 -12 15 -17 -16 -11 -12 -17 vhcurveto
65 -86 rmoveto
16 -16 12 -15 13 -15 19 33 5 24 -23 23 -9 -10 -14 -11 -19 -13 rrcurveto
-51 -123 rmoveto
15 12 3 9 11 hvcurveto
-28 35 -28 30 -18 17 rrcurveto
-11 -11 -5 -14 -15 vvcurveto
-31 22 -23 30 vhcurveto
121 45 rmoveto
-29 25 17 -12 20 hhcurveto
21 12 12 17 10 hvcurveto
7 -2 rlineto
-58 -2 -35 -36 -43 hhcurveto
-30 -22 11 34 -33 hvcurveto
-31 -28 -34 -14 -42 hhcurveto
-60 -49 40 53 42 29 31 53 18 hvcurveto
-21 22 -10 18 29 vvcurveto
43 42 42 67 62 33 -39 -35 -13 -3 -11 -6 -10 vhcurveto
27 1 20 -11 2 -27 rrcurveto
24 16 19 14 25 hhcurveto
28 22 -21 -31 -31 -22 -23 -28 -18 -16 10 15 -9 hvcurveto
-15 -9 -16 -13 -15 -20 rrcurveto
hintmask 000000000000000000001000000000000001000000000000
-96 -140 rmoveto
-11 13 -7 vlineto
hintmask 000000000000000000100000000000000001000000000000
-13 -20 hlineto
-3 1 -2 3 2 2 2 5 1 vhcurveto
5 -2 rlineto
hintmask 100000000000000000100000000000000100000000000000
-2 -9 -4 -4 -8 -8 -4 5 0 hflex1
20 -7 7 7 9 vlineto
hintmask 000000000000001000000000010000000000000000000000
-100 -28 rmoveto
hintmask 000000000000000000100000010001000000000000000000
42 callsubr
hintmask 000000000000001000000000000001000000000000000000
-12 -9 -9 -12 vhcurveto
hintmask 000000000000001000000000010000000000000000000000
-12 -9 8 13 hvcurveto
hintmask 000000000000000000100010000100000000000000100000
29 hmoveto
42 callgsubr
43 callsubr
176 -1 rmoveto
0 8 -2 5 -5 -6 -2 -6 0 hflex1
0 -8 2 -5 6 5 2 5 0 hflex1
-160 -12 rmoveto
6 hlineto
hintmask 000000000000000000100000000001000000000000000000
25 -6 7 vlineto
hintmask 000000000000000000001000000000100000000000000000
17 -10 hlineto
hintmask 000000000000000000001000000000000100000000000000
7 3 4 4 7 hhcurveto
9 3 -6 -8 hvcurveto
hintmask 000000000000000000100000000000000100000000000000
-19 6 -7 vlineto
hintmask 100000000000000000100000000000100000000000000000
-22 7 4 18 hlineto
4 -2 3 -4 -4 -3 -4 -6 vhcurveto
-15 4 -7 vlineto
hintmask 000000000000001000000010000000000000000000000000
-22 hlineto
hintmask 000000000000000010000010000000000000000000000000
-94 7 rmoveto
7 hlineto
hintmask 000000000000000000010010000000000000000000000000
41 -7 7 vlineto
hintmask 000000000000000000001000000100000000000000000000
51 hlineto
hintmask 000000000000000000100000000100000000000000000000
-20 -8 vlineto
hintmask 000000000000000000010001000000000000000000000000
11 -2 -2 2 -7 hhcurveto
-12 -18 4 hlineto
5 0 1 7 1 hvcurveto
7 hlineto
hintmask 000000000000000010000000010000000000000000000000
-23 -7 vlineto
7 -1 0 1 -5 hhcurveto
-4 hlineto
hintmask 000000000000000010000001000000000000000000000000
-16 10 -7 vlineto
hintmask 000000000000001000000010000000000000000000000000
-30 hlineto
hintmask 000000000000000000100000000000000001000000000000
177 14 rmoveto
7 hlineto
hintmask 000000000000000000000100000000000000010000000000
-6 4 3 -3 5 hhcurveto
3 2 2 2 hvcurveto
hintmask 000000000000000000000100000000000001000000000000
8 -24 -5 16 vvcurveto
6 5 6 9 5 4 -2 -3 2 vhcurveto
2 5 rlineto
6 hlineto
hintmask 100000000000000001000000000000000000000100000000
-13 -7 vlineto
4 -3 -3 3 -4 hhcurveto
-3 -2 -2 -2 hvcurveto
-8 24 6 -16 vvcurveto
-7 -5 -6 -9 vhcurveto
hintmask 100000000000000000000000000000000000010000000000
-7 -3 3 2 -3 hvcurveto
-1 -4 rlineto
-7 hlineto
hintmask 000000000000000000000100000000000000000100000000
50 51 rmoveto
-6 7 hlineto
hintmask 000000000000000000001000000000000000000000100000
18 hlineto
hintmask 100000000000000000000100000000000000000000100000
-27 vlineto
6 2 5 3 6 hhcurveto
9 6 -8 -12 -9 -4 -12 -12 -7 -4 3 5 -3 hvcurveto
-4 -8 rlineto
-6 hlineto
53 -8 rmoveto
4 3 3 5 1 hvcurveto
-4 10 -12 23 0 vvcurveto
-5 7 hlineto
hintmask 000000000000000000001000000000000000000000000000
25 -7 -6 hlineto
hintmask 100000000000100000001000000000000000000000100000
9 -20 8 20 rlineto
-5 7 17 -7 -5 hlineto
-13 -31 rlineto
-10 -4 -5 -6 -9 hhcurveto
-7 -4 4 5 4 3 3 4 hvcurveto
hintmask 100000000000000000000100000000000000000000100000
7 1 -7 -3 -3 hvcurveto
hintmask 000000000010000000000000000000000000000000000000
59 -32 rmoveto
-7 -5 vlineto
hintmask 000000100000000000000000000000000000000000000000
-3 -6 -3 -4 -3 -4 rrcurveto
2 -3 2 -2 2 2 1 1 1 hflex1
5 -1 rlineto
75 callsubr
-7 -2 -3 -5 -8 hhcurveto
-5 0 -3 1 -4 5 -4 -4 -5 -2 -6 flex1
-12 -6 6 8 hvcurveto
hintmask 000010000000000000000000000000000000000000000000
8 6 5 7 2 vhcurveto
-4 4 -2 3 5 vvcurveto
7 7 7 10 9 5 -6 -6 vhcurveto
-6 -4 -3 -7 -3 vhcurveto
hintmask 000000100000000000000000000000000000000000000000
5 -5 3 -4 4 -4 2 2 3 4 1 3 rrcurveto
-6 7 hlineto
hintmask 100000000001000000000000000000000000100000000000
-152 6 rmoveto
14 5 hlineto
-3 -3 2 4 2 1 1 0 hvcurveto
0 -1 1 -2 -3 -3 -2 -10 vhcurveto
175 -15 rmoveto
76 callgsubr
18 13 12 14 vhcurveto
7 5 -3 -4 4 hvcurveto
1 6 rlineto
8 hlineto
-22 -8 vlineto
hintmask 000000000010000000000000000000000000000000000000
12 -4 -3 4 -8 hhcurveto
-8 -6 -6 -16 hvcurveto
hintmask 010000000000000000000000000000000000000000000000
-15 6 -7 10 8 5 7 9 1 vhcurveto
8 hlineto
75 callsubr
-14 -1 -8 -9 -15 hhcurveto
hintmask 100000000001000000000000000000000000100000000000
-18 -11 11 17 hvcurveto
hintmask 000001000000000000000000000000000000000000000000
-38 6 rmoveto
3 2 2 3 4 vvcurveto
3 -2 3 -4 -3 -2 -2 -3 -3 2 -3 4 -4 vhcurveto
hintmask 001000000000000000000000000000010000000000000000
-184 -15 rmoveto
hintmask 010000000000000000000000000000010000000000000000
68 callsubr
hintmask 100000000000010000000000000010000010000000000000
52 callsubr
hintmask 001000000000000000000000000000000010000000000000
14 6 -9 -13 -1 hvcurveto
hintmask 100000000010000000000000001000010000000000000000
-84 2 rmoveto
42 callsubr
-12 -9 -9 -12 -12 -9 8 13 vhcurveto
336 hmoveto
76 callgsubr
42 callsubr
75 callsubr
-12 -9 -9 -12 vhcurveto
hintmask 100000000010000000000000001000010000000000000000
-12 -9 8 13 hvcurveto
hintmask 001000000000000000000000000000000000000010000000
-185 -2 rmoveto
hintmask 010000000000000000000000000000000000000010000000
68 callsubr
hintmask 100000000000010000000000000000000000001000010000
52 callsubr
hintmask 001000000000000000000000000000000000000000010000
14 6 -9 -13 -1 hvcurveto
hintmask 000000010000000000000000000000010000000000000000
-119 5 rmoveto
hintmask 000000000100000000000000000000010000000000000000
14 hlineto
hintmask 000000010000000000000000000000010000000000000000
75 callgsubr
hintmask 001000000000000000000000000010000000000000000000
-29 -3 rmoveto
hintmask 000000000010000000000000000010000000000000000000
42 callgsubr
hintmask 001000000000000000000000000010000000000000000000
43 callsubr
44 callgsubr
336 hmoveto
76 callgsubr
42 callgsubr
44 callgsubr
43 callsubr
hintmask 000000010000000000000000000000000000000010000000
-214 3 rmoveto
hintmask 000000000100000000000000000000000000000010000000
14 hlineto
hintmask 000000010000000000000000000000000000000010000000
75 callgsubr
hintmask 001000000000000000000000000000000010000000000000
-64 -16 rmoveto
6 hlineto
hintmask 000010000000000000000000000000000010000000000000
25 -7 7 7 1 vlineto
hintmask 001000000000000100000000000000000010001000000000
13 9 6 10 3 4 -1 -1 2 vhcurveto
10 2 rlineto
-52 6 -7 vlineto
hintmask 100000000000000000000000000000000000100000000000
-23 7 5 hlineto
hintmask 000010000000000000000000000000000000100000000000
25 -14 vlineto
hintmask 001000000000000000000000000000000000100000000000
-25 5 -7 vlineto
hintmask 100000000000000000000000000000000010000000000000
-23 hlineto
hintmask 001000000000000000000000000000000000001000000000
92 7 rmoveto
6 hlineto
hintmask 000000100000000000000000000000000000000000010000
25 -6 7 vlineto
hintmask 000000000000010000000000000000000000000000000000
18 -10 hlineto
8 3 4 3 5 hhcurveto
5 3 -3 -5 -4 -3 -3 -4 -3 -3 2 4 hvcurveto
1 vlineto
-2 -3 -4 -5 -2 hvcurveto
44 callgsubr
-16 8 -7 vlineto
hintmask 100000000000000000000000000000000000001000000000
-26 hlineto
44 callgsubr
69 9 rmoveto
hintmask 000100000000000000000000000000000000000000000000
-5 6 -4 5 -5 5 rrcurveto
-2 -2 -2 -3 -4 vvcurveto
-6 4 -4 6 vhcurveto
44 callgsubr
2 3 1 2 3 hvcurveto
hintmask 001000000000000000000010000000000000000000000000
-313 -2 rmoveto
8 hlineto
hintmask 000000000010000000000010000000000000000000000000
41 -8 7 vlineto
hintmask 000000000000001000000000100000000000000000000000
29 -7 -8 hlineto
hintmask 000000000010000000000000100000000000000000000000
-16 22 16 -8 7 vlineto
hintmask 001000000000001000000000001000000000000000000000
29 -7 -8 -41 8 -7 hlineto
hintmask 100000000000000000000000100000000000000000000000
-29 7 8 hlineto
hintmask 000100000000000000000000100000000000000000000000
18 -22 vlineto
hintmask 001000000000000000000000100000000000000000000000
-18 8 -7 vlineto
hintmask 100000000000000000000010000000000000000000000000
-29 hlineto
459 6 rmoveto
0 -4 -3 -3 -4 -4 -3 3 0 hflex1
0 4 3 3 4 4 3 -3 0 hflex1
endchar
                </CharString>
                <CharString name="hungarumlaut">
                    -63 625 279 hstem
143 496 vstem
206 626 -90 callgsubr
endchar
                </CharString>
                <CharString name="hungarumlaut.cap">
                    -63 625 279 hstem
143 496 vstem
206 626 -90 callgsubr
endchar
                </CharString>
                <CharString name="hyphen">
                    -196 269 135 hstem
55 335 vstem
390 404 rmoveto
-309 hlineto
-26 -135 rlineto
310 hlineto
endchar
                </CharString>
                <CharString name="hyphen.tab">
                    -4 269 135 hstem
114 420 vstem
534 404 rmoveto
-395 hlineto
-25 -135 rlineto
394 hlineto
endchar
                </CharString>
                <CharString name="i">
                    6 callsubr
96 157 56 callsubr
364 649 rmoveto
48 157 -180 -8 -37 -157 rlineto
209 -581 -86 callsubr
                </CharString>
                <CharString name="i.dot">
                    6 callsubr
96 157 56 callsubr
364 649 rmoveto
48 157 -180 -8 -37 -157 rlineto
209 -581 -86 callsubr
                </CharString>
                <CharString name="i.sc">
                    -47 callgsubr
hstem
9 519 vstem
313 116 -105 callsubr
                </CharString>
                <CharString name="iacute">
                    6 callsubr
56 callsubr
147 697 -107 callgsubr
257 -637 -86 callsubr
                </CharString>
                <CharString name="iacute.sc">
                    -47 callgsubr
189 -20 hstem
9 551 vstem
215 724 -107 callgsubr
98 -608 -105 callsubr
                </CharString>
                <CharString name="ibreve">
                    6 callsubr
83 125 56 callsubr
442 853 -106 callsubr
-120 -739 -86 callsubr
                </CharString>
                <CharString name="ibreve.sc">
                    -47 callgsubr
62 125 hstem
9 582 vstem
509 880 -106 callsubr
-278 -710 -105 callsubr
                </CharString>
                <CharString name="icircumflex">
                    6 callsubr
156 78 callgsubr
86 160 hintmask 11101000
391 624 rmoveto
102 81 -164 165 rlineto
-15 hlineto
hintmask 11011000
-232 -161 rlineto
hintmask 11101000
64 -81 148 101 rlineto
110 -669 -86 callsubr
                </CharString>
                <CharString name="icircumflex.sc">
                    -47 callgsubr
hstem
9 552 vstem
459 651 -98 callgsubr
-49 -640 -105 callsubr
                </CharString>
                <CharString name="idieresis">
                    -210 -13 135 447 -6 callgsubr
86 160 hintmask 11011000
467 651 -83 callsubr
hintmask 11101000
-90 callsubr
333 -588 -86 callsubr
                </CharString>
                <CharString name="idieresis.sc">
                    -47 callgsubr
79 -76 callgsubr
9 574 hintmask 11011000
535 15 callsubr
hintmask 11101000
-90 callsubr
174 -559 -105 callsubr
                </CharString>
                <CharString name="idotaccent.sc">
                    -47 callgsubr
-8 callsubr
9 519 vstem
420 676 -70 callgsubr
60 -559 -105 callsubr
                </CharString>
                <CharString name="igrave">
                    6 callsubr
143 -20 56 callsubr
404 692 -99 callgsubr
29 -565 -86 callsubr
                </CharString>
                <CharString name="igrave.sc">
                    -47 callgsubr
hstem
9 519 vstem
472 719 -99 callgsubr
-130 -536 -105 callsubr
                </CharString>
                <CharString name="imacron">
                    6 callsubr
113 134 56 callsubr
495 796 -72 callgsubr
-65 -602 -86 callsubr
                </CharString>
                <CharString name="imacron.sc">
                    -47 callgsubr
92 134 hstem
9 554 vstem
563 823 -72 callgsubr
-224 -573 -105 callsubr
                </CharString>
                <CharString name="iogonek">
                    -210 -239 107 -38 -21 202 -21 70 62 447 -20 107 157 hstemhm
66 136 -117 161 hintmask 01111101
366 660 rmoveto
47 157 -179 -8 -37 -157 rlineto
hintmask 10111110
145 -843 rmoveto
-24 callsubr
13 32 vvcurveto
36 57 51 145 72 vhcurveto
-10 80 rlineto
hintmask 01111101
-152 -31 -9 2 22 97 82 361 rcurveline
-152 -9 -112 -145 69 -45 -46 -193 -26 -106 22 -67 69 -14 rlinecurve
hintmask 10111110
-65 -47 -30 -48 -45 vvcurveto
-81 16 callsubr
endchar
                </CharString>
                <CharString name="iogonek.sc">
                    -46 callgsubr
                </CharString>
                <CharString name="j">
                    -240 -191 144 616 -20 96.5 160.5 hstem
154 129.01 vstem
385 649 rmoveto
48 161 -180 -8 -38 -160 rlineto
-307 -833 rmoveto
147 2 102 12 53 53 85 85 -76 146 141 462 -156 -7 rcurveline
-129 -143 79 -66 -52 -258 23 -100 -27 -26 rlinecurve
-18 -18 -47 -1 -113 6 rrcurveto
endchar
                </CharString>
                <CharString name="j.sc">
                    -28 callsubr
                </CharString>
                <CharString name="k">
                    -44 callgsubr
endchar
                </CharString>
                <CharString name="k.sc">
                    -71 callsubr
endchar
                </CharString>
                <CharString name="kcommaaccent">
                    -44 callgsubr
-113 -518 -103 callsubr
                </CharString>
                <CharString name="kcommaaccent.sc">
                    -71 callsubr
-109 -595 -103 callsubr
                </CharString>
                <CharString name="l">
                    -107 -12 125 521 -45 callgsubr
endchar
                </CharString>
                <CharString name="l.sc">
                    -112 0 126 471 -20 hstem
30 418 vstem
424 hmoveto
-13 callgsubr
                </CharString>
                <CharString name="l.ultra">
                    -136 -11 124 521 -35 callgsubr
endchar
                </CharString>
                <CharString name="lacute">
                    49 callgsubr
340 906 -107 callgsubr
136 -838 -89 callsubr
endchar
                </CharString>
                <CharString name="lacute.sc">
                    -26 callsubr
                </CharString>
                <CharString name="lacute.ultra">
                    46 callsubr
310 906 -107 callgsubr
137 -838 -91 callgsubr
endchar
                </CharString>
                <CharString name="lcaron">
                    49 callgsubr
632 889 -48 callsubr
-313 -826 -89 callsubr
endchar
                </CharString>
                <CharString name="lcaron.sc">
                    -26 callgsubr
                </CharString>
                <CharString name="lcaron.ultra">
                    46 callsubr
602 889 -48 callsubr
-312 -826 -91 callgsubr
endchar
                </CharString>
                <CharString name="lcommaaccent">
                    -107 -12 125 521 -45 callgsubr
-298 -939 -103 callsubr
                </CharString>
                <CharString name="lcommaaccent.sc">
                    -112 0 126 471 -20 hstem
30 418 vstem
424 hmoveto
-67 callgsubr
49 -293 -103 callsubr
                </CharString>
                <CharString name="lcommaaccent.ultra">
                    -136 -11 124 521 -35 callgsubr
-299 -939 -103 callsubr
                </CharString>
                <CharString name="ldot">
                    20 -12 125 143 160 218 -45 callgsubr
255 -378 rmoveto
31 160 rlineto
-140 hlineto
-31 -160 rlineto
endchar
                </CharString>
                <CharString name="ldot.sc">
                    -15 callsubr
                </CharString>
                <CharString name="ldot.ultra">
                    5 -11 124 159 160 202 -35 callgsubr
272 -362 rmoveto
33 160 rlineto
-138 hlineto
-34 -160 rlineto
endchar
                </CharString>
                <CharString name="less">
                    -4 36 581 hstem
74 500 vstem
439 36 rmoveto
76 131 -278 154 2 13 335 150 -46 133 -423 -208 -31 -155 rlineto
endchar
                </CharString>
                <CharString name="lessequal">
                    -4 0 131 hstem
22 562 vstem
539 653 rmoveto
-417 -204 -28 -134 382 -164 54 127 -259 107 1 7 312 141 rlineto
-63 -402 63 callgsubr
                </CharString>
                <CharString name="lslash">
                    -107 -12 125 521 152 71 107 hstemhm
72 103 -92 159 170 141 hintmask 11110100
72 790 rmoveto
-54 34 60 callsubr
200 14 263 -78 vhcurveto
51 119 rlineto
-357 92 -260 -63 -160 vvcurveto
404 -722 rmoveto
-19 76 -136 -53 -63 11 -14 98 rlinecurve
194 157 115 154 141 vvcurveto
86 -48 48 -73 vhcurveto
hintmask 11101100
-166 -183 -246 -321 -8 0 -8 1 -8 hvcurveto
-62 -40 35 -61 38 24 rlineto
hintmask 11110100
38 -149 136 -26 207 125 rrcurveto
hintmask 11101100
-96 566 rmoveto
17 15 -12 -33 -69 -54 -100 -116 -120 hvcurveto
202 11 72 132 55 hhcurveto
endchar
                </CharString>
                <CharString name="lslash.sc">
                    -23 callgsubr
                </CharString>
                <CharString name="lslash.ultra">
                    -136 -11 124 521 152 71 107 hstemhm
43 102 -92 158 172 140 hintmask 11110100
43 790 rmoveto
-54 33 60 callsubr
201 14 263 -78 vhcurveto
50 119 rlineto
-357 92 -259 -63 -160 vvcurveto
hintmask 11101100
404 -722 -91 callgsubr
endchar
                </CharString>
                <CharString name="m">
                    333 -12 131 -98 -21 431 148 -11 -20 31 -20 hstemhm
419 148 91 165 -101 168 hintmask 10001110
926 53 rmoveto
-12 78 rlineto
-83 -18 -8 2 19 vvcurveto
hintmask 10001101
51 67 171 109 vvcurveto
62 -23 52 -87 -69 -72 -37 -73 -72 vhcurveto
73 -3 -32 37 -65 hhcurveto
-63 -65 -35 -67 -64 hvcurveto
hintmask 01010101
12 91 -153 -9 -22 -166 -25 -126 -52 -267 rlinecurve
153 hlineto
hintmask 01100101
73 368 rlineto
43 40 41 20 36 hhcurveto
40 8 -26 -65 -13 hvcurveto
-69 -340 rlineto
143 hlineto
76 367 rlineto
43 44 38 20 34 hhcurveto
35 8 -19 -30 hvcurveto
hintmask 10001110
-73 -64 -155 -85 81 callgsubr
                </CharString>
                <CharString name="m.sc">
                    -31 callgsubr
                </CharString>
                <CharString name="macron">
                    24 callgsubr
                </CharString>
                <CharString name="macron.cap">
                    24 callgsubr
                </CharString>
                <CharString name="minus">
                    -4 270 133 hstem
74 500 vstem
574 403 rmoveto
-474 hlineto
-26 -133 rlineto
473 hlineto
endchar
                </CharString>
                <CharString name="mu">
                    51 -174 -21 181 146 -143 130 -112 -21 29 -21 569 -20 27 -20 hstemhm
-3 658 -266 158 hintmask 1010001100000000
151 -184 rmoveto
hintmask 1000101100000000
32 178 rlineto
hintmask 1001001100000000
-5 11 14 -3 14 hhcurveto
hintmask 1001001010000000
55 52 37 68 60 hvcurveto
hintmask 1010010010000000
-3 -114 73 -28 196 105 -12 76 rcurveline
-99 -18 -2 0 8 46 81 405 rcurveline
-151 hlineto
hintmask 1100001010000000
-73 -359 rlineto
-48 -45 -39 -24 -39 hhcurveto
-40 -20 26 60 13 hvcurveto
75 352 -154 -9 -161 -756 rlineto
endchar
                </CharString>
                <CharString name="multiply">
                    -4 581 -20 hstem
48 550 vstem
432 83 rmoveto
113 93 -123 153 176 146 -85 106 -176 -147 -124 155 -112 -94 124 -154 -177 -148 85 -105 177 147 rlineto
endchar
                </CharString>
                <CharString name="n">
                    -20 callsubr
hintmask 10001100
645 53 -81 callsubr
endchar
                </CharString>
                <CharString name="n.sc">
                    -17 callgsubr
endchar
                </CharString>
                <CharString name="nacute">
                    -20 callsubr
hintmask 10001010
282 707 -107 callgsubr
hintmask 10001100
363 -654 -81 callsubr
endchar
                </CharString>
                <CharString name="nacute.sc">
                    -37 callgsubr
287 726 -107 callgsubr
100 -726 rmoveto
-85 callgsubr
endchar
                </CharString>
                <CharString name="naira">
                    -4 21 -21 161.5 123 -116 122 -118.5 97.5 110 122 -116 122 -99 98 181.5 -20 23 -20 hstemhm
2 638 hintmask 1001001011000000
241 449 rmoveto
8 hlineto
39 -179 -81 -1 rlineto
196 -29 rmoveto
-35 168 75 1 -32 -169 rlineto
-64 -240 rmoveto
129 hlineto
hintmask 1010010101000000
32 168 67 1 24 122 -67 -1 18 95 66 1 24 122 -66 -1 35 181 rlineto
-114 hlineto
hintmask 1001001011000000
-34 -181 -113 -1 -38 185 -139 -6 rlineto
hintmask 1100100011000000
-36 -183 -67 -1 -24 -122 68 1 -19 -95 -67 -1 -24 -123 67 1 -31 -162 rlineto
119 hlineto
hintmask 1001001011000000
32 171 120 2 rlineto
endchar
                </CharString>
                <CharString name="ncaron">
                    -20 callsubr
hintmask 10001010
415 631 -100 callgsubr
hintmask 10001100
244 -578 -81 callsubr
endchar
                </CharString>
                <CharString name="ncaron.sc">
                    -37 callgsubr
419 650 -100 callgsubr
-18 -650 rmoveto
-85 callgsubr
endchar
                </CharString>
                <CharString name="ncommaaccent">
                    -20 callsubr
hintmask 10001100
645 53 -81 callsubr
-492 -358 -103 callsubr
                </CharString>
                <CharString name="ncommaaccent.sc">
                    -36 callsubr
                </CharString>
                <CharString name="nine">
                    -4 3 -21 283 107 212 120 hstem
90 143 206 145 vstem
127 -18 rmoveto
328 91 129 196 195 vvcurveto
158 -90 82 -131 -148 -125 -107 -153 -167 162 -67 160 107 vhcurveto
-39 -79 -90 -78 -190 -44 rrcurveto
140 351 rmoveto
61 34 56 67 54 51 -39 -111 -9 0 -9 -1 -10 vhcurveto
-118 -70 -87 44 87 vvcurveto
endchar
                </CharString>
                <CharString name="nine.den">
                    5 -21 185 50 callsubr
11 20 callsubr
40 -16 -96 callgsubr
                </CharString>
                <CharString name="nine.den_afrc">
                    -89 -64 50 callsubr
57 20 callsubr
86 -249 -96 callgsubr
                </CharString>
                <CharString name="nine.den_afrc2">
                    331 -64 50 callsubr
267 20 callsubr
296 -249 -96 callgsubr
                </CharString>
                <CharString name="nine.inf">
                    -144 2 50 callsubr
42 20 callsubr
71 -183 -96 callgsubr
                </CharString>
                <CharString name="nine.num">
                    419 50 callsubr
115 20 callsubr
144 234 -96 callgsubr
                </CharString>
                <CharString name="nine.num_afrc">
                    -89 641 50 callsubr
179 20 callsubr
208 456 -96 callgsubr
                </CharString>
                <CharString name="nine.num_afrc2">
                    331 641 50 callsubr
388 20 callsubr
417 456 -96 callgsubr
                </CharString>
                <CharString name="nine.small">
                    5 -21 185 50 callsubr
39 20 callsubr
68 -16 -96 callgsubr
                </CharString>
                <CharString name="nine.sup">
                    -144 530 74 -42 42 117 88 hstemhm
129 110 124 113 hintmask 10111000
158 345 rmoveto
230 53 88 129 129 vvcurveto
102 -65 51 -95 -106 -81 -68 -99 vhcurveto
hintmask 01111000
-106 107 -40 109 66 vhcurveto
-26 -50 -59 -46 -125 -23 rrcurveto
hintmask 10111000
104 214 rmoveto
34 19 30 40 32 33 -22 -59 -6 0 -6 -1 -5 vhcurveto
-74 -38 -49 24 48 vvcurveto
endchar
                </CharString>
                <CharString name="notequal">
                    -4 14 -21 159 132 111 133 159 -20 hstem
51 547 vstem
525 152 rmoveto
26 132 rlineto
-187 hlineto
62 111 rlineto
146 hlineto
26 133 rlineto
-98 hlineto
62 112 -114 47 -88 -159 rlineto
-235 hlineto
-26 -133 rlineto
187 hlineto
-62 -111 rlineto
-146 hlineto
-27 -132 rlineto
100 hlineto
-63 -114 114 -45 88 159 rlineto
endchar
                </CharString>
                <CharString name="ntilde">
                    53 -12 131 -98 -21 430 149 -11 -20 31 -20 89 64 callgsubr
378 164 -100 168 hintmask 1000110001000000
518 769 rmoveto
hintmask 1000101101000000
-80 callgsubr
hintmask 1000110001000000
-80 callsubr
hintmask 1000101110000000
127 -716 rmoveto
-11 78 rlineto
-83 -18 -9 2 19 vvcurveto
hintmask 1000101101000000
51 68 171 109 vvcurveto
62 -26 52 -87 -71 -77 -38 -73 -75 vhcurveto
hintmask 0101001101000000
13 100 -153 -9 -22 -166 -25 -126 -52 -267 rlinecurve
153 hlineto
hintmask 1010001101000000
71 356 rlineto
50 52 46 24 39 hhcurveto
35 11 -19 -30 hvcurveto
hintmask 1000101110000000
-73 -64 -155 -85 vvcurveto
-93 85 -20 182 98 vhcurveto
endchar
                </CharString>
                <CharString name="ntilde.sc">
                    -57 callgsubr
                </CharString>
                <CharString name="numbersign">
                    -4 25 -21 556 -20 37 -20 129 -20 hstemhm
34 572 hintmask 10111000
263 284 rmoveto
19 106 94 17 -19 -106 rlineto
-148 -309 rmoveto
29 159 94 17 -30 -164 106 13 32 170 95 17 26 134 -96 -17 20 105 96 17 25 134 rlineto
hintmask 11011000
-96 -17 28 151 -108 -13 -29 -158 -94 -17 30 163 -106 -13 -32 -169 -92 -17 -26 -133 93 17 -19 -106 -95 -17 -26 -134 96 17 -29 -153 rlineto
endchar
                </CharString>
                <CharString name="numero">
                    547 0 120 72 119 266 119 -8 -20 23 -20 hstemhm
678 143 184 143 hintmask 11100110
1148 498 rmoveto
125 -74 73 -110 -151 -135 -142 -163 -125 73 -74 111 151 135 143 163 vhcurveto
-143 -20 rmoveto
-85 -40 -82 -70 -50 -24 35 64 86 40 81 70 50 24 -34 -65 vhcurveto
-638 -478 rmoveto
154 hlineto
hintmask 11010110
134 688 rlineto
-136 hlineto
-78 -409 rlineto
-7 hlineto
hintmask 11001110
-86 412 -175 -6 -133 -685 rlineto
136 hlineto
85 448 rlineto
9 hlineto
339 -448 rmoveto
437 hlineto
23 120 rlineto
-436 hlineto
endchar
                </CharString>
                <CharString name="o">
                    0 callsubr
4 callgsubr
44 219 -97 callsubr
                </CharString>
                <CharString name="o.sc">
                    -63 callgsubr
386 610 -107 callsubr
                </CharString>
                <CharString name="oacute">
                    0 callsubr
4 callgsubr
257 706 -107 callgsubr
-213 -487 -97 callsubr
                </CharString>
                <CharString name="oacute.sc">
                    -63 callgsubr
282 736 -107 callgsubr
104 -126 -107 callsubr
                </CharString>
                <CharString name="obreve">
                    0 callsubr
61 125 4 callgsubr
551 862 -106 callsubr
-589 -589 -97 callsubr
                </CharString>
                <CharString name="obreve.sc">
                    34 -14 129 366 129 61 125 hstem
46 161 254 161 vstem
576 892 -106 callsubr
-272 -228 -107 callsubr
                </CharString>
                <CharString name="ocircumflex">
                    0 callsubr
4 callgsubr
500 633 -98 callgsubr
-359 -519 -97 callsubr
                </CharString>
                <CharString name="ocircumflex.sc">
                    -63 callgsubr
525 663 -98 callgsubr
-42 -158 -107 callsubr
                </CharString>
                <CharString name="odieresis">
                    0 callsubr
78 -76 callgsubr
44 159 224 159 hintmask 11011100
577 660 -83 callsubr
hintmask 11101100
-90 callsubr
-137 -438 -97 callsubr
                </CharString>
                <CharString name="odieresis.sc">
                    34 -14 129 366 129 78 -76 callgsubr
46 161 254 161 hintmask 11011100
602 690 -83 callsubr
hintmask 11101100
-90 callsubr
180 -77 -107 callsubr
                </CharString>
                <CharString name="oe">
                    318 -16 126 -123 134 333 126 hstemhm
44 159 224 141 204 147 hintmask 01111100
427 324 rmoveto
hintmask 10111100
-102 -51 -112 -83 -57 -33 47 83 102 50 112 84 vhcurveto
hintmask 01111100
57 33 -47 -83 hvcurveto
287 129 46 callgsubr
174 -387 rmoveto
-12 80 -235 -45 -66 14 -7 91 rlinecurve
233 19 118 80 127 vvcurveto
90 -62 58 -101 -83 -75 -41 -62 -57 vhcurveto
66 -33 -62 37 -84 hhcurveto
-166 -152 -167 -194 hvcurveto
hintmask 10111100
-147 86 -88 130 75 70 34 56 55 vhcurveto
hintmask 01111100
54 -97 135 -34 239 123 rrcurveto
endchar
                </CharString>
                <CharString name="oe.sc">
                    -46 callsubr
                </CharString>
                <CharString name="ogonek">
                    -12 callgsubr
                </CharString>
                <CharString name="ogonek.cap">
                    -12 callgsubr
                </CharString>
                <CharString name="ograve">
                    0 callsubr
121 -20 4 callgsubr
513 701 -99 callgsubr
-440 -415 -97 callsubr
                </CharString>
                <CharString name="ograve.sc">
                    -63 callgsubr
538 731 -99 callgsubr
-123 -54 -107 callsubr
                </CharString>
                <CharString name="ohungarumlaut">
                    0 callsubr
113 -20 4 callgsubr
247 641 -90 callgsubr
-367 -474 -97 callsubr
                </CharString>
                <CharString name="ohungarumlaut.sc">
                    -63 callgsubr
272 671 -90 callgsubr
-50 -113 -107 callsubr
                </CharString>
                <CharString name="omacron">
                    0 callsubr
91 134 4 callgsubr
605 805 -72 callgsubr
-535 -452 -97 callsubr
                </CharString>
                <CharString name="omacron.sc">
                    34 -14 129 366 129 91 134 hstem
46 161 254 161 vstem
629 835 -72 callgsubr
-217 -91 -107 callsubr
                </CharString>
                <CharString name="one">
                    -4 0 131 579 -20 hstem
46 498 vstem
507 hmoveto
37 131 rlineto
-157 hlineto
113 579 -150 -12 -16 -82 -163 -16 -20 -119 rlineto
157 hlineto
-68 -350 rlineto
-168 hlineto
-26 -131 rlineto
endchar
                </CharString>
                <CharString name="one.den">
                    0 -37 callsubr
hstem
-23 353 vstem
304 13 callsubr
                </CharString>
                <CharString name="one.den_afrc">
                    -89 -233 -37 callsubr
hstem
23 353 vstem
350 -233 -62 callgsubr
                </CharString>
                <CharString name="one.den_afrc2">
                    331 -233 -37 callsubr
hstem
233 353 vstem
560 -233 -62 callgsubr
                </CharString>
                <CharString name="one.inf">
                    -144 -167 -37 callsubr
hstem
8 353 vstem
335 -167 -62 callgsubr
                </CharString>
                <CharString name="one.num">
                    250 100 188 27 callsubr
hstem
81 353 vstem
408 250 -62 callgsubr
                </CharString>
                <CharString name="one.num_afrc">
                    -89 472 -37 callsubr
hstem
145 353 vstem
472 472 -62 callgsubr
                </CharString>
                <CharString name="one.num_afrc2">
                    331 472 -37 callsubr
hstem
354 353 vstem
681 472 -62 callgsubr
                </CharString>
                <CharString name="one.small">
                    0 -37 callsubr
hstem
5 353 vstem
332 13 callsubr
                </CharString>
                <CharString name="one.sup">
                    -144 361 -37 callsubr
hstem
95 353 vstem
422 361 -62 callgsubr
                </CharString>
                <CharString name="oneeighth">
                    492 -11 89 172 100 5 97 86 -7 callsubr
674 -33 callgsubr
hintmask 11011011
353 -24 rmoveto
-65 callsubr
132 217 rmoveto
-103 callgsubr
934 -132 -34 callsubr
hintmask 10111011
32 14 38 17 45 19 -31 64 rcurveline
-57 -24 -48 -21 -41 -19 rrcurveto
-23 19 -17 16 16 vvcurveto
24 31 12 110 -33 vhcurveto
3 6 34 96 4 9 rrcurveto
-189 27 -102 -73 -78 vvcurveto
-25 callsubr
hintmask 11011101
-65 callgsubr
hintmask 11011011
-24 callgsubr
hintmask 11011101
-166 -40 -92 callgsubr
                </CharString>
                <CharString name="oneeighth.afrc">
                    -89 -1 callgsubr
70 99 84 -37 callsubr
hstemhm
28 -33 callgsubr
hintmask 1011111011000000
472 472 rmoveto
-103 callgsubr
-95 -183 -62 callsubr
hintmask 1101111011000000
-25 callsubr
hintmask 1011111101000000
-65 callgsubr
hintmask 1011111011000000
-24 callgsubr
hintmask 1011111101000000
-166 -40 -92 callgsubr
                </CharString>
                <CharString name="onefifth">
                    492 -2 103 149 100 -13.5 101.5 100 -7 callsubr
905 116 hintmask 11011100
354 -24 rmoveto
-65 callsubr
131 217 rmoveto
-103 callgsubr
940 -100 rmoveto
hintmask 10111100
-104 callsubr
hintmask 11011100
34 callsubr
                </CharString>
                <CharString name="onefifth.afrc">
                    -89 -235 -41 callgsubr
84 27 callgsubr
259 116 vstem
472 472 rmoveto
-103 callgsubr
-95 -183 -22 callgsubr
                </CharString>
                <CharString name="onehalf">
                    492 0 102 148 100 -13 108 93 -7 callsubr
914 129 hintmask 11011100
408 250 rmoveto
-103 callgsubr
278 -274 rmoveto
-65 callsubr
710 -33 rmoveto
21 102 rlineto
-169 hlineto
130 79 69 65 80 vvcurveto
hintmask 10111100
-10 callsubr
endchar
                </CharString>
                <CharString name="onehalf.afrc">
                    -89 -233 50 callgsubr
77 27 callgsubr
268 129 vstem
472 472 rmoveto
-103 callgsubr
-95 -6 callsubr
277 -621 -40 callsubr
-28 callgsubr
65 callgsubr
                </CharString>
                <CharString name="onequarter">
                    492 0 173 -99 99 77 100 188 -7 callsubr
81 971 hintmask 10111100
362 -24 rmoveto
-65 callsubr
123 217 rmoveto
-103 callgsubr
hintmask 01111100
944 -176 rmoveto
hintmask 10111100
-83 callgsubr
-125 6 rcurveline
hintmask 01111100
-35 -121 -32 -77 -49 -90 -9 -82 rcurveline
204 hlineto
hintmask 10111100
-3 callgsubr
hintmask 01111100
14 74 rlineto
endchar
                </CharString>
                <CharString name="onequarter.afrc">
                    -89 -159 99 349 27 callgsubr
24 488 vstem
472 472 rmoveto
-103 callgsubr
-95 -6 callsubr
310 -547 -87 callsubr
                </CharString>
                <CharString name="onesixth">
                    492 -11 71 callgsubr
-18 100 188 -7 callsubr
683 5 callgsubr
hintmask 10111110
360 -24 rmoveto
-65 callsubr
125 217 rmoveto
-103 callgsubr
762 -261 rmoveto
106 81 69 99 hvcurveto
hintmask 11011110
105 -107 40 -109 -65 vhcurveto
26 50 59 46 125 23 -23 98 rcurveline
-230 -53 -88 -129 -129 vvcurveto
hintmask 10111110
69 callsubr
hvcurveto
hintmask 11011110
28 callsubr
vhcurveto
74 38 49 -25 -48 vvcurveto
hintmask 10111110
-33 -19 -31 -40 vhcurveto
endchar
                </CharString>
                <CharString name="onesixth.afrc">
                    -89 -244 71 callgsubr
254 27 callgsubr
37 5 callgsubr
vstem
472 472 rmoveto
-103 callgsubr
-95 -6 callsubr
128 -632 -101 callsubr
                </CharString>
                <CharString name="onethird">
                    492 -6 103 -77 -21 251 100 -14 102 100 -7 callsubr
897 119 hintmask 10101110
360 -24 rmoveto
-65 callsubr
125 217 rmoveto
-103 callgsubr
935 -117 -41 callsubr
hintmask 10011110
-95 callgsubr
hintmask 01101110
-15 -105 rlineto
hintmask 10101110
14 callsubr
                </CharString>
                <CharString name="onethird.afrc">
                    -89 70 callsubr
84 27 callgsubr
251 119 vstem
472 472 rmoveto
-103 callgsubr
-95 -6 callsubr
301 -488 rmoveto
46 -39 40 -91 26 vhcurveto
8 callgsubr
14 callsubr
                </CharString>
                <CharString name="ordfeminine">
                    -91 107 103 60 96 -96 113 214 101 0 -20 hstemhm
89 124 109 124 hintmask 10110110
250 383 rmoveto
-21 -16 18 38 71 41 87 48 13 23 -4 -8 24 hvcurveto
-10 -53 -13 -67 -8 -38 rrcurveto
-25 -28 -32 -19 -21 hhcurveto
hintmask 11001110
247 -72 rmoveto
-6 55 -46 -4 -5 2 6 29 rlinecurve
54 284 rlineto
hintmask 10110110
14 -48 -50 7 -42 hhcurveto
-169 -102 -151 -149 -87 39 -41 51 44 52 33 43 47 hvcurveto
hintmask 11001110
-4 -80 48 -25 131 70 rrcurveto
hintmask 11010110
-432 -101 rmoveto
-21 -103 rlineto
404 hlineto
21 103 rlineto
endchar
                </CharString>
                <CharString name="ordmasculine">
                    -83 107 103 60 103 222 103 hstem
108 124 163 124 vstem
519 530 rmoveto
107 -64 61 -99 -132 -116 -122 -139 -105 64 -62 99 132 116 122 138 vhcurveto
-124 -16 rmoveto
-72 -35 -69 -61 -45 -22 28 53 72 35 69 61 45 22 -29 -52 vhcurveto
-318 -304 rmoveto
-20 -103 rlineto
369 hlineto
20 103 rlineto
endchar
                </CharString>
                <CharString name="oslash">
                    40 callsubr
200 243 -56 callgsubr
                </CharString>
                <CharString name="oslash.sc">
                    -20 callgsubr
204 245 -93 callgsubr
                </CharString>
                <CharString name="oslashacute">
                    40 callsubr
257 708 -107 callgsubr
-57 -465 -56 callgsubr
                </CharString>
                <CharString name="oslashacute.sc">
                    -20 callgsubr
274 738 -107 callgsubr
-70 -493 -93 callgsubr
                </CharString>
                <CharString name="otilde">
                    0 callsubr
67 64 callgsubr
44 159 224 159 hintmask 11100110
492 768 rmoveto
hintmask 11011110
-80 callgsubr
hintmask 11100110
-80 callsubr
hintmask 11011110
-448 -549 -97 callsubr
                </CharString>
                <CharString name="otilde.sc">
                    34 -14 129 366 129 67 48 callsubr
46 161 254 161 hintmask 11101100
517 798 rmoveto
hintmask 11011100
-80 callgsubr
hintmask 11101100
-80 callsubr
-131 -188 -107 callsubr
                </CharString>
                <CharString name="p">
                    2 -174 -21 180 129 321 144 -11 -20 31 -20 hstemhm
436 155 hintmask 11001100
306 114 rmoveto
-21 -34 6 12 -38 hvcurveto
hintmask 11100100
47 243 rlineto
34 42 45 26 32 hhcurveto
33 24 -28 -59 hvcurveto
hintmask 11001100
-103 -59 -131 -71 vhcurveto
-155 -298 rmoveto
33 171 rlineto
-1 15 14 -1 13 hhcurveto
229 136 206 200 127 -60 61 -70 -58 -69 -42 -56 -61 hvcurveto
hintmask 11010100
13 87 -152 -9 -21 -165 -47 -228 -68 -361 rlinecurve
endchar
                </CharString>
                <CharString name="p.sc">
                    -25 callgsubr
                </CharString>
                <CharString name="paragraph">
                    154 80 129 484 -20 hstem
75 150 vstem
533 209 rmoveto
-35 1 -32 3 -29 5 65 335 rcurveline
29 33 -1 -3 35 hvcurveto
-374 -167 rmoveto
69 41 65 121 26 vhcurveto
-58 -293 rlineto
-68 31 -36 47 55 vvcurveto
147 -499 rmoveto
40 205 30 -4 32 -3 33 -1 rlinecurve
-36 -187 137 14 154 786 rlineto
-442 14 -245 -140 -211 vvcurveto
-110 74 -84 135 -45 vhcurveto
-48 -247 rlineto
endchar
                </CharString>
                <CharString name="parenleft">
                    -162 709 -20 hstem
58 147 vstem
428 807 -5 callgsubr
                </CharString>
                <CharString name="parenleft.cap">
                    -162 -171 1039 hstem
70 147 vstem
440 868 -5 callgsubr
                </CharString>
                <CharString name="parenright">
                    -162 -232 1039 hstem
259 147 vstem
36 -232 -5 callsubr
                </CharString>
                <CharString name="parenright.cap">
                    -162 -171 1039 hstem
271 147 vstem
48 -171 -5 callsubr
                </CharString>
                <CharString name="percent">
                    259 6 -21 24 -21 712 -20 22 -20 hstemhm
97 712 hintmask 01011000
291 702 rmoveto
-84 -80 -77 -103 -78 54 -45 66 84 79 77 103 78 -54 45 -65 hvcurveto
-121 -714 rmoveto
hintmask 01101000
639 633 -73 79 -639 -632 rlineto
hintmask 10011000
517 -83 rmoveto
84 80 77 102 78 -54 45 -66 -84 -79 -77 -102 -78 54 -45 65 hvcurveto
endchar
                </CharString>
                <CharString name="period">
                    -245 0 188 hstem
45 224 vstem
235 hmoveto
34 33 callsubr
endchar
                </CharString>
                <CharString name="period.tab">
                    -182 0 188 hstem
68 224 vstem
258 hmoveto
34 33 callsubr
endchar
                </CharString>
                <CharString name="periodcentered">
                    -243 217 188 hstem
88 225 vstem
279 217 rmoveto
43 callgsubr
endchar
                </CharString>
                <CharString name="periodcentered.tab">
                    -185 217 188 hstem
109 225 vstem
300 217 rmoveto
43 callgsubr
endchar
                </CharString>
                <CharString name="peso">
                    -4 21 -21 375 125 -114 106 81 122 hstemhm
36 618 hintmask 10111000
455 492 rmoveto
-180 hlineto
16 81 91 10 57 -35 16 -56 rlinecurve
-215 -180 rmoveto
15 74 rlineto
185 hlineto
-30 -53 -66 -33 -98 12 rrcurveto
hintmask 11011000
384 63 rmoveto
24 125 rlineto
-57 hlineto
-13 133 -130 94 -286 -42 -36 -185 rcurveline
-65 hlineto
-25 -125 rlineto
66 hlineto
-72 -375 rlineto
143 hlineto
34 173 182 26 130 72 50 104 rlinecurve
endchar
                </CharString>
                <CharString name="plus">
                    -4 270 133 hstem
61 526 vstem
560 270 rmoveto
27 133 rlineto
-179 hlineto
36 187 rlineto
-142 hlineto
-36 -187 rlineto
-179 hlineto
-26 -133 rlineto
179 hlineto
-37 -188 rlineto
142 hlineto
37 188 rlineto
endchar
                </CharString>
                <CharString name="plusminus">
                    -4 38 131 158 131 hstem
23 568 vstem
509 38 rmoveto
26 131 rlineto
-173 hlineto
31 158 rlineto
171 hlineto
27 131 rlineto
-173 hlineto
35 180 rlineto
-142 hlineto
-35 -180 rlineto
-171 hlineto
-27 -131 rlineto
173 hlineto
-31 -158 rlineto
-171 hlineto
-26 -131 rlineto
endchar
                </CharString>
                <CharString name="published">
                    286 -42 95 384 93 106 95 hstem
78 105 357 113 99 -31 callsubr
-87 -477 rmoveto
1 5 5 34 8 44 rrcurveto
129 14 96 63 93 vvcurveto
86 -90 49 -189 -23 vhcurveto
-71 -365 rlineto
237 238 rmoveto
-39 -33 -30 -63 9 vhcurveto
7 37 6 36 5 27 rrcurveto
50 8 28 -21 -27 vvcurveto
endchar
                </CharString>
                <CharString name="q">
                    -2 -203 136 53 144 -123 -21 465 128 hstemhm
39 155 120 164 hintmask 10111100
585 -135 rmoveto
-12 78 -98 -17 -2 3 8 40 rlinecurve
111 574 rlineto
20 -50 -75 16 -55 hhcurveto
-235 -138 -203 -202 -127 60 -61 70 56 65 39 52 59 hvcurveto
-29 -151 -27 -142 69 -31 223 112 rlinecurve
hintmask 11011100
-335 265 rmoveto
-32 -24 27 60 102 59 132 70 21 35 -6 -12 38 hvcurveto
-46 -242 rlineto
-34 -43 -45 -27 -33 hhcurveto
endchar
                </CharString>
                <CharString name="q.sc">
                    -35 callsubr
                </CharString>
                <CharString name="question">
                    -77 0 168 431 -20 hstem
359 181 vstem
137 599 rmoveto
151 -23 71 -23 -58 vvcurveto
-48 -51 -39 -131 -76 vhcurveto
52 -79 rlineto
225 118 86 91 96 vvcurveto
107 -116 65 -251 27 vhcurveto
97 -757 rmoveto
33 168 rlineto
-182 hlineto
-34 -168 rlineto
endchar
                </CharString>
                <CharString name="questiondown">
                    -77 520 168 hstem
40 180 vstem
310 688 rmoveto
-34 -168 rlineto
183 hlineto
33 168 rlineto
-49 -598 rmoveto
-151 22 -72 23 58 vvcurveto
48 51 39 132 76 vhcurveto
-53 79 rlineto
-224 -118 -86 -91 -96 vvcurveto
-107 115 -65 252 -27 vhcurveto
endchar
                </CharString>
                <CharString name="quotedbl">
                    4 410 343 hstem
136 478 vstem
495 410 rmoveto
59 callsubr
-133 hmoveto
59 callsubr
endchar
                </CharString>
                <CharString name="quotedblbase">
                    30 -158 353 hstem
96 186 88 186 vstem
292 -121 rmoveto
61 -37 126 37 callgsubr
61 -37 118 101 74 108 3 142 rlinecurve
-186 -5 4 -121 -14 -90 -60 -98 rlinecurve
endchar
                </CharString>
                <CharString name="quotedblleft">
                    2 414 353 hstem
110 185 89 185 vstem
639 730 rmoveto
-61 37 -117 -101 -74 -108 -3 -142 rlinecurve
185 5 -3 121 13 90 60 98 rlinecurve
-266 hmoveto
-61 74 callgsubr
185 4 -3 122 15 92 66 98 rlinecurve
endchar
                </CharString>
                <CharString name="quotedblright">
                    -16 398 353 hstem
174 185 88 186 vstem
369 435 rmoveto
62 -37 125 37 callgsubr
62 -37 117 101 74 108 3 142 rlinecurve
-185 -5 3 -121 -14 -90 -60 -98 rlinecurve
endchar
                </CharString>
                <CharString name="quoteleft">
                    -264 414 353 hstem
110 189 vstem
375 730 rmoveto
-63 74 callgsubr
189 4 -5 122 14 92 67 98 rlinecurve
endchar
                </CharString>
                <CharString name="quoteright">
                    -283 398 353 hstem
177 189 vstem
101 435 51 callsubr
4 -122 -13 -92 -67 -98 rlinecurve
endchar
                </CharString>
                <CharString name="quotesinglbase">
                    -235 -158 353 hstem
102 189 vstem
26 -121 51 callsubr
5 -122 -14 -92 -67 -98 rlinecurve
endchar
                </CharString>
                <CharString name="quotesingle">
                    -242 410 343 hstem
144 233 vstem
257 410 rmoveto
110 282 10 61 rlineto
-176 hlineto
-57 -343 rlineto
endchar
                </CharString>
                <CharString name="r">
                    3 callgsubr
562 39 -77 callgsubr
endchar
                </CharString>
                <CharString name="r.sc">
                    -30 callgsubr
endchar
                </CharString>
                <CharString name="racute">
                    3 callgsubr
275 710 -107 callgsubr
287 -671 -77 callgsubr
endchar
                </CharString>
                <CharString name="racute.sc">
                    -49 callsubr
hintmask 00111000
253 731 -107 callgsubr
hintmask 10011000
128 -741 -94 callsubr
endchar
                </CharString>
                <CharString name="rcaron">
                    3 callgsubr
407 633 -100 callgsubr
169 -594 -77 callgsubr
endchar
                </CharString>
                <CharString name="rcaron.sc">
                    -49 callsubr
hintmask 00111000
385 655 -100 callgsubr
hintmask 10011000
10 -665 -94 callsubr
endchar
                </CharString>
                <CharString name="rcommaaccent">
                    3 callgsubr
562 39 -77 callgsubr
-473 -335 -103 callsubr
                </CharString>
                <CharString name="rcommaaccent.sc">
                    -50 callgsubr
                </CharString>
                <CharString name="registered">
                    79 198 74 173.5 166.5 75 74 hstem
93 80 402 80 vstem
655 507 rmoveto
164 -107 90 -145 -162 -148 -124 -187 -162 106 -90 145 163 148 124 185 vhcurveto
-80 -10 rmoveto
-135 -106 -90 -120 -102 -74 63 122 138 106 92 122 101 73 -65 -125 vhcurveto
-177 -141 rmoveto
89 10 -48 99 rlineto
41 20 18 26 28 vvcurveto
53 -57 33 -143 -17 vhcurveto
-48 -248 rlineto
85 hlineto
16 85 11 1 rlineto
endchar
                </CharString>
                <CharString name="registered.alt">
                    286 -42 95 388 92 103 95 hstem
78 105 341 111 117 -31 callsubr
7 -480 rmoveto
112 11 -68 139 rlineto
54 35 29 41 48 vvcurveto
71 -72 55 -199 -32 vhcurveto
-69 -362 rlineto
110 hlineto
50 279 rlineto
47 5 22 -12 -25 vvcurveto
-32 -24 -25 -61 -29 vhcurveto
1 hlineto
endchar
                </CharString>
                <CharString name="ring">
                    -63 616 250 hstem
177 287 vstem
334 866 -75 callsubr
endchar
                </CharString>
                <CharString name="ring.cap">
                    -63 616 250 hstem
177 287 vstem
334 866 -75 callsubr
endchar
                </CharString>
                <CharString name="ruble">
                    -4 21 -21 109 109 58 115 184 120 hstem
484 145 vstem
484 494 rmoveto
-59 -49 -42 -135 -2 vhcurveto
36 184 rlineto
97 9 51 -30 -60 vvcurveto
-41 -385 rmoveto
31 109 rlineto
-208 hlineto
13 65 rlineto
257 26 93 98 112 vvcurveto
127 -125 78 -298 -39 vhcurveto
-57 -294 rlineto
-69 hlineto
-22 -115 rlineto
24 23 0 22 hhcurveto
-10 -53 rlineto
-71 hlineto
-22 -114 rlineto
71 hlineto
-21 -109 rlineto
150 hlineto
21 109 rlineto
endchar
                </CharString>
                <CharString name="rupee">
                    329 -11 130 -98 -21 571 124 -101 -20 hstemhm
413 148 62 250 -94 142 hintmask 10101010
29 callsubr
hintmask 01101010
23 callgsubr
hintmask 10101010
685 -142 rmoveto
86 -76 76 -44 65 vhcurveto
hintmask 10011100
118 117 -40 78 -94 hhcurveto
-79 -82 -52 -90 -27 8 -26 13 -25 hvcurveto
-22 -18 -26 -20 -34 -22 34 -65 rcurveline
hintmask 10101010
34 20 31 19 27 18 rrcurveto
43 -55 48 -48 -40 vvcurveto
-41 -43 -9 -168 9 vhcurveto
-3 -133 rlineto
290 -5 66 95 92 vvcurveto
endchar
                </CharString>
                <CharString name="rupeeindia">
                    -4 360 105 88 135 hstem
46 568 vstem
512 71 rmoveto
-124 89 -65 45 -66 24 106 24 71 48 30 59 rrcurveto
75 hlineto
20 105 rlineto
-84 hlineto
-9 34 -22 31 -40 23 rrcurveto
176 hlineto
34 135 rlineto
-451 hlineto
-33 -132 128 -13 55 -34 17 -44 rlinecurve
-215 hlineto
-20 -105 rlineto
219 hlineto
-31 -41 -66 -33 -125 -6 -46 -115 rcurveline
137 -36 39 -25 166 -126 rrcurveto
endchar
                </CharString>
                <CharString name="s">
                    -17 callsubr
487 177 -74 callgsubr
endchar
                </CharString>
                <CharString name="s.sc">
                    -36 callgsubr
endchar
                </CharString>
                <CharString name="sacute">
                    -17 callsubr
217 710 -107 callgsubr
270 -533 -74 callgsubr
endchar
                </CharString>
                <CharString name="sacute.sc">
                    -59 callgsubr
218 735 -107 callgsubr
302 -310 -98 callsubr
endchar
                </CharString>
                <CharString name="scaron">
                    -17 callsubr
350 634 -100 callgsubr
151 -457 -74 callgsubr
endchar
                </CharString>
                <CharString name="scaron.sc">
                    -59 callgsubr
350 659 -100 callgsubr
184 -234 -98 callsubr
endchar
                </CharString>
                <CharString name="scedilla">
                    -98 -179 -21 189 137 -137 140 -118 -21 607 -20 hstemhm
166 264 -170 126 -55 156 hintmask 11001010
260 -202 rmoveto
126 2 rlineto
hintmask 10011010
7 110 -29 70 -46 31 rrcurveto
hintmask 11001001
127 33 42 64 69 vvcurveto
89 -81 78 -45 65 vhcurveto
hintmask 11001100
115 116 -44 73 -98 hhcurveto
-84 -85 -50 -86 -26 8 -25 12 -24 hvcurveto
-36 -29 -49 -32 -66 -40 32 -70 rcurveline
hintmask 10101001
67 34 56 32 47 30 rrcurveto
45 -55 49 -47 -39 vvcurveto
-40 -58 -10 -179 9 vhcurveto
hintmask 11001010
-3 -140 rlineto
25 24 0 1 22 hvcurveto
-30 -30 -27 -47 -26 -66 74 -25 rcurveline
-29 callgsubr
                </CharString>
                <CharString name="scedilla.sc">
                    -64 callgsubr
                </CharString>
                <CharString name="schwa">
                    -58 -15 127 332 134 hstem
34 146 205 150 vstem
195 -15 rmoveto
186 154 195 188 175 -143 123 -327 -167 hvcurveto
11 -80 235 45 67 -14 7 -91 rlinecurve
-234 -19 -117 -80 -127 vvcurveto
-90 61 -58 100 vhcurveto
44 127 rmoveto
-38 -21 22 34 61 70 35 129 10 hvcurveto
-85 -19 -53 -77 -68 hhcurveto
endchar
                </CharString>
                <CharString name="scommaaccent">
                    -17 callsubr
487 177 -74 callgsubr
-422 -481 -103 callsubr
                </CharString>
                <CharString name="scommaaccent.sc">
                    -54 callgsubr
                </CharString>
                <CharString name="section">
                    3 -126 122 579 124 hstemhm
53 147 -43 159 16 161 -64 148 hintmask 11100100
200 284 rmoveto
30 44 26 51 13 vhcurveto
67 -36 67 -26 -34 vvcurveto
-23 -33 -23 -73 -15 vhcurveto
-65 30 -58 25 33 vvcurveto
hintmask 11011000
293 -249 rmoveto
47 -32 35 -44 28 vhcurveto
hintmask 11010100
97 27 63 41 65 129 -261 42 78 vvcurveto
26 24 22 41 43 24 -23 -62 17 vhcurveto
134 29 rlineto
118 -21 -49 62 -118 hhcurveto
-149 -105 -96 -94 -42 23 -33 33 -28 hvcurveto
hintmask 11101000
-89 -24 -71 -51 -73 -138 279 -32 -62 vvcurveto
-34 -62 -12 -215 50 vhcurveto
-32 -140 rlineto
hintmask 11011000
337 -57 133 103 99 vvcurveto
endchar
                </CharString>
                <CharString name="semicolon">
                    -243 381 182 hstem
87 188 vstem
308 -2 callgsubr
                </CharString>
                <CharString name="semicolon.tab">
                    -182 381 182 hstem
107 188 vstem
328 -2 callgsubr
                </CharString>
                <CharString name="servicemark">
                    375 269 97 163 159 -158 160 -88 95 -7 -20 hstemhm
121 121 32 125 hintmask 10001110
693 690 rmoveto
-155 -4 -81 -409 rlineto
112 hlineto
hintmask 10100110
68 callgsubr
hintmask 11000110
60 callgsubr
59 callgsubr
-283 86 rmoveto
hintmask 10010110
87 -12 -43 47 -84 hhcurveto
-101 -77 -67 -67 hvcurveto
-95 153 -49 -37 vvcurveto
-23 -46 0 -134 32 vhcurveto
-22 -110 rlineto
241 -43 86 77 71 94 -157 53 41 vvcurveto
17 19 11 22 26 19 -20 -40 10 vhcurveto
endchar
                </CharString>
</ttFont>
